<svg width="488" height="318" viewBox="0 0 488 318" fill="none" xmlns="http://www.w3.org/2000/svg">
<g clip-path="url(#clip0_55_6574)">
<mask id="mask0_55_6574" style="mask-type:luminance" maskUnits="userSpaceOnUse" x="0" y="0" width="488" height="318">
<path d="M487.72 0.270508H0.280273V317.278H487.72V0.270508Z" fill="white"/>
</mask>
<g mask="url(#mask0_55_6574)">
<path opacity="0.05" d="M123.479 311.287H114.924V316.82H123.479V311.287Z" fill="#292A2E"/>
<path opacity="0.05" d="M36.0129 311.287H27.4579V316.82H36.0129V311.287Z" fill="#292A2E"/>
<path d="M131.321 199.802H19.6158V311.1H131.321V199.802Z" fill="#FEFEFF"/>
<path opacity="0.03" d="M131.321 199.802H19.6158V311.1H131.321V199.802Z" fill="#292A2E"/>
<path d="M152.022 199.802H40.3167V311.1H152.022V199.802Z" fill="#FEFEFF"/>
<path opacity="0.05" d="M144.18 311.287H135.624V316.82H144.18V311.287Z" fill="#292A2E"/>
<path opacity="0.05" d="M56.7138 311.287H48.1588V316.82H56.7138V311.287Z" fill="#292A2E"/>
<path opacity="0.7" d="M147.829 205.014H44.5103V226.397H147.829V205.014Z" fill="white"/>
<path opacity="0.7" d="M147.829 231.631H44.5103V253.013H147.829V231.631Z" fill="white"/>
<path opacity="0.7" d="M147.829 258.247H44.5103V279.629H147.829V258.247Z" fill="white"/>
<path opacity="0.05" d="M96.1689 218.697C97.8751 218.697 99.2584 217.358 99.2584 215.706C99.2584 214.053 97.8751 212.714 96.1689 212.714C94.4635 212.714 93.0803 214.053 93.0803 215.706C93.0803 217.358 94.4635 218.697 96.1689 218.697Z" fill="#292A2E"/>
<path opacity="0.05" d="M96.1689 245.314C97.8751 245.314 99.2584 243.975 99.2584 242.322C99.2584 240.669 97.8751 239.33 96.1689 239.33C94.4635 239.33 93.0803 240.669 93.0803 242.322C93.0803 243.975 94.4635 245.314 96.1689 245.314Z" fill="#292A2E"/>
<path opacity="0.05" d="M96.1689 271.93C97.8751 271.93 99.2584 270.59 99.2584 268.938C99.2584 267.286 97.8751 265.946 96.1689 265.946C94.4635 265.946 93.0803 267.286 93.0803 268.938C93.0803 270.59 94.4635 271.93 96.1689 271.93Z" fill="#292A2E"/>
<path opacity="0.7" d="M147.829 285.462H44.5103V306.845H147.829V285.462Z" fill="white"/>
<path opacity="0.05" d="M96.1689 299.145C97.8751 299.145 99.2584 297.806 99.2584 296.154C99.2584 294.502 97.8751 293.162 96.1689 293.162C94.4628 293.162 93.0803 294.502 93.0803 296.154C93.0803 297.806 94.4628 299.145 96.1689 299.145Z" fill="#292A2E"/>
<path d="M390.767 5.03809H327.711V84.5284H390.767V5.03809Z" fill="#FEFEFF"/>
<path d="M390.768 84.5282H392.813V5.0376H390.768V84.5282Z" fill="#FEFEFF"/>
<path opacity="0.05" d="M390.768 84.5282H392.813V5.0376H390.768V84.5282Z" fill="#292A2E"/>
<path opacity="0.05" d="M379.281 19.5178H339.197V70.0478H379.281V19.5178Z" fill="#292A2E"/>
<path opacity="0.03" d="M379.281 19.5178H377.192V70.0478H379.281V19.5178Z" fill="#292A2E"/>
<path d="M442.337 104.076H390.767V154.48H442.337V104.076Z" fill="#FEFEFF"/>
<path opacity="0.05" d="M432.943 113.258H400.161V145.298H432.943V113.258Z" fill="#292A2E"/>
<path d="M442.337 154.48H444.382V104.076H442.337V154.48Z" fill="#FEFEFF"/>
<path opacity="0.05" d="M442.337 154.48H444.382V104.076H442.337V154.48Z" fill="#292A2E"/>
<path opacity="0.03" d="M432.943 113.258H430.854V145.298H432.943V113.258Z" fill="#292A2E"/>
<path d="M185.506 0.270508H10.9043V169.374H185.506V0.270508Z" fill="#FEFEFF"/>
<path d="M10.9043 0.270508H8.90308V169.374H10.9043V0.270508Z" fill="#FEFEFF"/>
<path opacity="0.05" d="M10.9043 0.270508H8.90308V169.374H10.9043V0.270508Z" fill="#292A2E"/>
<path opacity="0.05" d="M53.2022 116.796V72.5537H90.6223V98.2576H148.585V143.77H173.221V169.373H148.585H143.84H19.3034V116.796H53.2022Z" fill="#292A2E"/>
<path opacity="0.34" d="M85.8193 77.3577H58.5693V82.1613H85.8193V77.3577Z" fill="#FFFFFA"/>
<path opacity="0.34" d="M85.8193 87.312H58.5693V92.1156H85.8193V87.312Z" fill="#FFFFFA"/>
<path opacity="0.34" d="M85.8193 97.2654H58.5693V102.069H85.8193V97.2654Z" fill="#FFFFFA"/>
<path opacity="0.34" d="M29.1578 121.459H24.1353V126.263H29.1578V121.459Z" fill="#FFFFFA"/>
<path opacity="0.34" d="M29.1578 131.414H24.1353V136.217H29.1578V131.414Z" fill="#FFFFFA"/>
<path opacity="0.34" d="M29.1578 141.368H24.1353V146.172H29.1578V141.368Z" fill="#FFFFFA"/>
<path opacity="0.34" d="M38.4493 121.459H33.4268V126.263H38.4493V121.459Z" fill="#FFFFFA"/>
<path opacity="0.34" d="M38.4493 131.414H33.4268V136.217H38.4493V131.414Z" fill="#FFFFFA"/>
<path opacity="0.34" d="M38.4493 141.368H33.4268V146.172H38.4493V141.368Z" fill="#FFFFFA"/>
<path opacity="0.34" d="M47.49 121.459H42.4675V126.263H47.49V121.459Z" fill="#FFFFFA"/>
<path opacity="0.34" d="M47.49 131.414H42.4675V136.217H47.49V131.414Z" fill="#FFFFFA"/>
<path opacity="0.34" d="M47.49 141.368H42.4675V146.172H47.49V141.368Z" fill="#FFFFFA"/>
<path d="M10.9043 83.8736H46.0368V0.270508H48.9424V83.8736H143.84V0.270508H146.745V83.8736H185.506V86.6879H146.745V169.374H143.84V86.6879H48.9424V169.374H46.0368V86.6879H10.9043V83.8736Z" fill="white"/>
<path d="M192.462 169.169H3.94879V174.793H192.462V169.169Z" fill="#FEFEFF"/>
<path opacity="0.1" d="M192.462 169.169H3.94879V174.793H192.462V169.169Z" fill="#292A2E"/>
<path opacity="0.1" d="M3.94875 169.169H1.22705V174.793H3.94875V169.169Z" fill="#292A2E"/>
<path opacity="0.1" d="M3.94875 169.169H1.22705V174.793H3.94875V169.169Z" fill="#292A2E"/>
<path d="M51.712 58.0784V258.216C51.712 274.772 65.5702 288.194 82.6648 288.194H405.334C422.429 288.194 436.288 274.772 436.288 258.216V58.0784C436.288 41.522 422.429 28.1003 405.334 28.1003H82.6648C65.5702 28.1003 51.712 41.522 51.712 58.0784Z" fill="#292A2E"/>
<path d="M425.899 58.1709V258.123C425.898 263.582 423.66 268.817 419.673 272.677C415.687 276.538 410.282 278.707 404.645 278.707H82.6304C76.9942 278.706 71.5887 276.537 67.603 272.677C63.6174 268.817 61.3777 263.582 61.3766 258.123V207.53H67.9329C70.9593 207.531 73.8619 206.367 76.0025 204.295C78.1428 202.222 79.3452 199.411 79.346 196.48V119.814C79.3452 116.883 78.1428 114.072 76.0025 112C73.8619 109.928 70.9593 108.764 67.9329 108.764H61.3766V58.1709C61.3776 52.7118 63.6172 47.4766 67.6029 43.6164C71.5886 39.7563 76.9942 37.5872 82.6304 37.5862H404.645C410.282 37.5864 415.688 39.7552 419.673 43.6156C423.66 47.4758 425.898 52.7116 425.899 58.1709Z" fill="white"/>
<path d="M57.3813 207.53V108.765H67.9342C70.9605 108.765 73.8628 109.929 76.0025 112.002C78.1428 114.074 79.3445 116.885 79.3445 119.816V196.479C79.3445 199.41 78.1428 202.221 76.0025 204.293C73.8628 206.366 70.9605 207.53 67.9342 207.53H57.3813Z" fill="#292A2E"/>
<path d="M450.823 262.919C450.711 262.919 450.603 262.876 450.523 262.798C449.926 262.219 448.953 251.608 446.332 220.014C445.259 207.09 444.246 194.882 443.506 187.465C443.453 186.935 443.242 186.873 443.171 186.853C442.157 186.556 439.081 188.908 437.362 190.967C437.327 191.01 437.285 191.046 437.235 191.073C437.186 191.1 437.131 191.117 437.075 191.123C437.019 191.13 436.963 191.126 436.908 191.111C436.854 191.095 436.803 191.07 436.759 191.035C436.715 191.001 436.679 190.958 436.652 190.91C436.626 190.861 436.609 190.808 436.604 190.754C436.599 190.699 436.605 190.644 436.622 190.592C436.639 190.54 436.667 190.492 436.703 190.45C437.839 189.088 441.542 185.521 443.416 186.066C443.793 186.176 444.261 186.494 444.348 187.386C445.088 194.811 446.101 207.023 447.175 219.95C448.767 239.15 450.573 260.9 451.166 262.269C451.212 262.33 451.239 262.402 451.245 262.478C451.251 262.553 451.234 262.629 451.199 262.696C451.163 262.763 451.109 262.82 451.043 262.859C450.976 262.898 450.899 262.919 450.821 262.919H450.823Z" fill="#494949"/>
<path d="M442.417 201.078C449.45 195.619 451.78 187.121 447.623 182.098C443.466 177.074 434.395 177.428 427.362 182.888C420.329 188.348 417.999 196.846 422.156 201.869C426.313 206.892 435.384 206.538 442.417 201.078Z" fill="#0CBC8B"/>
<path opacity="0.2" d="M442.417 201.078C449.45 195.619 451.78 187.121 447.623 182.098C443.466 177.074 434.395 177.428 427.362 182.888C420.329 188.348 417.999 196.846 422.156 201.869C426.313 206.892 435.384 206.538 442.417 201.078Z" fill="white"/>
<path d="M424.128 203.147C424.088 203.147 424.048 203.136 424.014 203.115C423.98 203.094 423.953 203.064 423.936 203.029C423.919 202.993 423.912 202.954 423.917 202.915C423.923 202.877 423.939 202.84 423.965 202.81L444.008 179.402C444.044 179.359 444.096 179.333 444.152 179.328C444.208 179.324 444.264 179.34 444.307 179.375C444.351 179.409 444.377 179.46 444.383 179.514C444.388 179.568 444.371 179.622 444.335 179.664L424.292 203.072C424.272 203.096 424.248 203.115 424.219 203.127C424.191 203.14 424.159 203.147 424.128 203.147Z" fill="white"/>
<path d="M455.197 257.9C455.129 257.9 455.063 257.885 455.003 257.855C454.942 257.825 454.891 257.781 454.851 257.728C454.812 257.674 454.787 257.613 454.777 257.548C454.767 257.483 454.774 257.417 454.797 257.355L462.325 236.385C462.547 235.769 462.924 235.217 463.424 234.779C463.923 234.341 464.527 234.031 465.182 233.878C465.837 233.725 466.521 233.734 467.171 233.903C467.822 234.072 468.419 234.397 468.906 234.847L472.886 238.53C472.965 238.605 473.01 238.708 473.011 238.815C473.013 238.923 472.97 239.026 472.894 239.104C472.817 239.182 472.712 239.227 472.601 239.231C472.491 239.234 472.383 239.196 472.301 239.123L468.321 235.441C467.936 235.085 467.465 234.828 466.951 234.694C466.437 234.56 465.897 234.553 465.379 234.674C464.861 234.795 464.384 235.039 463.989 235.386C463.596 235.732 463.297 236.169 463.122 236.656L455.594 257.625C455.565 257.705 455.512 257.774 455.441 257.823C455.37 257.873 455.285 257.9 455.197 257.9Z" fill="#494949"/>
<path d="M484.006 250.14C489.217 246.145 488.907 237.357 483.314 230.513C477.72 223.668 468.96 221.358 463.748 225.354C458.536 229.349 458.846 238.136 464.44 244.981C470.034 251.825 478.794 254.136 484.006 250.14Z" fill="#0CBC8B"/>
<path d="M447.403 261.581C447.308 261.581 447.216 261.55 447.141 261.493C447.066 261.436 447.013 261.356 446.992 261.266L434.357 210.105C434.271 209.756 434.088 209.437 433.826 209.183C433.564 208.929 433.236 208.75 432.876 208.665C432.517 208.58 432.139 208.593 431.787 208.702C431.434 208.811 431.119 209.013 430.877 209.284L426.982 213.642C426.946 213.685 426.902 213.72 426.852 213.746C426.802 213.771 426.747 213.787 426.691 213.792C426.634 213.797 426.577 213.79 426.523 213.773C426.469 213.756 426.419 213.729 426.377 213.693C426.334 213.657 426.299 213.613 426.274 213.564C426.249 213.515 426.234 213.461 426.231 213.406C426.228 213.351 426.236 213.297 426.255 213.244C426.274 213.193 426.304 213.146 426.342 213.105L430.234 208.745C430.579 208.359 431.027 208.073 431.528 207.918C432.029 207.763 432.565 207.745 433.076 207.866C433.587 207.986 434.054 208.241 434.425 208.603C434.797 208.964 435.058 209.417 435.18 209.913L447.814 261.074C447.839 261.18 447.82 261.291 447.762 261.383C447.703 261.476 447.609 261.542 447.501 261.567C447.468 261.576 447.436 261.58 447.403 261.581Z" fill="#494949"/>
<path d="M442.482 225.071C444.014 216.472 439.949 208.615 433.402 207.52C426.854 206.426 420.305 212.509 418.772 221.108C417.24 229.706 421.305 237.563 427.853 238.657C434.4 239.752 440.95 233.669 442.482 225.071Z" fill="#0CBC8B"/>
<path d="M450.824 262.918C450.807 262.918 450.789 262.917 450.772 262.915C450.66 262.902 450.559 262.846 450.49 262.761C450.42 262.675 450.39 262.566 450.403 262.458L458.471 199.016C458.559 198.325 458.851 197.673 459.312 197.139C459.774 196.605 460.384 196.211 461.071 196.005C461.758 195.799 462.491 195.789 463.183 195.978C463.876 196.166 464.497 196.543 464.973 197.065L474.194 207.181C474.231 207.221 474.259 207.268 474.277 207.319C474.295 207.37 474.302 207.424 474.299 207.478C474.296 207.532 474.281 207.584 474.257 207.632C474.232 207.681 474.199 207.724 474.157 207.76C474.115 207.796 474.066 207.823 474.013 207.841C473.961 207.858 473.905 207.865 473.849 207.862C473.794 207.859 473.74 207.844 473.69 207.82C473.64 207.797 473.595 207.764 473.558 207.723L464.337 197.609C463.969 197.206 463.489 196.914 462.954 196.768C462.419 196.623 461.852 196.63 461.321 196.789C460.791 196.949 460.319 197.253 459.962 197.665C459.606 198.078 459.38 198.582 459.312 199.117L451.244 262.556C451.232 262.656 451.182 262.748 451.105 262.814C451.027 262.881 450.928 262.918 450.824 262.918Z" fill="#494949"/>
<path d="M483.651 212.803C486.869 207.17 483.083 199.178 475.196 194.953C467.309 190.728 458.308 191.869 455.09 197.503C451.872 203.136 455.658 211.127 463.545 215.353C471.432 219.578 480.433 218.436 483.651 212.803Z" fill="#0CBC8B"/>
<path opacity="0.2" d="M484.006 250.14C489.217 246.145 488.907 237.357 483.314 230.513C477.72 223.668 468.96 221.358 463.748 225.354C458.536 229.349 458.846 238.136 464.44 244.981C470.034 251.825 478.794 254.136 484.006 250.14Z" fill="white"/>
<path opacity="0.5" d="M442.482 225.071C444.014 216.472 439.949 208.615 433.402 207.52C426.854 206.426 420.305 212.509 418.772 221.108C417.24 229.706 421.305 237.563 427.853 238.657C434.4 239.752 440.95 233.669 442.482 225.071Z" fill="white"/>
<path opacity="0.5" d="M483.651 212.803C486.869 207.17 483.083 199.178 475.196 194.953C467.309 190.728 458.308 191.869 455.09 197.503C451.872 203.136 455.658 211.127 463.545 215.353C471.432 219.578 480.433 218.436 483.651 212.803Z" fill="white"/>
<path d="M461.143 316.748H440.505L437.084 252.795H464.563L461.143 316.748Z" fill="#292A2E"/>
<path opacity="0.3" d="M461.143 316.748H440.505L437.084 252.795H464.563L461.143 316.748Z" fill="white"/>
<path d="M484.005 250.343C483.973 250.343 483.941 250.336 483.913 250.322C483.884 250.309 483.859 250.289 483.839 250.265L463.581 225.479C463.548 225.436 463.534 225.382 463.542 225.33C463.548 225.277 463.577 225.229 463.62 225.196C463.663 225.163 463.717 225.147 463.772 225.152C463.826 225.158 463.877 225.183 463.912 225.224L484.171 250.01C484.195 250.04 484.211 250.077 484.216 250.115C484.22 250.153 484.213 250.192 484.195 250.227C484.178 250.262 484.151 250.291 484.118 250.312C484.083 250.332 484.044 250.343 484.005 250.343Z" fill="white"/>
<path d="M482.304 214.79C482.259 214.789 482.215 214.775 482.179 214.749L456.257 196.417C456.211 196.385 456.181 196.337 456.172 196.283C456.163 196.229 456.178 196.175 456.21 196.131C456.243 196.087 456.293 196.057 456.349 196.049C456.405 196.04 456.462 196.054 456.506 196.086L482.43 214.418C482.465 214.444 482.492 214.48 482.504 214.521C482.518 214.562 482.518 214.607 482.503 214.647C482.489 214.688 482.462 214.724 482.426 214.749C482.39 214.774 482.347 214.787 482.302 214.787L482.304 214.79Z" fill="white"/>
<path d="M427.05 238.328C427.031 238.328 427.013 238.326 426.996 238.322C426.969 238.315 426.943 238.302 426.922 238.286C426.899 238.27 426.88 238.249 426.866 238.226C426.853 238.203 426.844 238.177 426.84 238.15C426.836 238.124 426.838 238.096 426.845 238.07L435.097 208.126C435.104 208.1 435.117 208.074 435.133 208.053C435.15 208.031 435.171 208.012 435.196 207.999C435.22 207.985 435.247 207.976 435.274 207.972C435.302 207.968 435.33 207.97 435.358 207.977C435.385 207.984 435.41 207.997 435.433 208.013C435.455 208.029 435.474 208.05 435.487 208.074C435.502 208.098 435.511 208.124 435.514 208.151C435.517 208.178 435.515 208.206 435.507 208.232L427.255 238.176C427.243 238.22 427.216 238.258 427.179 238.286C427.142 238.313 427.096 238.328 427.05 238.328Z" fill="white"/>
<path d="M137.434 196.928V278.708H82.6304C79.8392 278.709 77.0749 278.178 74.4957 277.144C71.9165 276.109 69.573 274.593 67.5992 272.681C65.6254 270.77 64.0599 268.5 62.9922 266.002C61.9245 263.504 61.3755 260.827 61.3766 258.123V207.531H67.9329C70.0249 207.532 72.0769 206.976 73.8642 205.923C75.6512 204.871 77.1055 203.361 78.0658 201.561C78.84 200.127 79.2742 198.544 79.337 196.927L137.434 196.928Z" fill="#FEFEFF"/>
<path opacity="0.03" d="M137.434 196.928V278.708H82.6304C79.8392 278.709 77.0749 278.178 74.4957 277.144C71.9165 276.109 69.573 274.593 67.5992 272.681C65.6254 270.77 64.0599 268.5 62.9922 266.002C61.9245 263.504 61.3755 260.827 61.3766 258.123V207.531H67.9329C70.0249 207.532 72.0769 206.976 73.8642 205.923C75.6512 204.871 77.1055 203.361 78.0658 201.561C78.84 200.127 79.2742 198.544 79.337 196.927L137.434 196.928Z" fill="#292A2E"/>
<path d="M155.835 196.928V278.708H82.6304C79.8392 278.709 77.0749 278.178 74.4957 277.144C71.9165 276.109 69.573 274.593 67.5992 272.681C65.6254 270.77 64.0599 268.5 62.9922 266.002C61.9245 263.504 61.3755 260.827 61.3766 258.123V207.531H67.9329C70.0249 207.532 72.0769 206.976 73.8642 205.923C75.6512 204.871 77.1055 203.361 78.0658 201.561C78.84 200.127 79.2742 198.544 79.337 196.927L155.835 196.928Z" fill="#FEFEFF"/>
<path opacity="0.7" d="M152.11 201.561V220.57H61.3766V207.53H67.9329C70.0249 207.532 72.0769 206.976 73.8642 205.923C75.6512 204.87 77.1048 203.361 78.0658 201.561H152.11Z" fill="white"/>
<path opacity="0.7" d="M152.11 225.221H61.3766V244.229H152.11V225.221Z" fill="white"/>
<path opacity="0.7" d="M152.11 248.884V267.892H63.9195C62.2444 264.892 61.3703 261.533 61.3766 258.123V248.884L152.11 248.884Z" fill="white"/>
<path opacity="0.05" d="M106.185 213.727C107.702 213.727 108.932 212.535 108.932 211.067C108.932 209.598 107.702 208.407 106.185 208.407C104.669 208.407 103.44 209.598 103.44 211.067C103.44 212.535 104.669 213.727 106.185 213.727Z" fill="#292A2E"/>
<path opacity="0.05" d="M106.185 237.387C107.702 237.387 108.932 236.196 108.932 234.727C108.932 233.258 107.702 232.068 106.185 232.068C104.669 232.068 103.44 233.258 103.44 234.727C103.44 236.196 104.669 237.387 106.185 237.387Z" fill="#292A2E"/>
<path opacity="0.05" d="M106.185 261.048C107.702 261.048 108.932 259.857 108.932 258.388C108.932 256.919 107.702 255.728 106.185 255.728C104.669 255.728 103.44 256.919 103.44 258.388C103.44 259.857 104.669 261.048 106.185 261.048Z" fill="#292A2E"/>
<path opacity="0.7" d="M152.11 273.077V278.708H82.6305C77.1974 278.714 71.969 276.697 68.0262 273.077H152.11Z" fill="white"/>
<path d="M394.291 37.5864H327.711V84.7934H394.291V37.5864Z" fill="#FEFEFF"/>
<path d="M396.453 37.5862H394.291V84.7932H396.453V37.5862Z" fill="#FEFEFF"/>
<path opacity="0.05" d="M396.453 37.5862H394.291V84.7932H396.453V37.5862Z" fill="#292A2E"/>
<path opacity="0.05" d="M382.162 37.5862H339.841V69.5038H382.162V37.5862Z" fill="#292A2E"/>
<path opacity="0.03" d="M382.162 37.5862H379.958V69.5038H382.162V37.5862Z" fill="#292A2E"/>
<path d="M425.899 105.436H394.291V158.656H425.899V105.436Z" fill="#FEFEFF"/>
<path opacity="0.05" d="M425.899 115.131H404.213V148.961H425.899V115.131Z" fill="#292A2E"/>
<path d="M191.613 37.5864V174.976H79.346V119.814C79.3452 116.883 78.1428 114.072 76.0025 112C73.8619 109.928 70.9593 108.764 67.933 108.765H61.3766V58.1711C61.3776 52.712 63.6172 47.4767 67.6029 43.6166C71.5886 39.7564 76.9942 37.5874 82.6304 37.5864H191.613Z" fill="#FEFEFF"/>
<path opacity="0.05" d="M178.92 148.526V174.976H79.346V119.814C79.3452 116.883 78.1428 114.072 76.0024 112C73.8619 109.928 70.9593 108.764 67.933 108.765H61.3766V74.9509H93.5861V101.503H153.47V148.526H178.92Z" fill="#292A2E"/>
<path opacity="0.34" d="M88.6232 79.9136H61.3766V84.8754H88.6232V79.9136Z" fill="#FFFFFA"/>
<path opacity="0.34" d="M88.6232 90.1956H61.3766V95.1581H88.6232V90.1956Z" fill="#FFFFFA"/>
<path opacity="0.34" d="M88.6232 100.481H61.3766V105.444H88.6232V100.481Z" fill="#FFFFFA"/>
<path d="M191.613 86.6446V89.5506H151.567V174.976H148.567V89.5506H61.3766V86.6446H148.567V37.5864H151.567V86.6446H191.613Z" fill="white"/>
<path d="M198.801 174.767H79.346V180.579H198.801V174.767Z" fill="#FEFEFF"/>
<path opacity="0.1" d="M198.801 174.767H79.346V180.579H198.801V174.767Z" fill="#292A2E"/>
<path d="M259.802 158.514L169.615 200.108L169.372 117.323L259.802 75.4951V158.514Z" fill="#502FD8"/>
<g opacity="0.58">
<path d="M259.802 158.514L169.615 200.108L169.372 117.323L259.802 75.4951V158.514Z" fill="white"/>
</g>
<path d="M259.802 158.513L318.385 200.108L318.628 117.324L259.802 75.4951V158.513Z" fill="#502FD8"/>
<g opacity="0.88">
<path d="M259.802 158.513L318.385 200.108L318.628 117.324L259.802 75.4951V158.513Z" fill="white"/>
</g>
<path d="M228.831 242.918L168.734 200.185V199.872L168.98 115.877L228.831 158.371V242.918ZM170.009 199.563L227.56 240.486V158.996L170.247 118.302L170.009 199.563Z" fill="#292A2E"/>
<path d="M227.56 242.678V158.295L319.018 116.115L319.264 200.26L318.901 200.428L227.56 242.678ZM228.831 159.072V240.726L317.991 199.485L317.753 118.063L228.831 159.072Z" fill="#292A2E"/>
<path d="M168.982 201.081L168.735 116.937L260.439 74.5188V158.903L168.982 201.081ZM170.009 117.711L170.247 199.134L259.167 158.125V76.4715L170.009 117.711Z" fill="#292A2E"/>
<path d="M319.017 201.32L259.167 158.825V74.2793L319.263 117.013V117.326L319.017 201.32ZM260.439 158.201L317.756 198.896L317.994 117.635L260.44 76.7118L260.439 158.201Z" fill="#292A2E"/>
<path d="M228.195 161.761C229.95 161.761 231.374 160.383 231.374 158.683C231.374 156.983 229.95 155.604 228.195 155.604C226.44 155.604 225.017 156.983 225.017 158.683C225.017 160.383 226.44 161.761 228.195 161.761Z" fill="#502FD8"/>
<path d="M259.802 78.5737C261.558 78.5737 262.981 77.1957 262.981 75.4952C262.981 73.7953 261.558 72.417 259.802 72.417C258.047 72.417 256.624 73.7953 256.624 75.4952C256.624 77.1957 258.047 78.5737 259.802 78.5737Z" fill="#502FD8"/>
<path d="M228.195 243.878C229.95 243.878 231.374 242.5 231.374 240.8C231.374 239.099 229.95 237.721 228.195 237.721C226.44 237.721 225.017 239.099 225.017 240.8C225.017 242.5 226.44 243.878 228.195 243.878Z" fill="#502FD8"/>
<path d="M318.628 120.167C320.384 120.167 321.807 118.789 321.807 117.089C321.807 115.389 320.384 114.01 318.628 114.01C316.873 114.01 315.449 115.389 315.449 117.089C315.449 118.789 316.873 120.167 318.628 120.167Z" fill="#502FD8"/>
<path d="M169.372 120.167C171.127 120.167 172.551 118.789 172.551 117.089C172.551 115.389 171.127 114.01 169.372 114.01C167.616 114.01 166.194 115.389 166.194 117.089C166.194 118.789 167.616 120.167 169.372 120.167Z" fill="#502FD8"/>
<path d="M318.628 204.017C320.384 204.017 321.807 202.639 321.807 200.939C321.807 199.239 320.384 197.86 318.628 197.86C316.873 197.86 315.449 199.239 315.449 200.939C315.449 202.639 316.873 204.017 318.628 204.017Z" fill="#502FD8"/>
<path d="M169.372 204.017C171.127 204.017 172.551 202.639 172.551 200.939C172.551 199.239 171.127 197.86 169.372 197.86C167.616 197.86 166.194 199.239 166.194 200.939C166.194 202.639 167.616 204.017 169.372 204.017Z" fill="#502FD8"/>
<path d="M259.802 161.761C261.558 161.761 262.981 160.383 262.981 158.683C262.981 156.983 261.558 155.604 259.802 155.604C258.047 155.604 256.624 156.983 256.624 158.683C256.624 160.383 258.047 161.761 259.802 161.761Z" fill="#502FD8"/>
<path d="M269.307 103.058L263.135 112.921C262.994 113.144 262.948 113.412 263.004 113.668C263.061 113.924 263.217 114.149 263.441 114.297L273.633 121.083C273.748 121.163 273.877 121.218 274.015 121.248C274.151 121.277 274.293 121.28 274.432 121.257C274.57 121.233 274.702 121.183 274.82 121.11C274.938 121.036 275.04 120.94 275.119 120.828C275.199 120.715 275.254 120.589 275.284 120.456C275.312 120.323 275.313 120.185 275.287 120.053C275.26 119.919 275.207 119.791 275.128 119.679C275.05 119.565 274.95 119.468 274.834 119.393L266.608 113.916C270.68 112.725 280.8 111.102 290.242 120.247C302.144 131.774 295.554 145.094 295.262 145.664C295.142 145.908 295.126 146.187 295.216 146.441C295.307 146.696 295.497 146.906 295.746 147.027C295.996 147.146 296.283 147.167 296.548 147.083C296.812 146.999 297.031 146.818 297.159 146.579C297.237 146.428 304.746 131.392 291.74 118.795C281.838 109.205 270.931 110.655 266.241 111.917L271.119 104.122C271.261 103.889 271.303 103.611 271.235 103.349C271.167 103.087 270.995 102.861 270.756 102.721C270.517 102.581 270.231 102.538 269.96 102.601C269.688 102.664 269.453 102.828 269.307 103.058Z" fill="#0CBC8B"/>
<path d="M285.356 109.995L291.124 114.472L290.648 113.607C290.5 113.324 290.468 112.998 290.56 112.694C290.651 112.39 290.858 112.13 291.139 111.968C291.287 111.89 291.45 111.84 291.618 111.825C291.786 111.809 291.956 111.827 292.116 111.877C292.277 111.927 292.426 112.008 292.553 112.116C292.68 112.223 292.784 112.354 292.857 112.502L296.574 119.913C297.043 120.848 297.116 121.925 296.777 122.911C296.439 123.898 295.716 124.718 294.762 125.196C293.655 125.751 292.402 125.973 291.163 125.833C289.925 125.694 288.758 125.199 287.812 124.413L283.531 120.844C283.305 120.663 283.15 120.412 283.093 120.133C283.036 119.854 283.081 119.564 283.219 119.314C283.349 119.09 283.55 118.912 283.791 118.807C284.032 118.701 284.302 118.672 284.562 118.726C284.562 118.712 284.566 118.698 284.573 118.685C284.579 118.672 284.588 118.661 284.6 118.652C284.611 118.643 284.624 118.636 284.638 118.632C284.652 118.628 284.667 118.627 284.681 118.628L283.889 117.971C283.648 117.78 283.487 117.511 283.435 117.214C283.384 116.916 283.445 116.611 283.608 116.354C283.777 116.104 284.036 115.925 284.334 115.85C284.633 115.775 284.949 115.811 285.222 115.949C285.221 115.936 285.223 115.924 285.227 115.912L284.902 115.641C284.688 115.455 284.541 115.206 284.483 114.933C284.426 114.66 284.461 114.375 284.583 114.122C284.739 113.846 285.001 113.639 285.312 113.548C285.623 113.456 285.959 113.485 286.248 113.63L286.262 113.611L283.838 111.73C283.714 111.634 283.612 111.513 283.537 111.378C283.462 111.242 283.417 111.092 283.404 110.939C283.39 110.785 283.41 110.63 283.46 110.484C283.511 110.338 283.592 110.203 283.697 110.088C283.91 109.872 284.2 109.742 284.508 109.725C284.816 109.708 285.119 109.805 285.356 109.995Z" fill="#E98862"/>
<path opacity="0.2" d="M286.224 113.763C286.232 113.775 286.241 113.784 286.251 113.793L288.627 115.592C288.652 115.611 288.682 115.619 288.714 115.615C288.744 115.612 288.772 115.597 288.791 115.573C288.81 115.55 288.819 115.52 288.815 115.49C288.811 115.46 288.795 115.433 288.771 115.415L286.395 113.614C286.374 113.599 286.347 113.592 286.321 113.593C286.294 113.594 286.268 113.604 286.248 113.622C286.228 113.639 286.215 113.663 286.212 113.689C286.207 113.714 286.212 113.741 286.226 113.763H286.224Z" fill="#0C0C0C"/>
<path opacity="0.2" d="M285.236 115.996C285.242 116.007 285.251 116.017 285.262 116.025L287.118 117.455C287.142 117.473 287.173 117.482 287.204 117.478C287.235 117.475 287.263 117.46 287.282 117.436C287.301 117.413 287.31 117.383 287.306 117.353C287.303 117.323 287.288 117.296 287.263 117.278L285.408 115.848C285.386 115.832 285.359 115.823 285.332 115.824C285.304 115.825 285.278 115.835 285.257 115.853C285.237 115.87 285.224 115.895 285.22 115.921C285.215 115.947 285.221 115.974 285.236 115.996Z" fill="#0C0C0C"/>
<path opacity="0.2" d="M284.576 118.798C284.583 118.81 284.593 118.82 284.604 118.828L285.497 119.485C285.522 119.501 285.552 119.508 285.582 119.502C285.611 119.498 285.637 119.482 285.655 119.459C285.674 119.437 285.682 119.408 285.678 119.379C285.675 119.35 285.661 119.324 285.638 119.305L284.745 118.648C284.724 118.632 284.697 118.624 284.669 118.625C284.642 118.626 284.616 118.636 284.596 118.654C284.576 118.672 284.562 118.696 284.559 118.722C284.555 118.749 284.561 118.775 284.576 118.798Z" fill="#0C0C0C"/>
<path d="M352.144 142.213L321.814 153.427C320.37 153.97 318.797 154.105 317.277 153.818C315.757 153.531 314.352 152.832 313.225 151.803L286.295 127.217L297.54 115.665L320.704 136.814L346.211 127.415L352.144 142.213Z" fill="#502FD8"/>
<path d="M382.931 303.617C382.931 303.617 381.56 310.497 374.909 310.882C368.257 311.268 369.7 316.398 369.7 316.398H395.117V304.097L382.931 303.617Z" fill="#502FD8"/>
<path d="M390.771 178.111C390.771 178.111 390.691 176.043 390.707 180.734C390.771 198.235 391.084 218.223 391.851 229.921C393.083 248.724 396.24 308.008 396.24 308.008L379.538 307.872L363.349 177.4L390.771 178.111Z" fill="#262626"/>
<path d="M371.909 198.748C371.909 198.748 371.217 211.447 371.089 214.428C370.792 221.323 370.689 228.461 370.689 236.555L368.056 215.337C368.056 215.337 369.983 208.688 371.909 198.748Z" fill="#0A0A0A"/>
<path d="M353.196 303.617C353.196 303.617 351.826 310.497 345.174 310.882C338.523 311.268 339.966 316.398 339.966 316.398H365.383V304.097L353.196 303.617Z" fill="#502FD8"/>
<path d="M345.109 179.47C345.109 179.47 343.63 239.281 343.847 242.204L350.057 307.555L366.484 307.849L364.884 239.841C364.884 239.841 366.013 221.08 370.692 203.66C373.087 194.72 374.528 185.564 374.993 176.339L345.109 179.47Z" fill="#262626"/>
<path d="M390.952 178.109L391.007 178.112C391.007 178.112 390.967 177.092 390.952 178.109Z" fill="#333333"/>
<path d="M342.758 146.272C343.102 150.191 344.778 174.643 345.109 179.47H390.754C391.011 175.117 392.17 156.078 393.147 147.563C394.08 139.439 395.912 135.373 394.569 132.969C392.376 129.043 386.382 126.775 382.295 126.237C379.8 125.909 376.047 125.676 376.047 125.676C376.047 125.676 375.729 131.902 368.151 132.249C357.836 132.72 358.525 125.676 358.473 125.676C356.802 125.676 347.073 126.436 344.92 128.041C341.155 130.848 342.027 137.966 342.758 146.272Z" fill="#502FD8"/>
<path d="M342.799 145.65C342.761 145.65 342.723 145.635 342.696 145.61C342.667 145.584 342.65 145.548 342.649 145.511L342.28 139.288C342.279 139.268 342.282 139.249 342.288 139.231C342.294 139.212 342.305 139.196 342.318 139.181C342.332 139.167 342.347 139.155 342.365 139.147C342.383 139.138 342.403 139.133 342.423 139.132C342.442 139.131 342.462 139.134 342.481 139.14C342.5 139.147 342.518 139.156 342.533 139.169C342.547 139.182 342.56 139.197 342.568 139.215C342.577 139.232 342.582 139.251 342.583 139.271L342.951 145.494C342.953 145.513 342.95 145.533 342.943 145.551C342.936 145.569 342.927 145.586 342.913 145.601C342.9 145.615 342.884 145.627 342.866 145.635C342.848 145.643 342.829 145.648 342.808 145.649L342.799 145.65Z" fill="#0C0C0C"/>
<path d="M400.62 179.214C401.963 179.214 403.285 178.9 404.475 178.298C405.665 177.696 406.687 176.825 407.455 175.759C408.223 174.692 408.713 173.462 408.884 172.172C409.055 170.882 408.901 169.572 408.437 168.352C407.966 167.114 396.909 138.762 394.806 133.509L379.223 139.624C380.407 142.58 384.694 153.774 388.138 162.793L382.416 162.191L380.615 178.237L399.718 179.168C400.018 179.199 400.319 179.215 400.62 179.214Z" fill="#502FD8"/>
<path d="M354.288 125.901C354.336 125.895 355.653 130.696 365.931 129.949C373.046 129.432 374.782 124.741 374.945 124.741C374.177 124.584 372.932 124.419 372.591 124.243C372.003 123.98 371.484 123.59 371.077 123.101C370.67 122.613 370.385 122.04 370.243 121.428C369.923 120.237 369.758 115.65 369.758 113.349L358.809 115.733C358.962 118.329 360.03 124.346 356.286 125.411C355.663 125.585 354.992 125.749 354.288 125.901Z" fill="#E98862"/>
<path d="M359.187 120.835C363.504 121.163 369.049 119.399 370.102 113.822L371.053 108.79C372.106 103.213 369.935 98.1554 364.513 97.1946C359.091 96.2339 354.184 100.038 353.131 105.615L352.71 107.843C352.305 109.983 351.486 120.249 359.187 120.835Z" fill="#E98862"/>
<path d="M355.186 115.714C355.961 111.943 356.315 109.429 356.274 106.774C355.183 104.92 355.47 102.792 355.718 101.873C354.967 102.336 354.083 102.555 353.195 102.5C353.195 102.5 354.999 95.4844 361.133 93.5973C362.262 93.1718 365.141 92.6343 368.966 93.1427C372.218 93.5749 380.236 95.93 381.381 104.672V104.677C381.419 104.967 382.187 113.022 383.723 116.887C385.787 122.081 388.683 123.695 388.61 129.69C388.515 137.4 373.881 138.426 365.053 137.849C356.225 137.272 351.298 134.461 351.234 128.905C351.163 122.679 353.636 123.258 355.186 115.714Z" fill="#0A0A0A"/>
<path d="M391.728 147.728L390.607 179.467L390.91 179.477L392.031 147.739L391.728 147.728Z" fill="#0C0C0C"/>
<path d="M0.704082 317.278H487.296C487.408 317.278 487.516 317.235 487.596 317.158C487.675 317.08 487.72 316.977 487.72 316.868C487.72 316.759 487.675 316.654 487.596 316.577C487.516 316.5 487.408 316.457 487.296 316.457H0.704082C0.591682 316.457 0.483884 316.5 0.404404 316.577C0.324924 316.654 0.280273 316.759 0.280273 316.868C0.280273 316.977 0.324924 317.08 0.404404 317.158C0.483884 317.235 0.591682 317.278 0.704082 317.278Z" fill="#262626"/>
</g>
</g>
<defs>
<clipPath id="clip0_55_6574">
<rect width="488" height="318" fill="white"/>
</clipPath>
</defs>
</svg>
