<svg width="25" height="24" viewBox="0 0 25 24" fill="none" xmlns="http://www.w3.org/2000/svg">
<g id="arrow_back_ios">
<mask id="mask0_919_5514" style="mask-type:alpha" maskUnits="userSpaceOnUse" x="0" y="0" width="25" height="24">
<rect id="Bounding box" x="24.5" width="24" height="24" transform="rotate(90 24.5 0)" fill="#D9D9D9"/>
</mask>
<g mask="url(#mask0_919_5514)">
<path id="arrow_back_ios_2" d="M9.16319 2.85L17.388 11.076C17.488 11.1752 17.5628 11.2832 17.6124 11.4C17.6628 11.5168 17.688 11.6336 17.688 11.7504C17.688 11.8672 17.6628 11.984 17.6124 12.1008C17.5628 12.2176 17.488 12.3256 17.388 12.4248L9.13799 20.676C8.92119 20.892 8.67519 21 8.39999 21C8.12479 21 7.87919 20.8836 7.66319 20.6508C7.44639 20.4676 7.34639 20.2216 7.36319 19.9128C7.37919 19.6048 7.48719 19.3508 7.68719 19.1508L15.1128 11.7504L7.66319 4.3008C7.47919 4.1168 7.38719 3.8752 7.38719 3.576C7.38719 3.2752 7.47919 3.0332 7.66319 2.85C7.86319 2.65 8.11319 2.55 8.41319 2.55C8.71319 2.55 8.96319 2.65 9.16319 2.85Z" fill="#89939E"/>
</g>
</g>
</svg>
