<svg width="25" height="24" viewBox="0 0 25 24" fill="none" xmlns="http://www.w3.org/2000/svg">
<g id="arrow_back_ios">
<mask id="mask0_919_5511" style="mask-type:alpha" maskUnits="userSpaceOnUse" x="0" y="0" width="25" height="24">
<rect id="Bounding box" x="0.5" y="24" width="24" height="24" transform="rotate(-90 0.5 24)" fill="#D9D9D9"/>
</mask>
<g mask="url(#mask0_919_5511)">
<path id="arrow_back_ios_2" d="M15.8368 21.15L7.61201 12.924C7.51201 12.8248 7.43721 12.7168 7.38761 12.6C7.33721 12.4832 7.31201 12.3664 7.31201 12.2496C7.31201 12.1328 7.33721 12.016 7.38761 11.8992C7.43721 11.7824 7.51201 11.6744 7.61201 11.5752L15.862 3.324C16.0788 3.108 16.3248 3 16.6 3C16.8752 3 17.1208 3.1164 17.3368 3.3492C17.5536 3.5324 17.6536 3.7784 17.6368 4.0872C17.6208 4.3952 17.5128 4.6492 17.3128 4.8492L9.88721 12.2496L17.3368 19.6992C17.5208 19.8832 17.6128 20.1248 17.6128 20.424C17.6128 20.7248 17.5208 20.9668 17.3368 21.15C17.1368 21.35 16.8868 21.45 16.5868 21.45C16.2868 21.45 16.0368 21.35 15.8368 21.15Z" fill="#89939E"/>
</g>
</g>
</svg>
