<svg width="827" height="827" viewBox="0 0 827 827" fill="none" xmlns="http://www.w3.org/2000/svg">
<path d="M100.447 111.645L122.148 111.182L133.163 111C136.852 111 140.54 111 144.245 111H144.973V111.744L145.072 130.252V131.079H144.245L122.396 130.881C115.085 130.881 107.791 130.699 100.497 130.6H100.034V130.153C100.034 127.01 100.182 123.901 100.249 120.808L100.447 111.645ZM100.447 111.645L100.679 121.006C100.679 124.083 100.861 127.126 100.894 130.153L100.447 129.706C107.741 129.706 115.035 129.442 122.346 129.442L144.245 129.326L143.418 130.153L143.501 111.645L144.245 112.389C140.623 112.389 137.034 112.389 133.411 112.29L122.528 112.108L100.447 111.645Z" fill="#EBEBEB"/>
<path d="M124.876 88.3068L146.577 87.8437L157.593 87.6617C161.281 87.6617 164.986 87.6617 168.674 87.6617H169.402V88.406L169.501 106.914V107.741H168.707L146.775 107.51C139.465 107.51 132.171 107.328 124.876 107.229H124.413V106.782C124.413 103.639 124.562 100.53 124.628 97.4368L124.876 88.3068ZM124.876 88.3068L125.108 97.6684C125.108 100.745 125.29 103.788 125.323 106.815L124.876 106.368C132.171 106.368 139.465 106.104 146.775 106.104L168.707 105.988L167.88 106.815V88.3068L168.625 89.0511C165.019 89.0511 161.413 89.0511 157.791 88.9518L146.908 88.7699L124.876 88.3068Z" fill="#EBEBEB"/>
<path d="M167.351 326.101L189.052 325.64L200.068 325.457C203.756 325.374 207.461 325.457 211.149 325.357H211.877V326.101L211.976 344.611V345.438H211.149L189.25 345.323C181.94 345.323 174.646 345.14 167.351 345.057H166.888V344.611C166.888 341.468 167.037 338.34 167.103 335.248L167.351 326.101ZM167.351 326.101L167.583 335.446C167.583 338.524 167.765 341.584 167.798 344.611L167.351 344.147C174.646 344.147 181.94 343.881 189.25 343.881L211.149 343.784L210.322 344.611V326.101L211.067 326.83C207.444 326.83 203.855 326.83 200.233 326.83L189.35 326.647L167.351 326.101Z" fill="#EBEBEB"/>
<path d="M191.864 302.765L213.564 302.301L224.58 302.118C228.269 302.118 231.974 302.118 235.662 302.02H236.39V302.765L236.489 321.272V322.099H235.662L213.763 321.984C206.452 321.984 199.158 321.8 191.864 321.718H191.401V321.272C191.401 318.129 191.55 315.004 191.632 311.912L191.864 302.765ZM191.864 302.765L192.096 312.11C192.096 315.184 192.277 318.244 192.311 321.272L191.864 320.876C199.158 320.793 206.452 320.628 213.763 320.61L235.662 320.513L234.835 321.34V302.83L235.579 303.559C231.974 303.559 228.368 303.559 224.746 303.477L213.862 303.293L191.864 302.765Z" fill="#EBEBEB"/>
<path d="M76.0834 88.3068L97.8004 87.8437L108.733 87.6617C112.405 87.6617 116.11 87.6617 119.799 87.6617H120.543V88.406L120.626 106.914V107.741H119.782L97.8996 107.51C90.6055 107.51 83.3113 107.328 76.0007 107.229H75.5541V106.782C75.5541 103.639 75.7029 100.53 75.7691 97.4368L76.0834 88.3068ZM76.0834 88.3068L76.3315 97.6684C76.3315 100.745 76.5134 103.788 76.5465 106.815L76.0834 106.368C83.394 106.368 90.6882 106.104 97.9823 106.104L119.881 105.988L119.054 106.815L119.087 88.3068L119.815 89.0511C116.209 89.0511 112.62 89.0511 108.998 88.9518L98.1146 88.7699L76.0834 88.3068Z" fill="#EBEBEB"/>
<path d="M726.552 490.263L704.852 490.724L693.835 490.925C690.149 490.925 686.46 490.925 682.754 491.008H682.027V490.263L681.927 471.771V470.926H682.754L704.654 471.027C711.964 471.027 719.26 471.207 726.552 471.29H727.016V471.739C727.016 474.863 726.868 477.988 726.8 481.084L726.552 490.263ZM726.552 490.263L726.322 480.918C726.322 477.841 726.139 474.798 726.106 471.771L726.552 472.217C719.26 472.3 711.964 472.483 704.654 472.483L682.754 472.58L683.581 471.771L683.498 490.263L682.754 489.534C686.378 489.534 689.966 489.534 693.587 489.534L704.471 489.732L726.552 490.263Z" fill="#EBEBEB"/>
<path d="M750.999 513.6L729.281 514.063L718.267 514.261C714.578 514.261 710.889 514.261 707.2 514.344H706.456V513.6L706.373 495.092V494.265H707.218L729.116 494.363C736.411 494.363 743.703 494.546 751.016 494.629H751.462V495.06C751.462 498.203 751.312 501.327 751.247 504.42L750.999 513.6ZM750.999 513.6L750.751 504.254C750.751 501.18 750.567 498.135 750.535 495.092L750.999 495.556C743.689 495.639 736.393 495.819 729.101 495.819L707.2 495.919L708.027 495.092L707.912 513.6L707.185 512.873C710.789 512.873 714.38 512.873 718.001 512.956L728.885 513.154L750.999 513.6Z" fill="#EBEBEB"/>
<path d="M144.61 513.6L122.909 514.063L111.893 514.261C108.205 514.261 104.5 514.261 100.812 514.344H100.084V513.6L99.9846 495.092V494.265H100.894L122.793 494.363C130.104 494.363 137.398 494.546 144.692 494.629H145.155V495.06C145.155 498.203 145.006 501.327 144.924 504.42L144.61 513.6ZM144.61 513.6L144.378 504.254C144.378 501.18 144.196 498.135 144.163 495.092L144.61 495.556C137.315 495.639 130.021 495.819 122.711 495.819L100.894 495.919L101.721 495.092L101.639 513.6L100.894 512.873C104.5 512.873 108.106 512.873 111.728 512.956L122.611 513.154L144.61 513.6Z" fill="#EBEBEB"/>
<path d="M682.57 88.3068L704.288 87.8437L715.305 87.6617C718.976 87.6617 722.68 87.6617 726.369 87.6617H727.113V88.406L727.196 106.914V107.741H726.369L704.471 107.51C697.176 107.51 689.866 107.328 682.57 107.229H682.124V106.782C682.124 103.639 682.257 100.53 682.34 97.4368L682.57 88.3068ZM682.57 88.3068L682.804 97.6684C682.886 100.745 683.002 103.788 683.019 106.815L682.57 106.368C689.866 106.368 697.176 106.104 704.471 106.104L726.369 105.988L725.542 106.815L725.642 88.3068L726.369 89.0511C722.763 89.0511 719.159 89.0511 715.553 88.9518L704.604 88.7699L682.57 88.3068Z" fill="#EBEBEB"/>
<path d="M745.408 373.441H525.195V65.9116H745.408V373.441ZM531.729 366.907H738.874V72.4449H531.729V366.907Z" fill="#EBEBEB"/>
<path d="M638.559 74.1485H632.026V370.165H638.559V74.1485Z" fill="#EBEBEB"/>
<path d="M751.347 79.1271H519.273V88.2241H751.347V79.1271Z" fill="#EBEBEB"/>
<path d="M751.347 89.3656H519.273V98.4626H751.347V89.3656Z" fill="#EBEBEB"/>
<path d="M751.347 99.587H519.273V108.684H751.347V99.587Z" fill="#EBEBEB"/>
<path d="M751.347 109.826H519.273V118.923H751.347V109.826Z" fill="#EBEBEB"/>
<path d="M751.347 120.064H519.273V129.161H751.347V120.064Z" fill="#EBEBEB"/>
<path d="M751.347 130.302H519.273V139.399H751.347V130.302Z" fill="#EBEBEB"/>
<path d="M751.347 140.541H519.273V149.638H751.347V140.541Z" fill="#EBEBEB"/>
<path d="M751.347 150.779H519.273V159.876H751.347V150.779Z" fill="#EBEBEB"/>
<path d="M751.347 161.017H519.273V170.114H751.347V161.017Z" fill="#EBEBEB"/>
<path d="M731.927 77.2746H730.291V254.335H731.927V77.2746Z" fill="#A6A6A6"/>
<path d="M734.013 261.944H728.206L729.662 253.608H732.557L734.013 261.944Z" fill="#A6A6A6"/>
<path d="M737.817 77.2746H736.178V298.993H737.817V77.2746Z" fill="#A6A6A6"/>
<path d="M739.899 305.13H734.092L735.549 296.793H738.443L739.899 305.13Z" fill="#A6A6A6"/>
<path d="M761.484 64.6383H509.134V83.6759H761.484V64.6383Z" fill="#DBDBDB"/>
<path d="M254.782 173.802H69.8315V184.785H254.782V173.802Z" fill="#EBEBEB"/>
<path d="M94.8566 184.785H83.874V221.107H94.8566V184.785Z" fill="#EBEBEB"/>
<path d="M94.8566 184.785H83.874V196.016H94.8566V184.785Z" fill="#DBDBDB"/>
<path d="M240.74 184.785H229.757V221.107H240.74V184.785Z" fill="#EBEBEB"/>
<path d="M240.74 184.785H229.757V196.016H240.74V184.785Z" fill="#DBDBDB"/>
<path d="M111.529 173.802V103.805H93.8973V173.802H111.529Z" fill="#C7C7C7"/>
<path d="M111.529 107.774V100.083H93.8973V107.774H111.529Z" fill="#DBDBDB"/>
<path d="M111.529 120.477V117.616H93.8973V120.477H111.529Z" fill="#DBDBDB"/>
<path d="M113.728 164.623V156.932H93.9136V164.623H113.728Z" fill="#DBDBDB"/>
<path d="M123.835 173.802V92.1606H111.513V173.802H123.835Z" fill="#DBDBDB"/>
<path d="M121.32 131.245V99.8351H113.927V131.245H121.32Z" fill="#EBEBEB"/>
<path d="M211.45 165.064L153.39 107.668L144.727 116.432L202.788 173.827L211.45 165.064Z" fill="#C7C7C7"/>
<path d="M196.147 153.315L173.809 131.233L168.612 136.491L190.949 158.573L196.147 153.315Z" fill="#DBDBDB"/>
<path d="M144.758 173.819V111.81H123.835V173.819H144.758Z" fill="#A6A6A6"/>
<path d="M144.758 167.236V161.463H123.835V167.236H144.758Z" fill="#C7C7C7"/>
<path d="M144.758 157.675V155.426H123.835V157.675H144.758Z" fill="#C7C7C7"/>
<path d="M93.897 173.835V115.548H79.441V173.835H93.897Z" fill="#A6A6A6"/>
<path d="M93.897 167.633V162.208H79.441V167.633H93.897Z" fill="#C7C7C7"/>
<path d="M93.897 132.965V127.54H79.441V132.965H93.897Z" fill="#C7C7C7"/>
<path d="M93.897 138.803V136.703H79.441V138.803H93.897Z" fill="#C7C7C7"/>
<path d="M746.483 738.659C746.483 762.131 597.392 781.166 413.5 781.166C229.608 781.166 80.5165 762.131 80.5165 738.659C80.5165 715.19 229.608 696.151 413.5 696.151C597.392 696.151 746.483 715.19 746.483 738.659Z" fill="#EBEBEB"/>
<path d="M661.83 540.264C661.83 540.264 634.392 534.044 619.358 520.183C604.321 506.322 595.904 481.497 595.904 481.497C606.333 483.497 616.617 486.199 626.683 489.584C630.461 493.48 633.603 497.946 635.996 502.816C636.232 499.685 636.232 496.537 635.996 493.406C639.51 494.921 642.801 496.912 645.772 499.328C658.292 510.176 661.83 540.264 661.83 540.264Z" fill="#5131D7"/>
<path d="M613.04 493.554C609.301 490.972 605.497 488.476 601.775 485.863C601.545 485.715 601.775 485.349 601.991 485.499C609.071 489.717 616.032 494.233 622.781 498.962C625.129 500.616 627.445 502.32 629.728 504.074L629.249 503.262C628.422 501.889 627.596 500.533 626.686 499.177C624.967 496.427 623.017 493.825 620.861 491.403C620.779 491.321 620.861 491.188 620.994 491.27C623.13 493.737 625.262 496.232 627.214 498.796C628.139 500.037 629.001 501.327 629.828 502.633C630.257 503.33 630.67 504.006 631.051 504.718L631.465 505.412C635.021 508.209 638.476 511.119 641.77 514.178C643.808 516.075 645.778 518.039 647.674 520.068C646.599 516.76 645.671 513.452 644.449 510.144C644.449 510.029 644.596 509.978 644.632 510.144C645.822 513.567 647.127 517.023 648.055 520.546C650.155 522.812 652.172 525.163 654.06 527.626L653.959 527.18C653.646 525.872 653.33 524.584 652.984 523.308C652.323 520.827 651.578 518.346 650.751 515.915C649.168 510.864 646.667 506.148 643.373 502.007C643.291 501.906 643.373 501.773 643.506 501.874C648.646 508.289 652.246 515.797 654.024 523.822C654.322 524.98 654.588 526.155 654.851 527.328C655.002 527.957 655.167 528.586 655.265 529.23C656.092 530.355 656.919 531.48 657.698 532.638C662.356 539.798 666.237 547.433 669.276 555.413C672.723 564.365 675.683 573.498 678.14 582.769C678.131 582.799 678.11 582.825 678.087 582.843C678.06 582.861 678.031 582.87 678.001 582.87C677.969 582.87 677.939 582.861 677.913 582.843C677.889 582.825 677.868 582.799 677.859 582.769C672.484 566.711 667.008 550.419 657.814 536.079C655.873 533.046 653.782 530.116 651.543 527.295C646.998 527.003 642.511 526.114 638.196 524.649C633.491 523.054 629.001 520.883 624.831 518.18C622.456 516.577 620.164 514.849 617.967 513.006C617.952 513 617.94 512.991 617.928 512.979C617.92 512.967 617.911 512.956 617.905 512.938C617.902 512.923 617.902 512.908 617.905 512.894C617.908 512.876 617.914 512.864 617.923 512.849C617.931 512.837 617.946 512.829 617.961 512.823C617.973 512.814 617.991 512.811 618.005 512.811C618.02 512.814 618.035 512.817 618.05 512.826C618.064 512.832 618.076 512.843 618.085 512.855C621.919 515.951 626.151 518.517 630.67 520.481C635.106 522.516 639.746 524.07 644.514 525.113C646.534 525.559 648.601 525.889 650.651 526.17C648.114 523.042 645.414 520.05 642.564 517.206C641.637 516.278 640.677 515.386 639.717 514.494C636.521 512.256 633.128 510.315 629.58 508.688C625.079 506.505 620.649 504.204 616.198 501.939C613.684 500.666 611.236 499.36 608.672 498.12C608.557 498.12 608.672 497.919 608.772 497.969C613.271 500.152 617.852 502.187 622.4 504.272C626.949 506.354 631.033 508.209 635.136 510.507L635.665 510.82C631.943 507.512 628.092 504.502 624.087 501.525C620.483 498.846 616.794 496.2 613.04 493.554Z" fill="#263238"/>
<path d="M614.609 507.778C616.842 508.753 619.107 509.615 621.325 510.655C623.54 511.697 625.741 512.956 627.941 514.229C627.95 514.235 627.959 514.24 627.965 514.249C627.974 514.258 627.979 514.27 627.982 514.279C627.985 514.291 627.985 514.302 627.982 514.314C627.982 514.323 627.98 514.335 627.974 514.344C627.968 514.356 627.962 514.361 627.953 514.37C627.944 514.376 627.932 514.382 627.923 514.385C627.912 514.388 627.9 514.388 627.891 514.388C627.879 514.385 627.867 514.382 627.858 514.376C625.676 513.337 623.458 512.359 621.242 511.269C619.024 510.176 616.827 508.953 614.544 507.961C614.443 507.778 614.493 507.663 614.609 507.778Z" fill="#263238"/>
<path d="M750.916 401.922C745.821 408.455 742.927 416.433 742.646 424.715C742.563 427.178 742.944 430.619 743.243 434.639C736.39 438.614 730.321 443.804 725.329 449.953C730.808 446.772 737.099 445.266 743.423 445.62C743.281 448.399 742.935 451.164 742.383 453.89C738.411 453.902 734.479 454.685 730.805 456.191C734.406 456.152 737.976 456.861 741.29 458.273C736.328 473.838 721.874 489.832 681.746 496.613C677.496 477.525 680.01 457.552 688.858 440.112C700.915 416.412 750.916 401.922 750.916 401.922Z" fill="#5131D7"/>
<path d="M667.885 563.172C668.579 556.556 669.448 549.94 670.481 543.324C672.513 530.095 675.213 516.978 678.571 504.024C680.148 497.943 682.086 491.962 684.375 486.111C684.26 485.044 684.212 483.975 684.227 482.903C684.227 481.612 684.227 480.322 684.227 479.031C684.227 476.467 684.375 473.903 684.591 471.34C684.998 466.26 685.822 461.221 687.057 456.274C687.801 453.412 688.711 450.6 689.488 447.77C689.494 447.753 689.508 447.738 689.523 447.729C689.541 447.717 689.558 447.711 689.579 447.711C689.597 447.711 689.618 447.717 689.632 447.729C689.65 447.738 689.662 447.753 689.668 447.77C688.33 452.709 687.334 457.733 686.691 462.807C685.982 467.801 685.533 472.831 685.353 477.873C685.353 479.247 685.27 480.638 685.27 482.008C685.27 482.605 685.27 483.201 685.27 483.78C687.246 478.984 689.505 474.311 692.034 469.786C696.115 462.612 700.708 455.739 705.779 449.226C705.788 448.464 705.901 447.708 706.11 446.979C706.29 446.084 706.491 445.192 706.689 444.282C707.103 442.463 707.566 440.626 708.063 438.824C709.055 435.185 710.378 431.662 711.518 428.073C711.527 428.055 711.539 428.04 711.554 428.029C711.571 428.02 711.589 428.014 711.61 428.014C711.628 428.014 711.648 428.02 711.663 428.029C711.681 428.04 711.693 428.055 711.701 428.073C710.641 431.629 709.929 435.318 709.12 438.939C708.706 440.726 708.325 442.513 707.93 444.315C707.732 445.207 707.531 446.102 707.351 446.993C707.351 446.993 707.351 447.144 707.351 447.209C708.972 445.159 710.626 443.139 712.313 441.154C719.971 432.158 728.371 423.855 736.842 415.635C737.882 414.608 738.942 413.633 740 412.623C740 412.623 740.215 412.623 740.132 412.773C732.046 421.209 724.089 429.727 716.545 438.659C714.744 440.791 712.989 442.941 711.252 445.109L713.999 443.29C716.333 441.769 718.695 440.28 721.129 438.921C723.56 437.566 726.091 436.21 728.522 434.97C730.953 433.729 733.847 432.654 736.346 431.216C736.443 431.216 736.544 431.331 736.429 431.381C733.892 432.551 731.44 433.906 729.101 435.433C726.652 436.889 724.222 438.343 721.823 439.867C719.425 441.388 717.092 442.844 714.744 444.365C712.791 445.638 710.874 447.026 708.839 448.184C704.185 454.168 699.887 460.42 695.971 466.909C693.552 471 691.342 475.212 689.355 479.527L690.793 478.901L694.482 477.247C696.83 476.204 699.214 475.179 701.577 474.152C706.078 472.185 710.659 470.398 715.074 468.247C717.564 467.075 719.974 465.737 722.287 464.245C722.384 464.245 722.467 464.245 722.37 464.411C714.1 470.085 704.902 474.069 695.805 478.106L691.853 479.858C690.761 480.339 689.668 480.868 688.545 481.299C685.843 487.333 683.572 493.551 681.746 499.907C678.161 512.69 675.245 525.653 673.013 538.74C670.715 551.857 669.158 565.057 667.953 578.321C667.802 579.975 667.655 581.629 667.457 583.283C667.433 583.407 667.371 583.516 667.274 583.596C667.179 583.676 667.058 583.72 666.934 583.72C666.81 583.72 666.692 583.676 666.594 583.596C666.5 583.516 666.435 583.407 666.414 583.283C666.562 576.602 667.173 569.871 667.885 563.172Z" fill="#263238"/>
<path d="M692.314 452.286C693.041 448.202 694.134 444.214 695.226 440.212C695.226 440.097 695.439 440.212 695.407 440.212C694.399 444.132 693.67 448.134 692.926 452.103C692.181 456.073 691.52 460.243 690.941 464.328C690.941 464.328 690.826 464.411 690.826 464.328C691.091 460.288 691.591 456.268 692.314 452.286Z" fill="#263238"/>
<path d="M709.566 463.35C712.36 461.501 715.278 459.844 718.3 458.388C719.753 457.644 721.241 456.917 722.715 456.206C724.186 455.494 725.84 454.85 727.361 454.088C727.462 454.088 727.544 454.188 727.361 454.239C725.89 454.983 724.502 455.893 723.061 456.652L718.595 459.1C715.668 460.671 712.774 462.408 709.699 463.699C709.663 463.69 709.631 463.672 709.604 463.646C709.578 463.622 709.557 463.593 709.545 463.557C709.531 463.525 709.528 463.489 709.531 463.454C709.534 463.415 709.545 463.383 709.566 463.35Z" fill="#263238"/>
<path opacity="0.1" d="M661.337 492.727C661.337 492.727 635.948 486.657 624.287 469.571C613.155 453.311 609.549 425.574 609.269 423.126C609.715 425.376 614.957 449.59 632.241 460.905C645.491 469.603 658.292 476.715 661.337 492.727Z" fill="#263238"/>
<path d="M661.337 492.727C661.337 492.727 635.948 486.657 624.288 469.571C613.156 453.311 609.549 425.574 609.269 423.126C609.26 423.073 609.26 423.016 609.269 422.96C609.269 422.96 621.44 440.28 634.244 444.696C647.045 449.111 665.008 464.428 661.337 492.727Z" fill="#5131D7"/>
<path d="M613.734 432.554C616.012 437.22 618.637 441.71 621.591 445.983C624.547 450.039 628.062 453.66 632.026 456.734C635.484 459.481 639.123 461.962 642.611 464.641V464.508C641.95 463.551 641.256 462.591 640.529 461.682C639.073 459.812 637.484 458.058 635.88 456.321C632.738 452.898 629.512 449.539 626.683 445.836C625.106 443.774 623.744 441.556 622.616 439.22C622.616 439.105 622.731 439.054 622.781 439.22C626.898 447.803 635.136 453.296 640.975 460.539C641.805 461.569 642.582 462.642 643.306 463.749C643.89 464.553 644.384 465.418 644.779 466.328C647.996 468.909 650.902 471.851 653.445 475.094C653.224 473.419 652.881 471.759 652.42 470.132C651.832 467.869 650.926 465.704 649.724 463.699C649.724 463.599 649.824 463.483 649.889 463.599C651.115 465.61 652.107 467.751 652.851 469.984C653.386 471.762 653.699 473.602 653.776 475.46C655.034 477.167 656.183 478.951 657.217 480.8C657.102 480.257 657.001 479.71 656.904 479.146C656.39 476.618 655.843 474.087 655.25 471.588C654.051 466.505 651.986 461.664 649.145 457.281C649.062 457.183 649.145 457.083 649.295 457.183C652.208 461.498 654.485 466.212 656.059 471.174C656.868 473.673 657.515 476.136 658.094 478.768C658.375 480.009 658.623 481.264 658.853 482.522C658.986 483.166 659.119 483.845 659.234 484.507C661.748 490.039 663.709 495.807 665.088 501.723C667.578 512.3 669.386 523.021 670.499 533.829C671.81 545.144 672.395 556.53 672.251 567.919C672.251 569.357 672.135 570.778 672.07 572.201C672.07 572.565 671.491 572.633 671.474 572.201C671.226 566.56 671.078 560.922 670.747 555.298C670.416 549.674 669.92 544.051 669.324 538.427C668.166 527.393 666.397 516.432 664.031 505.595C661.963 496.315 659.302 486.97 654.222 478.833C651.7 474.784 648.616 471.112 645.06 467.934C641.504 464.742 637.617 461.944 633.863 458.985C630.059 456.091 626.606 452.759 623.576 449.061C620.474 444.958 617.772 440.572 615.504 435.962L613.684 432.521C613.519 432.554 613.634 432.456 613.734 432.554Z" fill="#263238"/>
<path d="M618.118 436.293C619.786 439.719 621.677 443.033 623.774 446.217C623.774 446.217 623.774 446.364 623.658 446.217C621.476 443.074 619.562 439.754 617.934 436.293C617.884 436.242 618.067 436.177 618.118 436.293Z" fill="#263238"/>
<path d="M754.522 481.497C754.522 481.497 754.936 517.587 733.351 527.989C711.766 538.395 700.271 529.744 685.55 533.235C686.112 532.372 696.582 517.321 713.222 513.186C730.356 508.903 749.262 496.531 754.522 481.497Z" fill="#5131D7"/>
<path opacity="0.1" d="M754.522 481.497C754.522 481.497 754.936 517.587 733.351 527.989C711.766 538.395 700.271 529.744 685.55 533.235C693.298 529.537 701.583 527.086 710.095 525.972C723.708 524.318 749.693 515.469 754.522 481.497Z" fill="black"/>
<path d="M684.127 533.879C686.691 531.531 689.582 529.569 692.713 528.057C693.159 527.842 693.637 527.659 694.119 527.461C694.337 527.171 694.574 526.894 694.828 526.634C695.489 525.954 696.151 525.31 696.863 524.699C698.221 523.532 699.677 522.487 701.213 521.571C704.787 519.471 708.707 518 712.36 516.048C712.46 516.048 712.561 516.148 712.443 516.213C710.641 517.141 708.887 518.18 707.135 519.208C705.381 520.233 703.677 521.158 702.008 522.233C700.513 523.199 699.087 524.265 697.74 525.426C697.359 525.756 696.996 526.12 696.632 526.486C699.019 525.683 701.455 525.036 703.925 524.548C707.879 523.757 711.864 523.193 715.819 522.351C717.75 521.937 719.661 521.423 721.54 520.812C723.327 519.356 725.114 517.932 726.818 516.361C728.868 514.48 730.734 512.409 732.391 510.176C732.391 510.094 732.622 510.176 732.539 510.277C729.925 513.818 726.965 517.091 723.708 520.05C724.635 519.687 725.545 519.306 726.454 518.892C733.868 515.572 740.23 510.28 744.846 503.593C744.846 503.495 745.077 503.593 745.012 503.693C741.086 509.432 736.018 514.297 730.126 517.983C727.178 519.826 724.024 521.317 720.73 522.434C716.906 523.618 713.004 524.54 709.052 525.195C705.183 525.821 701.364 526.728 697.625 527.907C694.181 529.073 690.944 530.777 688.032 532.951C682.538 537.222 678.11 542.707 675.098 548.98C671.229 557.33 668.819 566.279 667.968 575.444C667.968 575.822 667.339 575.822 667.357 575.444C668.364 560.192 672.434 544.396 684.127 533.879Z" fill="#263238"/>
<path d="M709.17 522.103C710.296 520.419 711.817 519.037 713.604 518.083C715.647 517.014 717.446 515.525 718.879 513.715C718.879 513.617 719.109 513.715 719.026 513.815C717.733 515.463 716.158 516.875 714.38 517.983C712.422 519.025 710.694 520.455 709.303 522.186C709.235 522.268 709.102 522.186 709.17 522.103Z" fill="#263238"/>
<path d="M697.707 560.508L696.73 580.356L693.72 640.975H648.451L645.441 580.356L644.463 560.508H697.707Z" fill="#37474F"/>
<path d="M697.707 560.508L696.73 580.356H645.441L644.463 560.508H697.707Z" fill="#263238"/>
<path d="M700.882 552.22H641.288V571.159H700.882V552.22Z" fill="#37474F"/>
<path d="M69.8315 640.975L155.74 640.576L241.666 640.429L413.5 640.148L585.333 640.429L671.258 640.576L757.169 640.975L671.258 641.389L585.333 641.536L413.5 641.802L241.666 641.522L155.74 641.389L69.8315 640.975Z" fill="#263238"/>
<path d="M620.613 685.187V108.717C620.613 96.9424 611.067 87.3971 599.294 87.3971H227.722C215.947 87.3971 206.402 96.9424 206.402 108.717V685.187C206.402 696.96 215.947 706.506 227.722 706.506H599.294C611.067 706.506 620.613 696.96 620.613 685.187Z" fill="#263238"/>
<path d="M603.131 130.732H224.349V663.552H603.131V130.732Z" fill="white"/>
<path d="M458.554 113.696V111.397C458.554 110.255 457.629 109.329 456.486 109.329H370.478C369.338 109.329 368.411 110.255 368.411 111.397V113.696C368.411 114.838 369.338 115.763 370.478 115.763H456.486C457.629 115.763 458.554 114.838 458.554 113.696Z" fill="#37474F"/>
<path d="M413.5 696.151C419.939 696.151 425.161 690.932 425.161 684.49C425.161 678.051 419.939 672.829 413.5 672.829C407.058 672.829 401.839 678.051 401.839 684.49C401.839 690.932 407.058 696.151 413.5 696.151Z" fill="#37474F"/>
<path d="M544.777 203.905H282.718V207.593H544.777V203.905Z" fill="#EBEBEB"/>
<path d="M544.777 215.351H282.718V219.039H544.777V215.351Z" fill="#EBEBEB"/>
<path d="M544.777 563.899H282.718V567.585H544.777V563.899Z" fill="#EBEBEB"/>
<path d="M544.777 575.344H282.718V579.033H544.777V575.344Z" fill="#EBEBEB"/>
<path d="M346.43 615.058C353.117 615.058 358.537 609.635 358.537 602.948C358.537 596.261 353.117 590.841 346.43 590.841C339.743 590.841 334.324 596.261 334.324 602.948C334.324 609.635 339.743 615.058 346.43 615.058Z" fill="#5131D7"/>
<path d="M346.628 610.013L339.416 602.718L341.849 600.319L346.049 604.587L354.815 590.859L357.677 592.693L346.628 610.013Z" fill="white"/>
<path d="M376.749 602.85C376.755 601.979 376.911 601.12 377.209 600.302C377.517 599.469 377.983 598.707 378.583 598.054C379.221 597.33 380.009 596.757 380.893 596.37C381.776 595.986 382.733 595.797 383.695 595.821C384.853 595.8 385.999 596.099 387.004 596.68C387.901 597.2 388.631 597.971 389.104 598.896L387.036 600.402C386.871 600.027 386.64 599.687 386.357 599.392C386.109 599.138 385.822 598.922 385.515 598.748C385.211 598.591 384.886 598.476 384.555 598.399C384.233 598.334 383.905 598.302 383.577 598.302C382.957 598.284 382.343 598.426 381.793 598.715C381.294 598.975 380.86 599.342 380.517 599.791C380.178 600.242 379.921 600.751 379.758 601.294C379.383 602.422 379.383 603.639 379.758 604.767C379.942 605.323 380.228 605.839 380.6 606.288C380.966 606.723 381.409 607.08 381.909 607.349C382.42 607.609 382.987 607.748 383.563 607.745C383.896 607.739 384.23 607.694 384.555 607.612C384.895 607.541 385.225 607.42 385.53 607.248C385.846 607.068 386.135 606.844 386.389 606.587C386.661 606.297 386.879 605.961 387.036 605.594L389.269 606.885C389.047 607.414 388.72 607.892 388.309 608.291C387.893 608.696 387.42 609.035 386.903 609.301C385.852 609.865 384.673 610.161 383.48 610.161C382.523 610.166 381.578 609.954 380.718 609.531C379.9 609.124 379.171 608.563 378.568 607.877C377.966 607.195 377.49 606.41 377.162 605.562C376.846 604.693 376.707 603.772 376.749 602.85Z" fill="#5131D7"/>
<path d="M397.093 610.096C396.121 610.11 395.158 609.901 394.281 609.481C392.636 608.687 391.363 607.29 390.725 605.58C390.397 604.741 390.229 603.849 390.229 602.948C390.226 602.023 390.406 601.108 390.757 600.254C391.094 599.41 391.582 598.636 392.196 597.971C392.816 597.283 393.563 596.722 394.396 596.317C395.265 595.927 396.207 595.729 397.158 595.738C398.121 595.721 399.075 595.936 399.937 596.367C400.761 596.766 401.5 597.33 402.102 598.021C402.737 598.716 403.236 599.522 403.576 600.402C403.901 601.235 404.069 602.121 404.072 603.016C404.072 603.94 403.892 604.856 403.543 605.713C403.219 606.551 402.734 607.319 402.12 607.978C401.5 608.634 400.758 609.162 399.937 609.531C399.042 609.933 398.071 610.125 397.093 610.096ZM393.005 602.948C393.008 603.55 393.103 604.147 393.289 604.72C393.463 605.264 393.732 605.772 394.08 606.224C394.441 606.655 394.878 607.015 395.371 607.284C395.911 607.547 396.508 607.68 397.108 607.662C397.722 607.674 398.327 607.538 398.877 607.266C399.376 606.997 399.813 606.631 400.168 606.191C400.516 605.733 400.785 605.216 400.962 604.67C401.125 604.132 401.216 603.577 401.228 603.016C401.228 602.413 401.127 601.814 400.93 601.247C400.752 600.697 400.478 600.189 400.117 599.74C399.775 599.297 399.335 598.94 398.83 598.698C398.316 598.444 397.749 598.314 397.176 598.317C396.567 598.305 395.965 598.444 395.421 598.716C394.913 598.967 394.47 599.333 394.13 599.791C393.779 600.242 393.51 600.751 393.336 601.294C393.144 601.826 393.032 602.384 393.005 602.948Z" fill="#5131D7"/>
<path d="M408.819 600.963V609.995H406.089V595.904H408.207L415.55 605.148V595.918H418.297V609.995H416.064L408.819 600.963Z" fill="#5131D7"/>
<path d="M421.224 609.995V595.904H430.702V598.302H423.97V601.941H429.562V604.156H423.97V609.995H421.224Z" fill="#5131D7"/>
<path d="M432.621 609.995V595.904H435.365V609.995H432.621Z" fill="#5131D7"/>
<path d="M438.31 609.995V595.904H444.545C445.168 595.898 445.785 596.034 446.347 596.3C446.881 596.571 447.363 596.938 447.77 597.375C448.16 597.824 448.473 598.332 448.698 598.881C448.91 599.404 449.023 599.968 449.028 600.535C449.043 601.415 448.807 602.28 448.349 603.031C447.927 603.766 447.277 604.348 446.497 604.685L449.705 609.995H446.58L443.703 605.264H441.007V609.995H438.31ZM441.057 602.865H444.495C444.74 602.871 444.982 602.809 445.192 602.685C445.41 602.567 445.602 602.402 445.753 602.204C445.924 601.988 446.054 601.74 446.134 601.477C446.234 601.191 446.285 600.886 446.282 600.582C446.279 600.272 446.223 599.965 446.116 599.673C446.019 599.407 445.874 599.159 445.685 598.946C445.514 598.751 445.307 598.589 445.074 598.467C444.855 598.355 444.61 598.299 444.365 598.302H441.057V602.865Z" fill="#5131D7"/>
<path d="M462.987 609.995V600.668L459.366 607.615H457.877L454.239 600.668V609.995H451.542V595.904H454.487L458.654 603.926L462.854 595.904H465.781V609.995H462.987Z" fill="#5131D7"/>
<path d="M478.452 607.597V609.995H468.661V595.904H478.269V598.302H471.39V601.61H477.327V603.843H471.39V607.514L478.452 607.597Z" fill="#5131D7"/>
<path d="M480.602 609.995V595.904H485.715C486.752 595.877 487.782 596.069 488.739 596.465C489.569 596.799 490.316 597.313 490.925 597.971C491.51 598.615 491.956 599.377 492.23 600.204C492.836 602.035 492.836 604.011 492.23 605.842C491.929 606.672 491.451 607.426 490.83 608.052C490.213 608.681 489.466 609.168 488.642 609.481C487.723 609.836 486.746 610.01 485.762 609.995H480.602ZM489.897 602.933C489.912 602.298 489.817 601.666 489.616 601.064C489.454 600.52 489.179 600.018 488.807 599.59C488.45 599.176 488.004 598.848 487.499 598.633C486.932 598.405 486.326 598.293 485.715 598.302H483.331V607.597H485.715C486.332 607.603 486.946 607.479 487.516 607.234C488.019 607.009 488.468 606.675 488.822 606.256C489.185 605.819 489.454 605.311 489.616 604.767C489.814 604.177 489.909 603.556 489.897 602.933Z" fill="#5131D7"/>
<path d="M517.108 538.212H309.895V362.92L413.485 297.123L517.108 362.92V538.212Z" fill="#5131D7"/>
<path opacity="0.2" d="M517.108 538.212H309.895V362.92L413.485 297.123L517.108 362.92V538.212Z" fill="black"/>
<path d="M505.412 288.788H321.57V524.797H505.412V288.788Z" fill="#EBEBEB"/>
<path d="M402.303 429.99L360.209 387.382L374.35 373.405L398.945 398.298L450.021 318.212L466.791 328.898L402.303 429.99Z" fill="#5131D7"/>
<path d="M517.108 406.884V538.212H309.895V406.884C318.794 411.846 327.542 417.204 336.359 422.367C345.175 427.526 353.906 432.884 362.625 438.245C372.333 444.149 382.042 450.169 391.717 456.223L392.031 456.04C391.933 456.04 391.865 456.206 391.782 456.256C399.019 460.722 406.255 465.214 413.5 469.736C420.713 465.187 427.973 460.606 435.218 456.123C435.135 456.123 435.07 455.975 434.97 455.907C435.067 455.975 435.173 456.031 435.283 456.073C444.956 450.042 454.652 444.043 464.378 438.08C473.1 432.751 481.843 427.47 490.609 422.234C499.508 417.121 508.209 411.846 517.108 406.884Z" fill="#5131D7"/>
<g opacity="0.2">
<path d="M517.108 406.884C508.738 412.756 500.22 418.462 491.784 424.186C483.349 429.907 474.766 435.498 466.198 441.104C457.266 446.961 448.317 452.762 439.353 458.507L438.543 459.068L414.676 474.284L413.485 474.996L412.327 474.284L388.492 459.035L387.647 458.507C378.663 452.75 369.702 446.937 360.77 441.072C352.237 435.498 343.719 429.842 335.216 424.186C326.715 418.527 318.262 412.673 309.895 406.884C318.794 411.846 327.542 417.204 336.359 422.367C345.175 427.526 353.906 432.884 362.625 438.245C372.333 444.149 382.042 450.169 391.717 456.223C398.995 460.71 406.255 465.214 413.5 469.736C420.713 465.187 427.973 460.607 435.218 456.123C444.888 450.092 454.587 444.093 464.31 438.127C473.035 432.802 481.778 427.521 490.544 422.284C499.508 417.121 508.209 411.846 517.108 406.884Z" fill="black"/>
<path d="M391.998 455.958C391.901 455.958 391.833 456.123 391.75 456.173L388.442 458.953C383.25 463.336 377.924 467.536 372.516 471.62C365.9 476.582 359.166 481.544 352.385 486.276C345.603 491.008 338.724 495.639 331.71 500.119C324.698 504.603 317.651 508.986 310.341 513.006C316.626 507.497 323.159 502.352 329.76 497.358C336.359 492.363 343.14 487.434 349.889 482.687C356.638 477.941 363.585 473.292 370.579 468.809C376.155 465.238 381.826 461.714 387.6 458.424C388.938 457.644 390.279 456.9 391.652 456.141L391.998 455.958Z" fill="black"/>
<path d="M516.612 513.006C509.302 508.986 502.205 504.603 495.243 500.119C488.279 495.639 481.317 490.972 474.536 486.276C467.754 481.58 461.005 476.65 454.404 471.62C449.029 467.536 443.703 463.35 438.543 458.985L435.235 456.173C435.153 456.173 435.088 456.026 434.987 455.958C435.085 456.026 435.191 456.082 435.3 456.123C436.674 456.9 438.015 457.644 439.353 458.424C445.127 461.732 450.765 465.238 456.374 468.809C463.371 473.292 470.218 477.956 477.031 482.687C483.845 487.416 490.562 492.313 497.16 497.358C503.761 502.402 510.327 507.497 516.612 513.006Z" fill="black"/>
</g>
<path d="M324.846 277.541C323.744 268.45 323.744 259.259 324.846 250.167C325.947 259.259 325.947 268.45 324.846 277.541Z" fill="#263238"/>
<path d="M313.203 281.891C309.579 279.094 306.147 276.055 302.93 272.794C299.666 269.589 296.627 266.163 293.834 262.539C301.043 268.189 307.546 274.686 313.203 281.891Z" fill="#263238"/>
<path d="M308.057 293.188C303.518 293.776 298.943 294.053 294.363 294.015C289.79 294.066 285.219 293.795 280.684 293.205C285.219 292.608 289.79 292.332 294.363 292.378C298.94 292.334 303.518 292.605 308.057 293.188Z" fill="#263238"/>
<path d="M312.408 304.814C306.752 312.018 300.257 318.522 293.057 324.184C298.701 316.963 305.198 310.456 312.408 304.8V304.814Z" fill="#263238"/>
<path d="M500.914 277.541C500.341 272.999 500.069 268.424 500.105 263.846C500.072 259.272 500.353 254.702 500.946 250.167C502.051 259.259 502.051 268.45 500.946 277.541H500.914Z" fill="#263238"/>
<path d="M512.56 281.891C518.216 274.686 524.717 268.189 531.926 262.539C529.135 266.163 526.093 269.589 522.829 272.794C519.616 276.055 516.184 279.094 512.56 281.891Z" fill="#263238"/>
<path d="M517.702 293.188C522.245 292.605 526.82 292.334 531.398 292.378C535.97 292.331 540.542 292.607 545.076 293.205C540.542 293.796 535.97 294.067 531.398 294.015C526.82 294.053 522.245 293.776 517.702 293.188Z" fill="#263238"/>
<path d="M513.354 304.814C520.564 310.465 527.062 316.968 532.706 324.184C529.085 321.381 525.659 318.336 522.451 315.069C519.185 311.865 516.145 308.439 513.354 304.814Z" fill="#263238"/>
<path d="M280.005 756.076C276.433 757.234 174.662 755.91 170.841 753.397C169.369 752.47 168.691 737.634 168.394 719.673V719.109C168.394 715.42 168.278 711.601 168.261 707.747C168.261 707.218 168.261 706.689 168.261 706.093L173.223 653.297L241.302 653.974L234.57 706.276V708.343L234.157 719.159V720.285C234.157 720.285 272.893 738.213 276.83 741.423C280.766 744.631 283.562 754.951 280.005 756.076Z" fill="#F7A9A0"/>
<path d="M280.005 756.076C276.433 757.234 174.662 755.91 170.841 753.397C169.369 752.47 168.691 737.634 168.394 719.673V719.109C168.394 715.42 168.278 711.601 168.261 707.747C168.261 707.218 168.261 706.689 168.261 706.093L234.553 706.276V708.343L234.14 719.159V720.285C234.14 720.285 272.877 738.213 276.814 741.423C280.75 744.631 283.562 754.951 280.005 756.076Z" fill="#EBEBEB"/>
<path d="M280.304 756.324C276.699 757.482 174.002 756.507 170.115 753.994C168.626 753.048 167.898 738.08 167.535 719.968L233.695 720.417C233.695 720.417 272.845 738.378 276.831 741.589C280.817 744.796 283.893 755.151 280.304 756.324Z" fill="#5131D7"/>
<path d="M278.865 752.207C261.663 751.61 192.179 750.866 175.126 751.592C174.994 751.592 174.994 751.693 175.126 751.711C192.179 752.653 261.647 752.833 278.865 752.487C279.229 752.47 279.229 752.207 278.865 752.207Z" fill="#263238"/>
<path d="M270.297 737.832C268.385 737.77 266.479 738.1 264.701 738.806C262.922 739.512 261.308 740.576 259.96 741.934C257.524 744.374 256.116 747.652 256.023 751.099C256.023 751.197 256.222 751.197 256.238 751.099C256.853 747.694 258.556 744.581 261.092 742.23C263.627 739.876 266.857 738.408 270.297 738.047C270.315 738.056 270.334 738.056 270.353 738.056C270.371 738.053 270.389 738.047 270.405 738.035C270.421 738.027 270.434 738.012 270.443 737.994C270.451 737.979 270.456 737.959 270.456 737.941C270.456 737.92 270.451 737.903 270.443 737.885C270.434 737.87 270.421 737.855 270.405 737.844C270.389 737.835 270.371 737.829 270.353 737.826C270.334 737.823 270.315 737.826 270.297 737.832Z" fill="#263238"/>
<path d="M240.409 722.201C233.512 722.036 225.523 724.387 221.173 729.975C221.008 730.209 221.322 730.439 221.521 730.324C227.579 727.228 233.95 724.789 240.525 723.046C240.625 723.017 240.711 722.955 240.767 722.869C240.824 722.78 240.847 722.677 240.833 722.574C240.819 722.47 240.769 722.379 240.691 722.308C240.613 722.24 240.513 722.204 240.409 722.201Z" fill="#263238"/>
<path d="M245.702 724.319C238.822 724.154 230.816 726.52 226.466 732.111C226.301 732.326 226.615 732.557 226.814 732.456C232.869 729.352 239.241 726.909 245.818 725.164C245.918 725.134 246.004 725.072 246.06 724.984C246.117 724.898 246.14 724.795 246.126 724.691C246.112 724.588 246.061 724.493 245.983 724.425C245.906 724.358 245.806 724.319 245.702 724.319Z" fill="#263238"/>
<path d="M251.011 726.437C244.114 726.289 236.125 728.637 231.775 734.228C231.61 734.441 231.907 734.689 232.122 734.574C238.176 731.481 244.541 729.042 251.11 727.296C251.203 727.261 251.282 727.196 251.333 727.11C251.385 727.027 251.407 726.927 251.395 726.827C251.384 726.729 251.34 726.638 251.27 726.567C251.201 726.496 251.109 726.449 251.011 726.437Z" fill="#263238"/>
<path d="M256.37 728.569C249.489 728.404 241.484 730.77 237.134 736.361C236.969 736.576 237.283 736.807 237.481 736.709C243.5 733.611 249.832 731.166 256.37 729.414C256.468 729.393 256.555 729.343 256.619 729.266C256.682 729.19 256.716 729.092 256.716 728.992C256.716 728.891 256.682 728.797 256.619 728.72C256.555 728.643 256.468 728.59 256.37 728.569Z" fill="#263238"/>
<path d="M179.675 735.286C171.934 735.286 171.851 747.245 179.675 747.295C187.498 747.342 187.415 735.336 179.675 735.286Z" fill="white"/>
<path d="M248.101 703.877C244.644 700.947 240.212 703.744 238.045 706.722C234.377 711.905 232.141 717.963 231.561 724.287C231.561 724.42 231.66 724.484 231.776 724.484C231.801 724.614 231.856 724.736 231.937 724.839C232.019 724.945 232.124 725.028 232.243 725.081C232.363 725.137 232.494 725.161 232.626 725.155C232.757 725.149 232.886 725.114 233 725.049C237.962 721.741 243.635 718.728 247.406 713.982C249.59 711.22 251.31 706.654 248.101 703.877ZM239.5 718.447C237.119 720.101 234.654 721.755 232.339 723.525C233.488 720.069 234.813 716.675 236.308 713.352C237.061 711.755 237.918 710.21 238.872 708.721C240.394 706.456 247.142 700.767 247.82 708.275C248.101 712.41 242.279 716.412 239.434 718.447H239.5Z" fill="#263238"/>
<path d="M214.391 726.667C220.395 727.645 226.598 726.006 232.503 725.146C232.63 725.114 232.748 725.052 232.848 724.963C232.948 724.877 233.026 724.771 233.077 724.647C233.128 724.526 233.151 724.396 233.143 724.263C233.135 724.133 233.097 724.003 233.032 723.891C233.053 723.873 233.07 723.849 233.081 723.826C233.093 723.802 233.098 723.776 233.098 723.749C233.098 723.722 233.093 723.696 233.081 723.672C233.07 723.646 233.053 723.625 233.032 723.607C228.373 719.328 222.668 716.35 216.492 714.974C212.87 714.23 207.726 715.157 207.147 719.655C206.568 723.906 210.901 726.106 214.391 726.667ZM210.273 722.798C205.675 716.844 214.54 716.445 217.187 717.092C218.877 717.529 220.535 718.081 222.149 718.746C225.556 720.101 228.765 721.906 231.957 723.575C229.029 723.823 226.151 724.319 223.224 724.668C219.8 725.031 212.82 725.991 210.273 722.798Z" fill="#263238"/>
<path opacity="0.1" d="M222.133 756.489C196.612 756.043 171.984 755.199 170.115 753.994C168.626 753.048 167.898 738.08 167.535 719.968H176.962C187.383 728.504 209.43 746.252 222.133 756.489Z" fill="black"/>
<path d="M238.508 719.49H165.219C165.219 719.49 179.973 548.319 179.394 545.324C178.666 541.487 174.332 524.17 168.577 501.525C166.774 494.446 164.822 486.855 162.804 478.981C157.329 457.68 151.226 434.405 146.066 414.144C138.193 383.811 132.04 360.241 132.04 360.241H194.147C194.147 360.241 201.392 383.182 210.522 413.054C225.408 461.566 245.256 528.353 247.208 544.597C250.383 570.778 238.508 719.49 238.508 719.49Z" fill="#37474F"/>
<path d="M235.266 706.952C224.068 706.722 227.277 706.639 216.079 706.524C210.604 706.524 174.613 706.158 169.486 707.002C169.455 707.002 169.426 707.014 169.404 707.035C169.383 707.058 169.37 707.088 169.37 707.117C169.37 707.15 169.383 707.177 169.404 707.2C169.426 707.221 169.455 707.233 169.486 707.233C174.613 708.077 210.604 707.764 216.079 707.714C227.277 707.614 224.068 707.516 235.266 707.283C235.31 707.283 235.352 707.265 235.383 707.236C235.414 707.203 235.431 707.162 235.431 707.117C235.431 707.073 235.414 707.032 235.383 707.002C235.352 706.97 235.31 706.952 235.266 706.952Z" fill="#263238"/>
<path d="M193.188 534.821C190.79 524.235 187.184 513.848 184.058 503.395C177.707 482.277 171.317 461.162 164.888 440.047C161.679 429.494 158.46 418.94 155.229 408.387C153.597 403.062 151.943 397.743 150.267 392.426C148.613 387.216 146.777 382.074 145.305 376.814C144.709 374.681 144.379 375.854 145.156 378.568C146.694 384.026 148.216 389.499 149.82 394.957C152.963 405.765 156.138 416.56 159.347 427.343C165.699 448.813 172.105 470.265 178.567 491.702C181.798 502.462 185.034 513.213 188.276 523.955C189.915 529.07 191.235 534.286 192.229 539.567C193.102 545.085 193.324 550.687 192.89 556.255C192.179 567.47 190.872 578.667 189.847 589.849C188.821 601.031 187.763 612.278 186.737 623.475C184.676 645.792 182.625 668.104 180.585 690.412C180.336 693.242 180.088 696.068 179.873 698.912C179.873 699.858 181.23 699.775 181.329 698.912C183.744 676.867 185.596 654.718 187.664 632.637C189.731 610.556 191.799 588.659 193.85 566.675C194.362 561.152 194.958 555.629 194.958 550.135C194.945 544.981 194.351 539.842 193.188 534.821Z" fill="#263238"/>
<path d="M187.101 360.209C182.784 393.569 174.564 456.141 168.577 501.493C154.567 446.58 132.04 360.209 132.04 360.209H187.101Z" fill="#263238"/>
<path d="M202.352 757.068C198.795 758.226 97.0248 757.284 93.1875 754.785C91.7155 753.861 90.9877 739.025 90.6238 721.061V720.5C90.5411 716.811 90.475 712.989 90.4584 709.135C90.4584 708.606 90.4584 708.077 90.4584 707.481C90.2269 681.581 92.1124 654.703 92.1124 654.703L158.636 655.132L156.767 707.434V709.501L156.403 720.335V721.442C156.403 721.442 195.024 739.338 198.961 742.481C202.897 745.623 205.924 755.878 202.352 757.068Z" fill="#F7A9A0"/>
<path d="M202.351 757.068C198.795 758.226 97.0239 757.284 93.1866 754.785C91.7146 753.861 90.9868 739.025 90.6229 721.061V720.5C90.5402 716.811 90.4741 712.989 90.4575 709.135C90.4575 708.606 90.4575 708.077 90.4575 707.481H156.75V709.548L156.386 720.382V721.493C156.386 721.493 195.023 739.338 198.96 742.481C202.896 745.623 205.923 755.878 202.351 757.068Z" fill="#EBEBEB"/>
<path d="M202.764 756.853C199.158 758.01 96.4615 757.036 92.5746 754.522C91.086 753.577 90.3583 738.608 89.9944 720.497L156.154 720.946C156.154 720.946 195.305 738.907 199.274 742.117C203.244 745.325 206.353 755.68 202.764 756.853Z" fill="#5131D7"/>
<path d="M201.325 752.735C184.107 752.139 114.638 751.394 97.5857 752.124C97.4534 752.124 97.4534 752.221 97.5857 752.221C114.622 753.181 184.107 753.365 201.325 753.016C201.689 752.998 201.689 752.735 201.325 752.735Z" fill="#263238"/>
<path d="M192.757 738.363C190.845 738.295 188.939 738.626 187.16 739.332C185.381 740.038 183.768 741.104 182.42 742.463C179.979 744.9 178.569 748.181 178.483 751.628C178.483 751.725 178.682 751.725 178.698 751.628C179.313 748.222 181.016 745.109 183.551 742.758C186.087 740.404 189.317 738.936 192.757 738.576C192.779 738.567 192.797 738.552 192.81 738.535C192.823 738.514 192.83 738.493 192.83 738.47C192.83 738.446 192.823 738.422 192.81 738.405C192.797 738.384 192.779 738.369 192.757 738.363Z" fill="#263238"/>
<path d="M162.87 722.798C155.972 722.65 147.984 724.998 143.634 730.59C143.468 730.802 143.766 731.05 143.981 730.935C150.039 727.843 156.41 725.403 162.985 723.657C163.079 723.622 163.157 723.554 163.208 723.468C163.259 723.383 163.279 723.282 163.265 723.182C163.252 723.084 163.206 722.993 163.134 722.922C163.062 722.851 162.969 722.81 162.87 722.798Z" fill="#263238"/>
<path d="M168.162 724.848C161.282 724.682 153.276 727.033 148.926 732.639C148.761 732.855 149.075 733.085 149.274 732.988C155.33 729.884 161.701 727.438 168.278 725.692C168.378 725.663 168.464 725.601 168.52 725.515C168.577 725.427 168.6 725.323 168.586 725.22C168.572 725.117 168.521 725.025 168.444 724.957C168.366 724.886 168.266 724.851 168.162 724.848Z" fill="#263238"/>
<path d="M173.472 726.965C166.575 726.8 158.586 729.166 154.236 734.757C154.054 734.973 154.368 735.203 154.583 735.103C160.632 732.001 166.998 729.562 173.571 727.825C173.664 727.79 173.742 727.725 173.794 727.642C173.846 727.556 173.868 727.456 173.856 727.358C173.845 727.258 173.801 727.166 173.731 727.095C173.661 727.025 173.57 726.98 173.472 726.965Z" fill="#263238"/>
<path d="M178.765 729.101C171.868 728.936 163.879 731.284 159.529 736.889C159.364 737.105 159.678 737.335 159.876 737.238C165.931 734.131 172.303 731.685 178.881 729.943C178.98 729.916 179.066 729.851 179.123 729.765C179.18 729.677 179.203 729.573 179.189 729.47C179.175 729.37 179.124 729.275 179.046 729.207C178.969 729.139 178.869 729.101 178.765 729.101Z" fill="#263238"/>
<path d="M102.135 735.814C94.3941 735.814 94.3114 747.773 102.135 747.824C109.958 747.874 109.876 735.865 102.135 735.814Z" fill="white"/>
<path d="M170.495 704.406C167.022 701.479 162.606 704.273 160.423 707.25C156.781 712.437 154.567 718.489 154.005 724.8C154.002 724.827 154.005 724.857 154.015 724.883C154.025 724.91 154.041 724.933 154.062 724.954C154.083 724.972 154.108 724.987 154.136 724.995C154.163 725.001 154.192 725.004 154.22 724.998C154.243 725.128 154.296 725.252 154.376 725.359C154.457 725.465 154.562 725.548 154.681 725.607C154.802 725.663 154.933 725.69 155.066 725.684C155.199 725.681 155.329 725.642 155.444 725.577C160.406 722.269 166.079 719.26 169.85 714.495C172.017 711.716 173.77 707.168 170.495 704.406ZM161.895 718.976C159.513 720.63 157.048 722.284 154.733 724.038C155.909 720.58 157.262 717.186 158.785 713.866C159.538 712.274 160.395 710.733 161.349 709.253C162.871 706.985 169.619 701.296 170.297 708.789C170.562 712.874 164.74 716.944 161.895 718.976Z" fill="#263238"/>
<path d="M136.852 727.196C142.84 728.173 149.059 726.519 154.947 725.675C155.072 725.642 155.187 725.583 155.285 725.5C155.383 725.415 155.461 725.311 155.511 725.193C155.563 725.075 155.586 724.948 155.58 724.818C155.574 724.691 155.538 724.564 155.476 724.452C155.5 724.434 155.52 724.414 155.533 724.387C155.547 724.36 155.554 724.331 155.554 724.301C155.554 724.275 155.547 724.245 155.533 724.219C155.52 724.192 155.5 724.171 155.476 724.154C150.81 719.883 145.108 716.906 138.936 715.52C135.314 714.791 130.17 715.718 129.591 720.217C129.012 724.452 133.362 726.617 136.852 727.196ZM132.734 723.226C128.136 717.272 137.001 716.894 139.647 717.538C141.338 717.975 142.995 718.527 144.609 719.192C147.953 720.636 151.221 722.246 154.401 724.021C151.474 724.269 148.596 724.75 145.685 725.114C142.244 725.56 135.281 726.519 132.734 723.226Z" fill="#263238"/>
<path d="M192.146 360.209C192.146 360.209 190.707 389.981 183.876 413.468C183.331 415.42 182.735 417.322 182.107 419.156C175.88 421.684 169.895 424.774 164.227 428.386C164.227 428.386 163.516 452.286 162.804 478.966C162.011 508.738 161.15 542.016 161.349 549.078C161.977 575.542 158.041 720.547 158.041 720.547L84.7522 720.846C84.7522 720.846 97.9842 558.754 97.9842 549.146C97.8353 533.613 101.524 464.939 104.385 414.873C106.039 384.009 107.561 360.291 107.561 360.291L192.146 360.209Z" fill="#37474F"/>
<path d="M155.477 707.499C144.279 707.315 147.488 707.218 136.307 707.15C130.816 707.15 94.8247 706.952 89.7139 707.829C89.6831 707.829 89.6536 707.841 89.6317 707.862C89.6102 707.885 89.5978 707.915 89.5978 707.944C89.5978 707.974 89.6102 708.004 89.6317 708.027C89.6536 708.048 89.6831 708.06 89.7139 708.06C94.8247 708.887 130.832 708.408 136.307 708.343C147.505 708.178 144.279 708.11 155.477 707.829C155.521 707.829 155.563 707.812 155.594 707.779C155.625 707.75 155.642 707.708 155.642 707.664C155.642 707.62 155.625 707.578 155.594 707.546C155.563 707.516 155.521 707.499 155.477 707.499Z" fill="#263238"/>
<path d="M113.663 370.827C112.307 411.713 110.884 452.599 109.048 493.453C107.212 534.307 104.748 575.459 101.324 616.345C99.4054 639.206 97.586 671.359 95.1216 694.083C95.1216 694.234 95.3366 694.299 95.3697 694.083C100.696 653.528 103.64 603.397 106.303 562.576C108.966 521.754 110.702 480.901 112.092 440.047C112.886 416.891 113.481 393.735 114.176 370.676C114.126 370.496 113.679 370.496 113.663 370.827Z" fill="#263238"/>
<path d="M185.249 417.387C177.937 420.441 170.903 424.121 164.226 428.386C164.18 428.421 164.149 428.475 164.137 428.531C164.126 428.587 164.134 428.646 164.162 428.699C164.19 428.749 164.234 428.791 164.288 428.811C164.342 428.832 164.402 428.835 164.458 428.817C171.52 425.376 178.732 422.068 185.612 418.246C185.7 418.184 185.763 418.093 185.792 417.986C185.82 417.883 185.813 417.774 185.771 417.673C185.729 417.573 185.654 417.49 185.56 417.44C185.465 417.387 185.355 417.369 185.249 417.387Z" fill="#263238"/>
<path d="M185.597 392.178C185.1 394.777 184.472 397.356 183.943 399.952C183.413 402.551 183.033 404.914 182.388 407.265C181.854 409.587 180.672 411.707 178.981 413.385C178.038 414.259 176.979 415.039 175.97 415.866L174.316 417.171C174.316 416.823 174.465 416.477 174.515 416.114C174.697 415.121 174.862 414.144 175.027 413.151C175.391 410.951 175.739 408.754 176.086 406.535C176.748 402.203 177.343 397.837 178.253 393.569C178.253 393.386 178.021 393.321 177.988 393.569C176.913 397.802 175.722 401.987 174.779 406.273C174.316 408.373 172.679 418.725 172.613 419.505C172.546 420.281 172.464 421.026 172.447 421.785C172.339 422.556 172.339 423.332 172.447 424.1C172.447 424.301 172.712 424.266 172.795 424.1C173.117 423.386 173.339 422.629 173.456 421.853C173.655 421.123 173.82 420.364 173.952 419.62C173.952 419.354 173.952 419.073 174.068 418.793C175.094 418.181 176.036 417.354 176.996 416.657C177.955 415.963 179.08 415.186 180.039 414.377C181.781 412.83 183.02 410.795 183.595 408.538C184.225 406.098 184.635 403.608 184.819 401.095C185.15 398.15 185.382 395.191 185.795 392.261C185.894 391.998 185.63 391.998 185.597 392.178Z" fill="#263238"/>
<path d="M158.784 292.874C164.457 309.96 189.863 364.276 200.531 368.08C211.646 372.017 254.567 376.929 264.094 369.439C268.758 365.75 270.379 326.435 264.094 327.427C257.809 328.419 219.965 329.79 215.467 328.186C210.968 326.582 180.915 282.834 168.708 272.182C147.653 253.905 155.757 283.661 158.784 292.874Z" fill="#F7A9A0"/>
<path d="M254.6 326.765L253.988 375.706C253.988 375.706 209.975 375.821 198.248 369.651C186.522 363.484 161.712 306.932 155.509 285.298C149.307 263.664 159.231 260.323 174.993 276.201C190.756 292.08 214.458 325.36 217.269 326.036C220.081 326.715 254.6 326.765 254.6 326.765Z" fill="#5131D7"/>
<path d="M195.868 300.381C186.811 301.902 178.042 304.803 169.867 308.982L168.378 309.762C167.998 309.942 167.634 310.14 167.27 310.355C166.542 310.736 165.831 311.132 165.12 311.563L164.805 310.769L166.311 309.892L167.402 309.313C168.08 308.935 168.775 308.554 169.47 308.205C173.668 306.028 178.045 304.212 182.553 302.779C186.725 301.43 190.994 300.396 195.322 299.687L195.868 300.381ZM205.692 312.739C204.912 313.147 204.112 313.519 203.294 313.847C201.181 314.736 198.954 315.326 196.678 315.598C195.52 315.731 194.362 315.929 193.205 315.997L189.715 316.094C185.046 315.97 180.438 314.992 176.119 313.217C173.522 312.207 170.991 310.984 168.461 309.762C168.13 309.629 167.816 309.463 167.485 309.313C166.691 308.949 165.831 308.568 165.087 308.223L164.309 307.892L163.582 307.576L163.863 308.273C163.863 308.471 164.028 308.669 164.094 308.867H164.243L166.377 309.827L167.336 310.29C170.082 311.596 172.844 312.987 175.722 314.109C180.157 315.935 184.887 316.939 189.682 317.072L193.254 316.989C194.445 316.989 195.636 316.709 196.81 316.576C199.198 316.301 201.536 315.692 203.757 314.771C204.678 314.411 205.578 313.994 206.453 313.53L205.692 312.739ZM188.755 291.666C185.66 293.102 182.651 294.714 179.741 296.494C174.267 299.864 169.078 303.674 164.227 307.892L163.78 308.273C163.78 308.471 163.945 308.669 164.012 308.867V309C164.012 309 164.012 309 164.111 309C164.392 308.752 164.657 308.503 164.938 308.288C169.704 304.23 174.787 300.555 180.138 297.307C183.103 295.531 186.156 293.909 189.285 292.443L188.755 291.666Z" fill="white"/>
<path d="M241.783 350.929C241.783 347.042 242.064 331.544 242.411 327.773H242.527C242.907 331.512 243.106 346.811 243.089 350.698C243.217 358.425 242.924 366.157 242.213 373.854C242.203 373.878 242.186 373.901 242.164 373.916C242.142 373.931 242.116 373.94 242.089 373.94C242.062 373.94 242.035 373.931 242.013 373.916C241.991 373.901 241.974 373.878 241.964 373.854C241.386 366.228 241.7 358.569 241.783 350.929Z" fill="#263238"/>
<path opacity="0.1" d="M155.476 285.282C161.679 306.932 186.489 363.467 198.216 369.637C203.839 372.596 216.873 374.117 228.931 374.879L159.859 266.294C153.955 265.666 151.722 272.066 155.476 285.282Z" fill="black"/>
<path d="M99.8685 404.353C100.133 404.619 207.511 397.273 208.404 396.083C209.661 394.429 175.671 285.265 167.153 269.304C163.531 262.473 146.164 261.481 139.3 267.948C122.115 284.108 110.156 336.359 107.642 352.021C103.474 377.856 98.9092 403.411 99.8685 404.353Z" fill="#5131D7"/>
<path d="M202.665 374.365L199.655 372.596C195.598 370.233 191.418 368.086 187.134 366.163L184.785 365.138L183.644 364.675C180.481 363.366 177.238 362.261 173.935 361.366C169.421 360.105 164.796 359.287 160.124 358.918C150.749 358.51 141.369 359.571 132.321 362.061L130.667 362.524C130.253 362.622 129.856 362.74 129.459 362.87C123.155 364.799 117.029 367.268 111.149 370.248C109.495 371.025 107.841 371.902 106.32 372.711L105.823 372.977L104.004 373.952L104.153 373.11L106.022 372.15C107.874 371.14 109.743 370.165 111.629 369.255C113.184 368.461 114.772 367.717 116.359 367.005C120.354 365.174 124.451 363.579 128.632 362.226L129.84 361.877C130.584 361.629 131.328 361.417 132.089 361.216C136.645 359.937 141.306 359.057 146.016 358.587C150.717 358.076 155.453 357.955 160.174 358.224C168.478 358.933 176.615 360.971 184.273 364.261L185.397 364.757L187.366 365.634C191.656 367.61 195.836 369.82 199.886 372.25L202.467 373.772L202.665 374.365ZM197.108 356.171C194.362 357.825 191.683 359.479 189.02 361.234C187.366 362.258 185.861 363.301 184.273 364.311L183.644 364.725C181.477 366.113 179.278 367.454 177.028 368.709C173.001 371.063 168.615 372.741 164.044 373.671C161.762 374.108 159.429 374.226 157.114 374.02C155.956 373.904 154.782 373.869 153.641 373.704L150.2 373.092C145.658 372.005 141.349 370.106 137.481 367.486C135.149 365.965 132.933 364.178 130.683 362.524L129.823 361.877C129.128 361.349 128.417 360.82 127.706 360.324L127.028 359.828L126.035 359.148C122.096 356.345 117.422 354.75 112.588 354.567C110.682 354.603 108.797 354.99 107.031 355.71L106.882 356.602C108.687 355.849 110.617 355.448 112.572 355.412C117.229 355.637 121.72 357.217 125.49 359.961L126.068 360.356L126.747 360.838C127.375 361.284 128.004 361.748 128.616 362.226L129.476 362.87C131.907 364.725 134.322 366.642 136.919 368.328C140.879 371.022 145.295 372.971 149.952 374.085L153.492 374.731C154.666 374.897 155.857 374.944 157.048 375.062C159.446 375.269 161.86 375.151 164.226 374.714C168.89 373.748 173.362 372.017 177.458 369.586C179.923 368.198 182.321 366.692 184.686 365.138L185.298 364.757L189.466 362.028C192.047 360.374 194.66 358.72 197.306 357.066L197.108 356.171ZM195.288 350.317C192.416 349.39 189.495 348.616 186.539 348.002C181.886 347.059 177.144 346.628 172.397 346.711C167.649 346.799 162.918 347.299 158.255 348.199C153.596 349.08 149.012 350.317 144.544 351.906C138.501 354.077 132.648 356.744 127.044 359.878C126.714 360.043 126.399 360.223 126.085 360.407C123.736 361.712 121.437 363.071 119.155 364.477C116.624 366.03 114.11 367.634 111.629 369.255C109.694 370.496 107.775 371.769 105.857 373.027L104.004 374.235C104.004 374.498 103.921 374.746 103.888 374.994C106.336 373.441 108.751 371.852 111.182 370.298C112.836 369.191 114.623 368.08 116.359 366.99C117.401 366.328 118.444 365.682 119.502 365.056C121.884 363.614 124.315 362.208 126.763 360.87L127.722 360.356C133.213 357.35 138.938 354.795 144.841 352.715C153.703 349.561 162.996 347.786 172.397 347.455C177.096 347.346 181.793 347.748 186.406 348.645C189.487 349.269 192.53 350.063 195.52 351.029C195.437 350.748 195.354 350.5 195.288 350.267V350.317Z" fill="white"/>
<path d="M124.877 280.353C96.3786 311.779 64.2414 364.89 77.9861 376.285C90.5565 386.64 136.405 376.781 165.235 365.516C170.726 363.366 148.463 314.839 142.873 317.716C136.986 320.849 130.91 323.611 124.679 325.986C123.025 326.417 131.758 315.831 141.417 290.393C151.176 264.408 141.169 262.374 124.877 280.353Z" fill="#F7A9A0"/>
<path d="M212.92 314.044C212.92 319.686 199.043 318.578 199.043 318.578C201.066 319.895 202.564 321.877 203.277 324.184C204.319 328.337 198.315 331.81 198.315 331.81C200.118 333.618 201.343 335.919 201.838 338.426C202.434 342.493 196.876 346.876 196.876 346.876C197.611 349.475 197.388 352.252 196.248 354.7C192.94 361.133 181.825 361.316 174.961 362.704C167.27 364.485 159.736 366.884 152.433 369.885L139.664 319.189C139.664 319.189 169.436 301.506 177.706 301.905C184.686 302.384 212.887 305.411 212.92 314.044Z" fill="#F7A9A0"/>
<path d="M198.928 318.413C191.551 316.263 183.678 315.896 176.086 315.616C175.92 315.616 175.904 315.864 176.086 315.882C183.661 316.062 191.352 318.28 198.878 318.776C198.926 318.782 198.975 318.77 199.014 318.741C199.052 318.711 199.078 318.667 199.085 318.619C199.091 318.569 199.078 318.522 199.049 318.484C199.019 318.442 198.976 318.419 198.928 318.413Z" fill="#263238"/>
<path d="M198.067 331.296C196.345 330.971 194.587 330.877 192.84 331.016C190.988 331.016 189.135 331.098 187.283 331.181C183.567 331.346 179.862 331.609 176.168 331.973C176.002 331.973 175.986 332.238 176.168 332.238C179.873 332.073 183.578 331.958 187.266 331.94H192.824C194.572 332.085 196.331 332.029 198.067 331.775C198.112 331.754 198.151 331.722 198.178 331.677C198.205 331.636 198.219 331.586 198.219 331.535C198.219 331.485 198.205 331.435 198.178 331.394C198.151 331.352 198.112 331.317 198.067 331.296Z" fill="#263238"/>
<path d="M196.611 347.024C195.052 346.752 193.457 346.752 191.897 347.024L186.902 347.34C183.594 347.52 180.137 347.721 176.747 347.786C176.712 347.786 176.678 347.801 176.653 347.824C176.628 347.851 176.614 347.883 176.614 347.919C176.614 347.954 176.628 347.987 176.653 348.013C176.678 348.037 176.712 348.052 176.747 348.052C180.187 348.052 183.627 348.052 187.068 347.901L192.129 347.753C193.671 347.848 195.217 347.662 196.694 347.207C196.718 347.195 196.737 347.178 196.746 347.151C196.755 347.127 196.754 347.098 196.744 347.074C196.733 347.051 196.713 347.033 196.688 347.024C196.663 347.012 196.635 347.015 196.611 347.024Z" fill="#263238"/>
<path d="M138.225 318.776L149.208 373.358C149.208 373.358 80.9473 391.171 73.8682 373.904C66.7891 356.635 106.948 292.51 130.104 274.217C153.26 255.923 144.56 284.736 143.849 287.052C140.723 297.289 126.168 323.986 126.168 323.986L138.225 318.776Z" fill="#5131D7"/>
<path d="M149.208 373.29C149.208 373.29 80.9477 391.106 73.8686 373.836C70.0644 364.542 79.9222 341.699 93.4354 319.718L93.6504 319.37L93.9316 318.924C94.0143 318.776 94.1135 318.625 94.2128 318.478C99.093 310.612 104.37 302.998 110.025 295.67L110.604 294.925C116.299 287.297 122.829 280.329 130.071 274.15C153.227 255.857 144.527 284.67 143.816 286.986C143.601 287.713 143.32 288.524 142.989 289.4C142.857 289.731 142.725 290.095 142.576 290.459C140.674 295.322 137.614 301.873 134.521 307.892L134.157 308.619C134.157 308.619 134.157 308.784 134.041 308.852L133.843 309.233C129.923 316.957 126.367 323.505 126.152 323.903L138.226 318.776L149.208 373.29Z" fill="#5131D7"/>
<path d="M134.52 307.892L134.156 308.619C134.156 308.619 134.156 308.784 134.041 308.852L133.214 309.381L126.482 313.764C122.531 316.366 118.402 318.687 114.127 320.711C111.962 321.709 109.693 322.462 107.362 322.961C105.001 323.511 102.539 323.437 100.216 322.746C99.6375 322.58 99.0421 322.447 98.5624 322.264L96.9084 321.555C95.8091 321.086 94.7473 320.53 93.7327 319.901L93.4846 319.751L93.6996 319.405L93.9808 318.956C94.0553 319.027 94.1385 319.089 94.2289 319.139L94.4605 319.272C95.3519 319.86 96.2926 320.368 97.2723 320.793L98.9263 321.487L100.58 321.969C102.781 322.639 105.118 322.725 107.362 322.217C109.639 321.741 111.857 321.021 113.978 320.067C118.224 318.088 122.33 315.822 126.267 313.285L131.642 309.844L133.048 308.935L134.52 307.892ZM132.866 308.902C124.381 310.97 116.062 313.598 107.593 315.666C103.161 316.773 98.6616 317.751 94.1462 318.478C94.047 318.625 93.9477 318.776 93.865 318.924L93.5839 319.37L94.3447 319.24C98.8601 318.478 103.342 317.468 107.775 316.345C115.731 314.343 123.538 311.862 131.46 309.812L133.114 309.381C133.313 309.381 133.528 309.266 133.743 309.233L133.941 308.852C133.941 308.852 133.941 308.701 134.057 308.619L132.866 308.902ZM133.412 295.156C131.354 296.267 129.2 297.191 126.978 297.918C124.799 298.662 122.492 298.955 120.197 298.777C116.714 298.29 113.401 296.967 110.537 294.925L109.958 295.67C112.97 297.785 116.449 299.141 120.097 299.622C122.514 299.796 124.941 299.471 127.226 298.662C129.516 297.918 131.732 296.961 133.842 295.8C136.848 294.17 139.768 292.387 142.592 290.459C142.741 290.095 142.873 289.731 143.005 289.4C139.932 291.483 136.752 293.404 133.478 295.156H133.412Z" fill="white"/>
<path d="M137.051 318.826C129.211 321.57 108.668 331.825 104.153 336.028C104.133 336.051 104.123 336.084 104.122 336.113C104.122 336.146 104.131 336.178 104.15 336.205C104.168 336.229 104.195 336.249 104.225 336.258C104.255 336.267 104.288 336.267 104.318 336.258C108.751 333.133 134.09 320.711 138.109 319.19C138.109 319.19 138.308 319.668 138.39 319.801C138.473 319.934 138.622 319.884 138.622 319.7C138.552 319.254 138.452 318.811 138.324 318.377L137.051 318.826Z" fill="#263238"/>
<path d="M131.212 349.325C130.468 345.521 127.623 330.271 127.21 326.432C127.21 326.432 127.21 326.349 127.309 326.432C128.434 330.006 131.676 344.974 132.436 348.778C134.119 356.345 135.384 363.998 136.224 371.704C136.224 371.834 136.026 371.917 135.976 371.704C133.975 364.391 132.668 356.818 131.212 349.325Z" fill="#263238"/>
<path d="M125.605 324.184C127.739 319.535 130.352 315.119 132.701 310.589C135.049 306.055 137.481 301.557 139.664 296.976H139.763C138.44 300.101 137.117 303.228 135.694 306.303C136.124 305.825 136.521 305.311 136.918 304.8C137.646 303.872 138.308 302.898 138.969 301.92C138.969 301.92 139.085 301.92 139.069 301.92C138.554 303.016 137.916 304.047 137.166 304.998C136.613 305.709 136.005 306.38 135.347 306.997C134.768 308.255 134.156 309.514 133.528 310.754C131.491 315.371 129.108 319.827 126.399 324.084C126.3 324.4 125.522 324.4 125.605 324.184Z" fill="#263238"/>
<path d="M102.945 380.981C111 380.884 141.417 374.912 148.943 373.358C148.843 372.563 148.943 372.283 148.744 371.158C148.744 371.01 148.959 370.942 148.992 371.158C149.191 372.233 149.919 374.365 149.621 374.466C145.999 375.889 110.851 382.024 102.945 381.362C102.92 381.362 102.895 381.359 102.872 381.347C102.849 381.339 102.828 381.324 102.811 381.306C102.793 381.288 102.779 381.268 102.769 381.244C102.76 381.223 102.755 381.197 102.755 381.173C102.755 381.147 102.76 381.123 102.769 381.099C102.779 381.076 102.793 381.055 102.811 381.037C102.828 381.02 102.849 381.008 102.872 380.996C102.895 380.987 102.92 380.981 102.945 380.981Z" fill="#263238"/>
<path d="M184.852 375.476L241.485 383.099L262.97 304.386L206.337 296.778L184.852 375.476Z" fill="#263238"/>
<path d="M187.647 375.839L244.263 383.462L265.749 304.767L209.132 297.141L187.647 375.839Z" fill="#37474F"/>
<path d="M234.603 337.797C234.25 339.268 233.369 340.559 232.129 341.424C230.888 342.289 229.374 342.67 227.872 342.493C227.163 342.419 226.479 342.192 225.866 341.829C225.252 341.465 224.724 340.975 224.318 340.39C223.911 339.805 223.636 339.138 223.51 338.438C223.384 337.735 223.411 337.014 223.588 336.323C223.941 334.852 224.821 333.562 226.061 332.693C227.301 331.825 228.816 331.441 230.32 331.609C231.03 331.686 231.716 331.914 232.331 332.277C232.946 332.64 233.474 333.133 233.881 333.721C234.288 334.309 234.563 334.976 234.688 335.679C234.812 336.382 234.784 337.106 234.603 337.797Z" fill="white"/>
<path d="M265.186 320.991C267.551 327.607 274.299 336.226 274.399 341.451C274.466 342.738 274.118 344.014 273.406 345.089C272.695 346.164 271.657 346.983 270.446 347.423C270.446 347.423 275.408 350.515 274.63 355.261C274.283 357.71 270.049 359.299 270.049 359.299C271.119 360.055 271.959 361.095 272.476 362.3C272.992 363.508 273.165 364.831 272.976 366.131C272.281 369.439 268.146 370.546 268.146 370.546C268.146 370.546 270.627 374.796 268.825 377.971C265.153 384.407 236.026 381.445 232.619 370.248C230.965 365.038 238.093 366.145 238.093 366.145C238.093 366.145 228.302 362.093 228.765 356.074C229.228 350.051 238.325 352.036 238.325 352.036C238.325 352.036 228.881 348.034 230.055 341.832C231.229 335.629 239.979 338.937 239.979 338.937C239.979 338.937 233.942 333.975 235.877 329.344C239.069 321.818 250.349 332.835 256.899 331.958L261.514 321.753L265.186 320.991Z" fill="#F7A9A0"/>
<path d="M270.099 330.8C268.445 324.332 276.914 317.42 276.186 310.952C275.21 302.269 264.807 309.629 261.432 321.736L260.457 331.66L270.099 330.8Z" fill="#F7A9A0"/>
<path d="M267.535 370.809C267.557 370.809 267.578 370.818 267.594 370.833C267.609 370.85 267.618 370.871 267.618 370.892C267.618 370.915 267.609 370.936 267.594 370.951C267.578 370.966 267.557 370.974 267.535 370.974C257.349 372.407 246.969 370.718 237.763 366.128C237.465 365.98 237.598 365.434 237.945 365.549C247.501 368.73 257.469 370.502 267.535 370.809Z" fill="#263238"/>
<path d="M270.181 359.364C270.297 359.364 270.297 359.562 270.181 359.58C258.917 361.074 247.489 358.493 237.961 352.302C237.63 352.072 237.564 351.54 237.961 351.773C244.627 355.61 260.72 359.216 270.181 359.364Z" fill="#263238"/>
<path d="M239.351 338.243C248.729 344.215 259.067 346.513 270.033 347.488C270.165 347.488 270.148 347.703 270.033 347.721C264.541 348.746 257.611 347.44 252.318 345.967C247.363 344.7 242.828 342.148 239.169 338.574C239.004 338.426 239.152 338.11 239.351 338.243Z" fill="#263238"/>
<path d="M169.156 273.505C169.354 278.467 169.503 289.731 161.862 288.888C158.79 288.277 155.959 286.796 153.707 284.62C151.297 282.619 149.117 280.356 147.207 277.872C145.017 275.173 143.048 272.303 141.319 269.288C141.319 269.172 141.054 269.288 141.137 269.42C142.89 272.447 144.346 275.573 146.397 278.434C148.333 281.208 150.637 283.706 153.244 285.861C155.693 288.136 158.783 289.602 162.093 290.062C163.513 290.162 164.924 289.767 166.085 288.943C167.246 288.12 168.086 286.92 168.461 285.547C169.591 281.635 169.828 277.521 169.156 273.505Z" fill="#263238"/>
<path d="M161.629 283.909C156.105 284.389 147.074 273.985 144.428 266.923C145.122 263.242 145.999 259.599 147.058 256.006C147.901 252.516 148.712 248.597 149.307 244.974L171.239 253.823C169.281 258.172 167.859 262.743 167.005 267.436C166.956 267.936 166.956 268.44 167.005 268.941C167.005 268.941 167.005 269.106 167.005 269.188C167.055 272.083 166.955 283.446 161.629 283.909Z" fill="#F7A9A0"/>
<path d="M166.939 268.94C166.948 269.023 166.948 269.106 166.939 269.188C166.153 269.183 165.367 269.117 164.591 268.99C151.458 266.757 150.714 250.2 150.78 245.586L156.271 247.785L171.157 253.823C169.2 258.17 167.783 262.742 166.939 267.435C166.891 267.936 166.891 268.439 166.939 268.94Z" fill="#263238"/>
<path d="M146.792 220.164C144.51 228.434 149.406 251.805 155.327 256.899C163.928 264.31 177.689 264.69 183.908 254.418C189.929 244.495 183.015 214.044 176.416 209.446C166.707 202.648 150.15 208.024 146.792 220.164Z" fill="#F7A9A0"/>
<path d="M169.899 234.95C169.899 234.95 169.8 235.049 169.899 235.116C170.263 236.687 170.428 238.556 169.105 239.367C169.105 239.367 169.105 239.466 169.105 239.449C170.742 238.854 170.511 236.389 169.899 234.95Z" fill="#263238"/>
<path d="M168.162 233.594C165.582 233.925 166.508 239.053 168.807 238.755C171.106 238.457 170.362 233.33 168.162 233.594Z" fill="#263238"/>
<path d="M178.881 233.214C178.881 233.214 179.03 233.214 179.03 233.346C179.245 235 179.758 236.737 181.28 237.035V237.117C179.477 237.117 178.832 234.736 178.881 233.214Z" fill="#263238"/>
<path d="M180.039 231.295C182.569 230.683 183.611 235.777 181.263 236.257C178.914 236.736 177.921 231.808 180.039 231.295Z" fill="#263238"/>
<path d="M165.748 231.56C166.393 231.261 167.018 230.918 167.617 230.535C168.311 230.265 168.893 229.77 169.271 229.129C169.356 228.9 169.363 228.65 169.292 228.416C169.22 228.183 169.073 227.98 168.874 227.838C168.441 227.618 167.956 227.516 167.47 227.545C166.985 227.574 166.516 227.733 166.112 228.004C165.214 228.429 164.507 229.171 164.127 230.088C164.042 230.309 164.026 230.55 164.08 230.781C164.135 231.011 164.258 231.22 164.434 231.379C164.609 231.538 164.828 231.641 165.063 231.673C165.297 231.705 165.536 231.666 165.748 231.56Z" fill="#263238"/>
<path d="M181.692 229.724C180.965 229.724 180.286 229.592 179.559 229.526C178.8 229.56 178.05 229.345 177.425 228.914C177.259 228.736 177.154 228.51 177.128 228.268C177.101 228.027 177.153 227.783 177.276 227.574C177.586 227.2 177.99 226.915 178.446 226.75C178.903 226.584 179.395 226.543 179.873 226.631C180.87 226.658 181.821 227.059 182.536 227.756C182.689 227.922 182.79 228.129 182.828 228.352C182.866 228.575 182.839 228.805 182.75 229.012C182.661 229.22 182.514 229.398 182.326 229.524C182.139 229.651 181.918 229.72 181.692 229.724Z" fill="#263238"/>
<path d="M170.131 249.836C170.536 250.243 171.067 250.499 171.636 250.564C172.23 250.45 172.793 250.214 173.29 249.869C173.29 249.869 173.406 249.869 173.29 249.952C173.111 250.301 172.841 250.595 172.51 250.804C172.178 251.014 171.797 251.131 171.405 251.143C171.069 251.107 170.75 250.974 170.489 250.759C170.227 250.545 170.034 250.258 169.933 249.936C169.966 249.853 170.082 249.754 170.131 249.836Z" fill="#263238"/>
<path d="M171.024 244.428C171.534 244.99 172.154 245.442 172.845 245.755C173.536 246.068 174.285 246.235 175.044 246.247C175.707 246.26 176.37 246.182 177.012 246.016L177.376 245.916L177.707 245.801C177.791 245.771 177.863 245.715 177.91 245.64C177.959 245.565 177.98 245.476 177.971 245.387C177.981 245.332 177.981 245.277 177.971 245.222V245.089C177.806 243.849 177.376 242.013 177.376 242.013C177.855 242.162 180.32 242.823 180.171 242.178C179.129 236.681 177.528 231.305 175.391 226.135C175.381 226.106 175.362 226.08 175.337 226.062C175.311 226.044 175.281 226.035 175.25 226.035C175.219 226.035 175.189 226.044 175.164 226.062C175.139 226.08 175.12 226.106 175.11 226.135C176.036 231.229 177.872 236.059 178.898 241.203C178.02 240.957 177.112 240.84 176.201 240.855C176.036 240.855 177.095 244.395 177.111 244.957C176.124 245.221 175.094 245.283 174.083 245.141C173.072 244.999 172.099 244.656 171.223 244.13C171.024 244.18 170.909 244.312 171.024 244.428Z" fill="#263238"/>
<path d="M176.284 245.718C175.757 246.68 174.994 247.494 174.068 248.083C173.568 248.374 172.991 248.507 172.414 248.464C171.107 248.348 170.892 247.207 170.959 246.181C170.993 245.619 171.099 245.063 171.273 244.527C172.777 245.441 174.53 245.858 176.284 245.718Z" fill="#263238"/>
<path d="M174.068 248.1C173.568 248.391 172.991 248.524 172.414 248.48C171.107 248.364 170.892 247.223 170.959 246.198C171.614 246.125 172.276 246.273 172.839 246.617C173.401 246.961 173.834 247.483 174.068 248.1Z" fill="#FF9ABB"/>
<path d="M180.915 216.276C179.592 214.441 178.137 212.605 176.813 212.456C175.49 212.307 175.341 215.483 172.596 216.276C168.874 217.335 166.311 214.275 161.018 215.036C153.327 216.144 151.358 223.19 153.492 233.958C155.394 243.584 149.804 245.734 149.804 245.734C149.804 245.734 141.732 225.34 146.181 217.054C150.631 208.767 163.648 202.73 174.299 207.444C178.087 209.148 180.915 216.276 180.915 216.276Z" fill="#263238"/>
<path d="M153.691 240.392C153.691 240.392 148.017 233.031 144.66 235.082C141.302 237.133 145.784 247.984 149.919 249.307C150.435 249.514 150.987 249.615 151.543 249.603C152.099 249.59 152.647 249.465 153.152 249.234C153.658 249.004 154.112 248.673 154.486 248.262C154.86 247.851 155.146 247.368 155.328 246.842L153.691 240.392Z" fill="#F7A9A0"/>
<path d="M146.016 238.176C146.016 238.176 146.016 238.176 146.016 238.291C147.346 238.883 148.538 239.746 149.515 240.826C150.493 241.905 151.233 243.177 151.689 244.56C151.51 244.283 151.273 244.048 150.995 243.871C150.716 243.694 150.403 243.58 150.076 243.536C149.748 243.492 149.416 243.519 149.1 243.616C148.785 243.713 148.494 243.877 148.249 244.097C148.249 244.097 148.249 244.262 148.331 244.246C148.824 244.061 149.363 244.033 149.872 244.166C150.381 244.299 150.837 244.587 151.176 244.99C151.724 245.677 152.206 246.413 152.615 247.19C152.748 247.438 153.211 247.289 153.095 246.992C152.979 243.287 149.936 238.341 146.016 238.176Z" fill="#263238"/>
<path d="M166.575 204.533C163.348 203.613 160.006 203.162 156.651 203.194C152.863 203.309 141.335 206.038 138.903 208.817C136.472 211.596 137.464 222.711 137.646 224.332C137.828 225.953 140.061 235.562 143.964 237.365C147.868 239.168 145.618 222.578 150.299 216.227C154.98 209.876 166.575 204.533 166.575 204.533Z" fill="#5131D7"/>
<path opacity="0.1" d="M166.575 204.55C166.575 204.55 154.997 209.876 150.217 216.227C145.437 222.579 147.769 239.152 143.899 237.366C142.996 236.868 142.201 236.197 141.56 235.39C140.918 234.584 140.443 233.659 140.161 232.668C140.161 227.706 140.905 219.932 144.114 214.11C147.124 208.669 153.227 205.179 160.042 203.31C162.251 203.533 164.437 203.948 166.575 204.55Z" fill="black"/>
<path d="M146.38 247.025C146 242.576 148.629 230.071 152.268 222.579C155.907 215.086 169.089 208.983 171.025 208.784C175.755 208.321 177.144 210.438 177.822 209.86C178.501 209.281 172.976 204.732 171.521 204.153C169.35 203.454 167.049 203.25 164.789 203.558C162.755 203.922 150.399 207.147 146.678 213.217C142.956 219.287 138.937 235.315 140.591 238.97C141.021 239.847 142.245 240.244 142.923 241.501C143.717 243.155 144.379 245.057 145.09 246.181C145.801 247.306 146.413 247.405 146.38 247.025Z" fill="#5131D7"/>
<path d="M152.864 219.387C151.716 218.891 150.61 218.305 149.556 217.633C148.447 216.968 147.425 216.167 146.512 215.252C146.512 215.252 146.33 215.252 146.396 215.351C147.198 216.412 148.164 217.339 149.258 218.096C150.357 218.831 151.586 219.348 152.88 219.618C152.911 219.616 152.939 219.602 152.96 219.579C152.98 219.555 152.99 219.525 152.988 219.494C152.986 219.463 152.971 219.435 152.948 219.415C152.925 219.395 152.894 219.384 152.864 219.387Z" fill="#263238"/>
<path d="M145.651 242.625C145.469 242.327 145.221 242.079 145.023 241.798C144.788 241.481 144.594 241.137 144.444 240.772C144.239 240.06 143.956 239.372 143.6 238.722C143.233 238.239 142.811 237.8 142.343 237.415C141.782 237.009 141.374 236.427 141.185 235.761H141.053C141.252 237.101 142.294 237.911 143.054 238.937C143.441 239.639 143.762 240.375 144.014 241.136C144.307 241.831 144.817 242.411 145.469 242.79C145.552 242.84 145.701 242.741 145.651 242.625Z" fill="#263238"/>
<path d="M146.413 237.63C145.916 237.2 145.404 236.82 144.941 236.34C144.477 235.86 144.114 235.348 143.733 234.835C143.353 234.322 143.055 233.776 142.691 233.181C142.327 232.585 141.781 232.007 141.384 231.362C141.384 231.362 141.219 231.362 141.269 231.461C141.682 232.106 141.963 232.85 142.344 233.512C142.685 234.085 143.06 234.638 143.469 235.166C143.855 235.678 144.286 236.154 144.759 236.588C145.231 237.043 145.795 237.392 146.413 237.614C146.413 237.614 146.446 237.663 146.413 237.63Z" fill="#263238"/>
<path d="M147.338 233.082C146.29 232.449 145.342 231.663 144.526 230.75C143.733 229.856 142.972 228.914 142.244 227.971C142.244 227.971 142.079 227.971 142.128 227.971C142.669 229.091 143.353 230.136 144.163 231.08C144.556 231.543 145.006 231.954 145.502 232.304C146.04 232.661 146.61 232.966 147.206 233.214C147.206 233.214 147.421 233.214 147.338 233.082Z" fill="#263238"/>
<path d="M148.43 228.681C147.924 228.44 147.469 228.103 147.09 227.689C146.627 227.259 146.181 226.813 145.751 226.35C145.321 225.903 144.891 225.489 144.477 225.043C144.03 224.624 143.676 224.117 143.435 223.554C143.435 223.554 143.286 223.554 143.303 223.554C143.432 224.157 143.699 224.723 144.08 225.208C144.449 225.796 144.869 226.35 145.337 226.862C145.8 227.339 146.292 227.786 146.809 228.202C147.247 228.602 147.794 228.861 148.381 228.946C148.398 228.95 148.416 228.949 148.433 228.946C148.45 228.942 148.467 228.935 148.481 228.925C148.496 228.915 148.508 228.902 148.518 228.888C148.528 228.873 148.534 228.856 148.538 228.839C148.541 228.821 148.541 228.803 148.537 228.786C148.534 228.769 148.526 228.753 148.516 228.738C148.506 228.723 148.494 228.711 148.479 228.701C148.464 228.691 148.448 228.685 148.43 228.681Z" fill="#263238"/>
<path d="M148.86 223.289C148.375 222.959 147.912 222.611 147.471 222.247C147.041 221.867 146.611 221.487 146.197 221.09C145.784 220.693 145.304 220.263 144.89 219.816C144.89 219.816 144.725 219.816 144.775 219.899C145.09 220.42 145.449 220.912 145.85 221.371C146.245 221.819 146.671 222.239 147.123 222.628C147.572 223.019 148.047 223.378 148.546 223.703C149.035 224.077 149.599 224.342 150.2 224.48C150.213 224.471 150.225 224.459 150.233 224.445C150.24 224.43 150.244 224.414 150.244 224.398C150.244 224.381 150.24 224.365 150.233 224.351C150.225 224.336 150.213 224.324 150.2 224.315C149.786 223.932 149.337 223.589 148.86 223.289Z" fill="#263238"/>
<path d="M155.857 216.343C155.327 215.88 154.815 215.417 154.203 214.987C153.591 214.557 153.028 214.176 152.4 213.813C151.213 213.084 149.948 212.49 148.629 212.043C148.629 212.043 148.48 212.126 148.629 212.175C150.977 213.631 153.409 214.987 155.758 216.476C155.775 216.489 155.797 216.494 155.819 216.491C155.841 216.488 155.86 216.476 155.873 216.459C155.887 216.442 155.892 216.419 155.889 216.398C155.886 216.376 155.874 216.356 155.857 216.343Z" fill="#263238"/>
<path d="M157.924 212.158C157.413 211.713 156.859 211.319 156.27 210.984C154.965 210.326 153.589 209.821 152.168 209.479C152.069 209.479 152.019 209.578 152.168 209.611C153.442 210.19 154.715 210.752 155.939 211.397C156.535 211.728 157.147 212.059 157.709 212.439C158.272 212.82 158.751 213.332 159.363 213.746C158.997 213.124 158.507 212.584 157.924 212.158Z" fill="#263238"/>
<path d="M161.316 209.86C160.809 209.404 160.255 209.004 159.662 208.669C158.579 208.012 157.394 207.542 156.155 207.279C156.155 207.279 156.04 207.395 156.155 207.428C157.306 207.878 158.413 208.432 159.463 209.082C159.993 209.413 160.522 209.777 161.117 210.141C161.713 210.505 162.126 210.968 162.672 211.265C162.266 210.755 161.811 210.284 161.316 209.86Z" fill="#263238"/>
<path d="M163.614 207.246C163.102 206.948 162.556 206.667 161.96 206.402C161.443 206.112 160.886 205.9 160.306 205.774V205.922L163.317 207.692C164.203 208.306 165.023 209.01 165.764 209.793C165.322 208.746 164.572 207.858 163.614 207.246Z" fill="#263238"/>
<path d="M166.807 206.022C165.828 205.365 164.734 204.899 163.582 204.649C163.499 204.649 163.466 204.765 163.582 204.798C164.659 205.191 165.669 205.749 166.575 206.452C167.494 207.119 168.337 207.885 169.089 208.735C169.089 208.735 169.205 208.735 169.172 208.735C168.616 207.651 167.804 206.72 166.807 206.022Z" fill="#263238"/>
<path d="M174.134 207.13C173.83 206.827 173.51 206.539 173.175 206.27C172.839 206.003 172.485 205.76 172.116 205.543C171.736 205.311 171.355 205.096 170.991 204.848C170.991 204.848 170.826 204.931 170.991 204.98C171.378 205.205 171.744 205.465 172.083 205.758L173.042 206.552L174.018 207.345C174.325 207.643 174.651 207.919 174.994 208.172C174.748 207.793 174.459 207.444 174.134 207.13Z" fill="#263238"/>
<path d="M275.274 175.837C274.585 182.465 272.067 188.77 268.002 194.05C263.936 199.329 258.483 203.374 252.251 205.733C246.019 208.093 239.254 208.673 232.712 207.41C226.169 206.147 220.107 203.089 215.201 198.58L197.206 201.226L206.204 185.678C204.142 180.62 203.26 175.158 203.624 169.708C203.989 164.258 205.59 158.962 208.307 154.223C211.024 149.484 214.784 145.427 219.303 142.358C223.823 139.29 228.981 137.291 234.388 136.515C239.795 135.738 245.308 136.203 250.508 137.875C255.708 139.547 260.459 142.382 264.4 146.164C268.341 149.946 271.369 154.577 273.253 159.704C275.137 164.831 275.828 170.32 275.274 175.754V175.837Z" fill="white"/>
<path d="M275.275 175.837C274.574 182.454 272.061 188.749 268.014 194.031C266.035 196.699 263.659 199.047 260.968 200.994C258.318 203.01 255.394 204.636 252.284 205.824C249.181 207.039 245.925 207.818 242.608 208.139C240.958 208.278 239.301 208.312 237.646 208.239C235.981 208.185 234.323 208.008 232.684 207.709C226.056 206.494 219.898 203.452 214.904 198.927L215.317 199.059L197.305 201.788L195.999 201.986L196.66 200.845L205.608 185.248V185.877C203.492 180.724 202.587 175.155 202.962 169.597C203.338 164.04 204.985 158.643 207.775 153.822C210.578 149.027 214.428 144.928 219.039 141.831C224.777 138.049 231.469 135.97 238.34 135.834C245.21 135.698 251.979 137.51 257.863 141.061C263.747 144.612 268.505 149.756 271.586 155.899C274.667 162.042 275.946 168.931 275.275 175.771V175.837ZM275.275 175.837C275.849 170.422 275.173 164.948 273.298 159.835C271.423 154.723 268.4 150.11 264.461 146.35C260.523 142.59 255.773 139.785 250.579 138.149C245.386 136.514 239.886 136.093 234.504 136.918C229.159 137.717 224.068 139.725 219.618 142.79C215.221 145.879 211.547 149.885 208.85 154.533C206.205 159.192 204.645 164.388 204.285 169.733C203.96 175.083 204.824 180.438 206.816 185.413L206.948 185.728L206.783 186.025L197.719 201.54L197.09 200.597L215.086 198.066H215.334L215.516 198.232C220.319 202.731 226.282 205.801 232.734 207.097C234.368 207.432 236.028 207.632 237.696 207.693C239.348 207.811 241.006 207.811 242.658 207.693C245.944 207.437 249.178 206.725 252.268 205.576C255.373 204.454 258.294 202.876 260.935 200.895C262.269 199.924 263.54 198.869 264.739 197.736C265.916 196.563 267.02 195.32 268.047 194.014C272.081 188.735 274.582 182.445 275.275 175.837Z" fill="#263238"/>
<path d="M235.298 192.608L219.949 177.06L225.109 171.966L234.074 181.047L252.714 151.82L258.835 155.724L235.298 192.608Z" fill="#5131D7"/>
</svg>
