<svg width="24" height="24" viewBox="0 0 24 24" fill="none" xmlns="http://www.w3.org/2000/svg">
<g clip-path="url(#clip0_55_6566)">
<path d="M7.1099 18.42H13.2299C13.6699 18.42 14.0451 18.2648 14.3555 17.9544C14.6651 17.6448 14.8199 17.27 14.8199 16.83C14.8199 16.39 14.6651 16.0148 14.3555 15.7044C14.0451 15.3948 13.6699 15.24 13.2299 15.24H7.1099C6.66992 15.24 6.2951 15.3948 5.98553 15.7044C5.67513 16.0148 5.51993 16.39 5.51993 16.83C5.51993 17.27 5.67513 17.6448 5.98553 17.9544C6.2951 18.2648 6.66992 18.42 7.1099 18.42ZM7.1099 13.56H16.8899C17.3299 13.56 17.7051 13.4048 18.0155 13.0944C18.3251 12.7848 18.4799 12.41 18.4799 11.97C18.4799 11.53 18.3251 11.1548 18.0155 10.8444C17.7051 10.5348 17.3299 10.38 16.8899 10.38H7.1099C6.66992 10.38 6.2951 10.5348 5.98553 10.8444C5.67513 11.1548 5.51993 11.53 5.51993 11.97C5.51993 12.41 5.67513 12.7848 5.98553 13.0944C6.2951 13.4048 6.66992 13.56 7.1099 13.56ZM7.1099 8.69998H16.8899C17.3299 8.69998 17.7051 8.54518 18.0155 8.23558C18.3251 7.9252 18.4799 7.55002 18.4799 7.10998C18.4799 6.67 18.3251 6.29482 18.0155 5.98439C17.7051 5.67479 17.3299 5.51999 16.8899 5.51999H7.1099C6.66992 5.51999 6.2951 5.67479 5.98553 5.98439C5.67513 6.29482 5.51993 6.67 5.51993 7.10998C5.51993 7.55002 5.67513 7.9252 5.98553 8.23558C6.2951 8.54518 6.66992 8.69998 7.1099 8.69998ZM3.41993 23.76C2.53993 23.76 1.78993 23.45 1.16993 22.83C0.549929 22.21 0.239929 21.46 0.239929 20.58V3.41999C0.239929 2.53999 0.549929 1.78999 1.16993 1.16999C1.78993 0.54999 2.53993 0.23999 3.41993 0.23999H20.5799C21.4599 0.23999 22.2099 0.54999 22.8299 1.16999C23.4499 1.78999 23.7599 2.53999 23.7599 3.41999V20.58C23.7599 21.46 23.4499 22.21 22.8299 22.83C22.2099 23.45 21.4599 23.76 20.5799 23.76H3.41993Z" fill="#502FD8"/>
</g>
<defs>
<clipPath id="clip0_55_6566">
<rect width="24" height="24" fill="white"/>
</clipPath>
</defs>
</svg>
