<svg width="20" height="20" viewBox="0 0 20 20" fill="none" xmlns="http://www.w3.org/2000/svg">
                                <path d="M5.92501 15.35H11.025C11.3917 15.35 11.7043 15.2207 11.963 14.962C12.221 14.704 12.35 14.3917 12.35 14.025C12.35 13.6583 12.221 13.3457 11.963 13.087C11.7043 12.829 11.3917 12.7 11.025 12.7H5.92501C5.55835 12.7 5.24601 12.829 4.98801 13.087C4.72935 13.3457 4.60001 13.6583 4.60001 14.025C4.60001 14.3917 4.72935 14.704 4.98801 14.962C5.24601 15.2207 5.55835 15.35 5.92501 15.35ZM5.92501 11.3H14.075C14.4417 11.3 14.7543 11.1707 15.013 10.912C15.271 10.654 15.4 10.3417 15.4 9.97501C15.4 9.60835 15.271 9.29568 15.013 9.03701C14.7543 8.77901 14.4417 8.65001 14.075 8.65001H5.92501C5.55835 8.65001 5.24601 8.77901 4.98801 9.03701C4.72935 9.29568 4.60001 9.60835 4.60001 9.97501C4.60001 10.3417 4.72935 10.654 4.98801 10.912C5.24601 11.1707 5.55835 11.3 5.92501 11.3ZM5.92501 7.25001H14.075C14.4417 7.25001 14.7543 7.12101 15.013 6.86301C15.271 6.60435 15.4 6.29168 15.4 5.92501C15.4 5.55835 15.271 5.24568 15.013 4.98701C14.7543 4.72901 14.4417 4.60001 14.075 4.60001H5.92501C5.55835 4.60001 5.24601 4.72901 4.98801 4.98701C4.72935 5.24568 4.60001 5.55835 4.60001 5.92501C4.60001 6.29168 4.72935 6.60435 4.98801 6.86301C5.24601 7.12101 5.55835 7.25001 5.92501 7.25001ZM2.85001 19.8C2.11668 19.8 1.49168 19.5417 0.975012 19.025C0.458345 18.5083 0.200012 17.8833 0.200012 17.15V2.85001C0.200012 2.11668 0.458345 1.49168 0.975012 0.975012C1.49168 0.458345 2.11668 0.200012 2.85001 0.200012H17.15C17.8833 0.200012 18.5083 0.458345 19.025 0.975012C19.5417 1.49168 19.8 2.11668 19.8 2.85001V17.15C19.8 17.8833 19.5417 18.5083 19.025 19.025C18.5083 19.5417 17.8833 19.8 17.15 19.8H2.85001Z" fill="#9995AF" />
                            </svg>