<svg width="280" height="280" viewBox="0 0 280 280" fill="none" xmlns="http://www.w3.org/2000/svg">
<path d="M280 214.144H0V214.284H280V214.144Z" fill="#EBEBEB"/>
<path d="M176.775 217.957H162.518V218.097H176.775V217.957Z" fill="#EBEBEB"/>
<path d="M255.047 220.987H221.262V221.127H255.047V220.987Z" fill="#EBEBEB"/>
<path d="M159.482 218.025H124.578V218.165H159.482V218.025Z" fill="#EBEBEB"/>
<path d="M101.943 222.213H94.6401V222.353H101.943V222.213Z" fill="#EBEBEB"/>
<path d="M142.29 222.213H109.038V222.353H142.29V222.213Z" fill="#EBEBEB"/>
<path d="M50.9094 219.85H29.3774V219.99H50.9094V219.85Z" fill="#EBEBEB"/>
<path d="M132.72 189.168H24.5895C23.7424 189.166 22.9305 188.829 22.332 188.229C21.7336 187.63 21.3975 186.817 21.3975 185.97V33.9694C21.4048 33.1272 21.7442 32.3219 22.3419 31.7284C22.9395 31.1349 23.7472 30.8012 24.5895 30.7998H132.72C133.568 30.7998 134.381 31.1367 134.981 31.7364C135.581 32.336 135.917 33.1493 135.917 33.9974V185.97C135.917 186.818 135.581 187.632 134.981 188.231C134.381 188.831 133.568 189.168 132.72 189.168ZM24.5895 30.9118C23.7795 30.9133 23.0032 31.2361 22.431 31.8093C21.8588 32.3826 21.5375 33.1594 21.5375 33.9694V185.97C21.5375 186.78 21.8588 187.557 22.431 188.13C23.0032 188.704 23.7795 189.026 24.5895 189.028H132.72C133.53 189.026 134.307 188.704 134.88 188.131C135.453 187.558 135.776 186.781 135.777 185.97V33.9694C135.776 33.1589 135.453 32.3821 134.88 31.809C134.307 31.2359 133.53 30.9133 132.72 30.9118H24.5895Z" fill="#EBEBEB"/>
<path d="M253.854 189.168H145.718C144.87 189.166 144.058 188.829 143.458 188.23C142.859 187.63 142.522 186.818 142.52 185.97V33.9694C142.529 33.1267 142.869 32.3214 143.468 31.7281C144.067 31.1347 144.875 30.8012 145.718 30.7998H253.854C254.695 30.8027 255.501 31.1371 256.098 31.7304C256.694 32.3237 257.033 33.1281 257.04 33.9694V185.97C257.04 186.816 256.705 187.628 256.107 188.227C255.51 188.827 254.7 189.165 253.854 189.168ZM145.718 30.9118C144.907 30.9133 144.13 31.2359 143.557 31.809C142.984 32.3821 142.661 33.1589 142.66 33.9694V185.97C142.661 186.781 142.984 187.558 143.557 188.131C144.13 188.704 144.907 189.026 145.718 189.028H253.854C254.664 189.026 255.441 188.704 256.014 188.131C256.587 187.558 256.91 186.781 256.911 185.97V33.9694C256.91 33.1589 256.587 32.3821 256.014 31.809C255.441 31.2359 254.664 30.9133 253.854 30.9118H145.718Z" fill="#EBEBEB"/>
<path d="M109.738 165.575H72.5537L70.2969 139.535H107.481L109.738 165.575Z" fill="#E6E6E6"/>
<path d="M111.664 165.575H74.4799L72.2231 139.535H109.407L111.664 165.575Z" fill="#F0F0F0"/>
<path d="M79.565 159.981L78.3218 145.124H104.323L105.566 159.981H79.565Z" fill="white"/>
<path d="M118.098 165.575H113.736V214.144H118.098V165.575Z" fill="#E6E6E6"/>
<path d="M119.476 165.575H116.446V214.144H119.476V165.575Z" fill="#F0F0F0"/>
<path d="M77.2465 170.934H119.476V165.575H77.2465V170.934Z" fill="#F0F0F0"/>
<path d="M78.7359 170.934H74.3735V214.144H78.7359V170.934Z" fill="#E6E6E6"/>
<path d="M80.1136 170.934H77.084V214.144H80.1136V170.934Z" fill="#F0F0F0"/>
<path d="M47.6842 170.934H43.3218V214.144H47.6842V170.934Z" fill="#E6E6E6"/>
<path d="M49.0618 170.934H46.0322V214.144H49.0618V170.934Z" fill="#F0F0F0"/>
<path d="M90.4903 170.934H86.1279V214.144H90.4903V170.934Z" fill="#E6E6E6"/>
<path d="M91.8626 170.934H88.833V214.144H91.8626V170.934Z" fill="#F0F0F0"/>
<path d="M77.2466 165.575H43.3218V170.934H77.2466V165.575Z" fill="#E6E6E6"/>
<path d="M203.75 44.4692H72.5254V117.527H203.75V44.4692Z" fill="#E0E0E0"/>
<path d="M210.958 44.4692H73.1865V117.527H210.958V44.4692Z" fill="#F5F5F5"/>
<path d="M208.707 115.276V46.7207L75.4377 46.7207V115.276L208.707 115.276Z" fill="white"/>
<path d="M129.399 115.276L154.56 46.7207H113.036L87.875 115.276H129.399Z" fill="#F5F5F5"/>
<path d="M169.366 115.276L194.527 46.7207H163.201L138.04 115.276H169.366Z" fill="#F5F5F5"/>
<path d="M245.342 144.368H234.187V214.144H245.342V144.368Z" fill="#E6E6E6"/>
<path d="M242.407 214.144H245.342V208.773H239.333L242.407 214.144Z" fill="#FAFAFA"/>
<path d="M142.492 144.368H131.337V214.144H142.492V144.368Z" fill="#E6E6E6"/>
<path d="M245.341 144.368H139.933V212.693H245.341V144.368Z" fill="#FAFAFA"/>
<path d="M243.348 166.415H141.932V147.117H243.348V166.415ZM142.492 165.855H242.788V147.677H142.492V165.855Z" fill="#E6E6E6"/>
<path d="M225.495 156.486H161.75C158.793 156.486 155.943 154.101 153.91 149.934L153.72 149.537H233.52L233.329 149.934C231.28 154.101 228.48 156.486 225.495 156.486ZM154.638 150.08C156.531 153.793 159.118 155.909 161.75 155.909H225.495C228.138 155.909 230.714 153.793 232.607 150.08H154.638Z" fill="#E6E6E6"/>
<path d="M142.867 214.144H139.933V208.773H145.941L142.867 214.144Z" fill="#FAFAFA"/>
<path d="M243.348 188.16H141.932V168.885H243.348V188.16ZM142.492 187.6H242.788V169.445H142.492V187.6Z" fill="#E6E6E6"/>
<path d="M225.495 178.253H161.75C158.793 178.253 155.943 175.862 153.91 171.701L153.72 171.298H233.52L233.329 171.701C231.28 175.84 228.48 178.253 225.495 178.253ZM154.638 171.858C156.531 175.571 159.118 177.693 161.75 177.693H225.495C228.138 177.693 230.714 175.571 232.607 171.858H154.638Z" fill="#E6E6E6"/>
<path d="M243.348 209.944H141.932V190.646H243.348V209.944ZM142.492 209.384H242.788V191.206H142.492V209.384Z" fill="#E6E6E6"/>
<path d="M225.495 200.015H161.75C158.793 200.015 155.943 197.629 153.91 193.469L153.72 193.065H233.52L233.329 193.469C231.28 197.629 228.48 200.015 225.495 200.015ZM154.638 193.625C156.531 197.338 159.118 199.455 161.75 199.455H225.495C228.138 199.455 230.714 197.338 232.607 193.625H154.638Z" fill="#E6E6E6"/>
<path d="M67.7488 153.597V154.952H66.8864L66.1696 165.575H55.6192L54.908 154.952H54.04V153.597H67.7488Z" fill="#E6E6E6"/>
<path d="M64.2768 127.237C63.4144 120.909 54.8744 119.106 44.0384 118.871C33.7288 118.652 30.4248 115.007 30.4248 115.007C30.4248 115.007 30.4584 129.774 45.3152 135.128C59.4216 140.201 65.1448 133.576 64.2768 127.237Z" fill="#E6E6E6"/>
<path d="M59.0129 141.579C59.1921 138.981 63.3473 134.198 73.3433 136.371C80.5673 137.945 83.2553 134.198 83.2553 134.198C83.2553 134.198 82.5833 144.771 71.7193 147.946C61.3985 150.965 58.6937 146.16 59.0129 141.579Z" fill="#E6E6E6"/>
<path d="M61.292 157.584C61.3483 157.584 61.404 157.573 61.4552 157.55C61.5065 157.526 61.5521 157.492 61.5888 157.45C62.3112 156.593 61.7176 154.543 60.9 151.704C59.8472 148.064 58.5368 143.528 59.6456 140.241C60.2602 138.504 60.9783 136.806 61.796 135.156C63.364 131.841 64.7192 128.996 63.588 125.983C63.5703 125.935 63.5434 125.891 63.5086 125.854C63.4739 125.816 63.4321 125.786 63.3856 125.765C63.3391 125.744 63.2889 125.732 63.2378 125.73C63.1868 125.729 63.1359 125.737 63.0882 125.755C63.0404 125.774 62.9967 125.801 62.9597 125.836C62.9226 125.871 62.8928 125.913 62.8721 125.96C62.8514 126.007 62.8402 126.057 62.8391 126.108C62.8379 126.159 62.847 126.21 62.8656 126.258C63.8792 128.94 62.6528 131.538 61.096 134.831C60.2679 136.508 59.5386 138.232 58.912 139.994C57.7304 143.511 59.0744 148.176 60.1552 151.917C60.7936 154.157 61.4544 156.397 61.0008 156.957C60.9648 156.995 60.9372 157.041 60.9198 157.091C60.9025 157.141 60.8957 157.194 60.8999 157.247C60.9041 157.299 60.9192 157.35 60.9443 157.397C60.9694 157.443 61.0039 157.484 61.0456 157.517C61.1171 157.568 61.2045 157.592 61.292 157.584Z" fill="#E6E6E6"/>
<path d="M140 239.434C199.966 239.434 248.578 236.595 248.578 233.094C248.578 229.593 199.966 226.755 140 226.755C80.0336 226.755 31.4214 229.593 31.4214 233.094C31.4214 236.595 80.0336 239.434 140 239.434Z" fill="#F5F5F5"/>
<path d="M139.978 202.188H60.4576L56.1064 74.3008H135.626L139.978 202.188Z" fill="#0010F7"/>
<path d="M143.948 198.218H64.4281L60.0713 70.3306H139.591L143.948 198.218Z" fill="#0010F7"/>
<path opacity="0.3" d="M143.948 198.218H64.4281L60.0713 70.3306H139.591L143.948 198.218Z" fill="white"/>
<path d="M117.305 122.956C125.819 114.295 125.457 100.132 116.496 91.3232C107.535 82.514 93.3679 82.394 84.8536 91.0552C76.3392 99.7165 76.7015 113.879 85.6627 122.688C94.6239 131.497 108.791 131.617 117.305 122.956Z" fill="#0010F7"/>
<path d="M119.543 107.011C119.658 110.058 118.993 113.084 117.611 115.803C116.12 118.732 113.842 121.189 111.033 122.896C108.224 124.603 104.994 125.494 101.707 125.468C98.3427 125.45 95.0422 124.548 92.1367 122.851C89.2312 121.155 86.823 118.724 85.1536 115.803C83.597 113.126 82.7273 110.105 82.6224 107.011C82.5191 104.611 82.9047 102.216 83.7558 99.9698C84.6069 97.7238 85.9058 95.6744 87.5735 93.946C89.2411 92.2176 91.2428 90.8462 93.4568 89.9153C95.6709 88.9844 98.051 88.5133 100.453 88.5307C105.401 88.5657 110.145 90.5054 113.7 93.9468C117.255 97.3881 119.347 102.067 119.543 107.011Z" fill="white"/>
<path opacity="0.6" d="M117.6 115.803C116.109 118.732 113.831 121.188 111.022 122.896C108.213 124.603 104.983 125.494 101.696 125.468C98.3317 125.45 95.0312 124.547 92.1257 122.851C89.2203 121.154 86.812 118.724 85.1426 115.803C89.8786 112.574 95.4826 110.857 101.215 110.88C107.039 110.893 112.733 112.603 117.6 115.803Z" fill="#0010F7"/>
<path opacity="0.6" d="M106.832 106.55C109.963 103.365 109.83 98.1575 106.535 94.9183C103.24 91.6791 98.0306 91.635 94.8998 94.8198C91.769 98.0046 91.9022 103.212 95.1973 106.452C98.4924 109.691 103.702 109.735 106.832 106.55Z" fill="#0010F7"/>
<path d="M127.971 151.906H77.2464L76.9048 141.826H127.63L127.971 151.906Z" fill="white"/>
<path d="M128.587 169.921H77.8567L77.5151 159.841H128.246L128.587 169.921Z" fill="white"/>
<path d="M109.01 161.23L96.7851 162.91C96.6685 162.923 96.5558 162.96 96.4543 163.019C96.3527 163.078 96.2645 163.157 96.1951 163.252C96.1256 163.347 96.0765 163.455 96.0509 163.569C96.0252 163.684 96.0235 163.802 96.0459 163.918L97.6531 172.111C97.7057 172.351 97.8463 172.563 98.0474 172.705C98.2484 172.847 98.4953 172.909 98.7395 172.878L110.964 171.198C111.081 171.183 111.193 171.145 111.294 171.085C111.395 171.025 111.482 170.945 111.551 170.85C111.62 170.755 111.668 170.647 111.694 170.532C111.719 170.418 111.72 170.299 111.698 170.184L110.096 161.991C110.044 161.751 109.903 161.54 109.702 161.399C109.5 161.258 109.253 161.197 109.01 161.23ZM105.499 169.529L103.259 169.826L103.04 167.183C102.809 167.083 102.606 166.929 102.447 166.734C102.288 166.539 102.179 166.309 102.127 166.063C102.086 165.872 102.086 165.675 102.126 165.484C102.165 165.293 102.245 165.112 102.359 164.954C102.473 164.795 102.619 164.663 102.787 164.564C102.956 164.466 103.143 164.404 103.337 164.383C103.735 164.331 104.137 164.431 104.465 164.662C104.793 164.894 105.022 165.239 105.107 165.631C105.155 165.868 105.14 166.113 105.064 166.342C104.987 166.572 104.851 166.776 104.67 166.936L105.499 169.529Z" fill="#0010F7"/>
<path d="M107.8 160.787C107.584 160.815 107.365 160.761 107.187 160.635C107.009 160.51 106.884 160.323 106.837 160.11L106.68 159.309C106.456 158.216 105.843 157.242 104.956 156.566C104.068 155.891 102.966 155.56 101.853 155.635C101.291 155.667 100.743 155.82 100.245 156.083C99.748 156.345 99.3129 156.712 98.9697 157.158C98.6265 157.603 98.3833 158.118 98.2565 158.666C98.1297 159.214 98.1224 159.783 98.235 160.334L98.4142 161.258C98.4351 161.36 98.4344 161.466 98.4121 161.568C98.3897 161.67 98.3464 161.766 98.2847 161.851C98.223 161.935 98.1444 162.006 98.0539 162.058C97.9633 162.11 97.8629 162.143 97.759 162.154C97.5425 162.184 97.3226 162.131 97.1438 162.005C96.9649 161.879 96.8406 161.69 96.7958 161.476L96.6446 160.698C96.4909 159.97 96.4858 159.219 96.6296 158.49C96.7735 157.76 97.0634 157.067 97.4819 156.453C97.9003 155.838 98.4387 155.315 99.0647 154.913C99.6907 154.512 100.391 154.241 101.125 154.118C102.714 153.851 104.346 154.206 105.681 155.11C107.015 156.014 107.951 157.398 108.293 158.973L108.472 159.891C108.493 159.995 108.491 160.102 108.468 160.205C108.445 160.308 108.4 160.405 108.337 160.49C108.273 160.575 108.192 160.645 108.1 160.696C108.007 160.747 107.905 160.779 107.8 160.787Z" fill="#0010F7"/>
<path d="M120.215 184.039H87.192L86.9736 177.475H119.991L120.215 184.039Z" fill="#0010F7"/>
<path d="M104.283 146.866C104.293 147.105 104.254 147.344 104.169 147.568C104.084 147.792 103.954 147.996 103.787 148.169C103.621 148.341 103.421 148.478 103.2 148.57C102.979 148.663 102.742 148.71 102.502 148.708C102.009 148.704 101.535 148.511 101.18 148.168C100.824 147.825 100.614 147.359 100.593 146.866C100.583 146.627 100.622 146.388 100.707 146.164C100.792 145.94 100.922 145.735 101.089 145.563C101.255 145.391 101.455 145.254 101.676 145.161C101.897 145.069 102.134 145.022 102.374 145.023C102.868 145.026 103.342 145.219 103.698 145.562C104.053 145.905 104.263 146.372 104.283 146.866Z" fill="#263238"/>
<path d="M96.3201 146.866C96.3308 147.105 96.2925 147.345 96.2076 147.569C96.1226 147.793 95.9929 147.998 95.8262 148.17C95.6595 148.343 95.4594 148.479 95.2382 148.572C95.0169 148.664 94.7791 148.711 94.5393 148.708C94.0461 148.704 93.5733 148.511 93.2188 148.168C92.8643 147.825 92.6554 147.359 92.6353 146.866C92.6254 146.627 92.6643 146.388 92.7495 146.164C92.8347 145.94 92.9645 145.735 93.131 145.563C93.2975 145.391 93.4973 145.254 93.7182 145.161C93.9391 145.069 94.1765 145.022 94.4161 145.023C94.9097 145.026 95.3833 145.219 95.7381 145.562C96.0928 145.906 96.3013 146.373 96.3201 146.866Z" fill="#263238"/>
<path d="M88.407 146.866C88.4169 147.105 88.378 147.344 88.2928 147.568C88.2076 147.792 88.0778 147.996 87.9113 148.169C87.7448 148.341 87.545 148.478 87.3241 148.57C87.1032 148.663 86.8658 148.71 86.6262 148.708C86.1326 148.706 85.659 148.513 85.3042 148.169C84.9495 147.826 84.741 147.359 84.7222 146.866C84.7123 146.627 84.7512 146.388 84.8364 146.164C84.9216 145.94 85.0514 145.735 85.2179 145.563C85.3844 145.391 85.5842 145.254 85.8051 145.161C86.026 145.069 86.2634 145.022 86.503 145.023C86.9966 145.026 87.4702 145.219 87.825 145.562C88.1797 145.906 88.3882 146.373 88.407 146.866Z" fill="#263238"/>
<path d="M112.219 146.866C112.228 147.105 112.19 147.344 112.104 147.568C112.019 147.792 111.889 147.996 111.723 148.168C111.556 148.341 111.357 148.477 111.136 148.57C110.915 148.663 110.677 148.71 110.438 148.708C109.944 148.706 109.471 148.513 109.116 148.169C108.761 147.826 108.553 147.359 108.534 146.866C108.525 146.627 108.566 146.389 108.652 146.167C108.738 145.944 108.869 145.741 109.036 145.57C109.203 145.4 109.403 145.265 109.624 145.173C109.844 145.082 110.081 145.037 110.32 145.04C110.81 145.044 111.28 145.235 111.633 145.575C111.986 145.914 112.196 146.376 112.219 146.866Z" fill="#263238"/>
<path d="M120.154 146.866C120.164 147.105 120.126 147.345 120.041 147.569C119.956 147.793 119.826 147.998 119.66 148.17C119.493 148.343 119.293 148.479 119.072 148.572C118.85 148.664 118.613 148.711 118.373 148.708C117.88 148.704 117.407 148.511 117.052 148.168C116.698 147.825 116.489 147.359 116.469 146.866C116.459 146.627 116.498 146.388 116.583 146.164C116.668 145.94 116.798 145.735 116.965 145.563C117.131 145.391 117.331 145.254 117.552 145.161C117.773 145.069 118.01 145.022 118.25 145.023C118.743 145.026 119.217 145.219 119.572 145.562C119.926 145.906 120.135 146.373 120.154 146.866Z" fill="#263238"/>
<path d="M186.99 97.5972C187.735 98.7956 188.356 99.938 188.995 101.131C189.633 102.324 190.21 103.522 190.775 104.748C191.929 107.232 192.884 109.803 193.631 112.437C193.732 112.768 193.805 113.12 193.889 113.462L194.012 113.983L194.074 114.24L194.147 114.666C194.273 115.631 194.214 116.612 193.973 117.556C193.586 119.02 192.998 120.424 192.226 121.728C190.844 124.096 189.173 126.283 187.253 128.24L184.895 126.46C186.079 124.284 187.132 122.04 188.048 119.74C188.457 118.726 188.744 117.668 188.905 116.587C188.956 116.257 188.941 115.92 188.86 115.596L188.636 114.912C188.547 114.632 188.463 114.352 188.356 114.067C187.504 111.757 186.519 109.498 185.405 107.302C184.285 105.062 183.081 102.822 181.877 100.683L186.99 97.5972Z" fill="#FF8B7B"/>
<path d="M185.494 125.681L182.918 127.042L185.875 130.503C185.875 130.503 187.723 129.254 187.807 127.35L185.494 125.681Z" fill="#FF8B7B"/>
<path d="M179.463 129.175L182.627 131.69L185.875 130.503L182.919 127.042L179.463 129.175Z" fill="#FF8B7B"/>
<path d="M168.644 79.2739C168.583 79.5875 168.364 79.8059 168.163 79.7667C167.961 79.7275 167.843 79.4363 167.905 79.1283C167.967 78.8203 168.185 78.5683 168.392 78.6355C168.599 78.7027 168.706 78.9603 168.644 79.2739Z" fill="#263238"/>
<path d="M168.392 79.8115C167.828 80.6887 167.146 81.4839 166.365 82.1747C166.549 82.3659 166.773 82.5149 167.02 82.6116C167.268 82.7083 167.533 82.7503 167.798 82.7347L168.392 79.8115Z" fill="#FF5652"/>
<path d="M167.384 90.7986V87.125L172.245 87.685C172.245 87.685 172.167 90.8434 169.445 91.773L167.384 90.7986Z" fill="#FF8B7B"/>
<path d="M168.784 84.4819L172.206 85.4675L172.268 87.7131L167.407 87.1251L168.784 84.4819Z" fill="#FF8B7B"/>
<path opacity="0.2" d="M172.206 85.4675L168.784 84.4819L168.118 85.7587C168.154 86.7648 168.468 87.7411 169.026 88.5794C169.583 89.4176 170.362 90.085 171.276 90.5075C171.864 89.6864 172.208 88.7157 172.267 87.7075L172.206 85.4675Z" fill="black"/>
<path d="M170.134 77.7786C170.17 77.7776 170.205 77.7666 170.235 77.7466C170.264 77.7267 170.288 77.6987 170.303 77.6659C170.317 77.6331 170.322 77.5968 170.317 77.5613C170.312 77.5258 170.297 77.4924 170.274 77.465C170.077 77.2429 169.83 77.071 169.554 76.9639C169.277 76.8567 168.979 76.8173 168.684 76.849C168.635 76.8572 168.592 76.8842 168.564 76.9241C168.536 76.964 168.524 77.0135 168.532 77.0618C168.541 77.1104 168.567 77.1539 168.607 77.1832C168.647 77.2124 168.696 77.2251 168.745 77.2186C168.979 77.1957 169.215 77.2289 169.433 77.3156C169.651 77.4023 169.845 77.54 170 77.717C170.017 77.7357 170.037 77.7508 170.061 77.7614C170.084 77.772 170.109 77.7778 170.134 77.7786Z" fill="#263238"/>
<path d="M177.29 84.9409C176.73 87.8249 176.383 91.8177 178.41 93.7385C178.41 93.7385 177.626 96.6617 172.25 96.6617C166.365 96.6617 169.422 94.0969 169.422 94.0969C171.87 93.3353 171.847 90.5521 171.287 88.3121L177.29 84.9409Z" fill="#FF8B7B"/>
<path d="M179.503 95.665C180.029 94.9258 180.007 92.5794 179.447 92.165C178.545 91.4986 174.675 91.3418 169.473 92.5402C170.033 94.8138 168.829 96.001 168.829 96.001L179.503 95.665Z" fill="#0010F7"/>
<path d="M197.008 228.615C196.848 228.671 196.679 228.695 196.51 228.685C196.34 228.676 196.175 228.633 196.022 228.559C195.965 228.505 195.925 228.435 195.909 228.357C195.893 228.28 195.901 228.2 195.933 228.127C195.95 228.067 195.981 228.011 196.023 227.963C196.064 227.916 196.116 227.878 196.173 227.853C196.705 227.595 197.926 228.094 197.982 228.116C197.999 228.123 198.013 228.135 198.023 228.15C198.033 228.165 198.038 228.182 198.038 228.2C198.038 228.218 198.033 228.236 198.025 228.252C198.016 228.267 198.003 228.28 197.988 228.29C197.672 228.429 197.344 228.537 197.008 228.615ZM196.364 227.982C196.327 227.991 196.291 228.004 196.257 228.021C196.223 228.034 196.191 228.055 196.166 228.082C196.141 228.109 196.122 228.142 196.112 228.178C196.062 228.346 196.112 228.402 196.146 228.419C196.358 228.598 197.142 228.419 197.697 228.211C197.275 228.037 196.82 227.958 196.364 227.982Z" fill="#0010F7"/>
<path d="M197.966 228.295H197.921C197.473 228.167 196.521 227.489 196.51 227.047C196.509 226.976 196.533 226.908 196.577 226.853C196.621 226.798 196.682 226.759 196.751 226.744C196.817 226.719 196.888 226.709 196.959 226.715C197.029 226.721 197.098 226.742 197.159 226.778C197.686 227.047 198.022 228.133 198.033 228.183C198.041 228.197 198.045 228.212 198.045 228.228C198.045 228.244 198.041 228.259 198.033 228.273C198.024 228.282 198.014 228.288 198.002 228.292C197.99 228.296 197.978 228.297 197.966 228.295ZM196.846 226.901H196.801C196.689 226.94 196.689 226.996 196.689 227.024C196.689 227.287 197.327 227.819 197.809 228.032C197.691 227.719 197.434 227.097 197.092 226.912C197.016 226.878 196.93 226.874 196.851 226.901H196.846Z" fill="#0010F7"/>
<path d="M167.922 229.275C167.418 229.275 166.931 229.203 166.768 228.979C166.726 228.919 166.703 228.847 166.703 228.774C166.703 228.701 166.726 228.629 166.768 228.57C166.8 228.515 166.843 228.467 166.894 228.43C166.945 228.392 167.003 228.366 167.065 228.351C167.72 228.172 169.098 228.956 169.154 228.99C169.171 228.998 169.185 229.012 169.193 229.029C169.201 229.047 169.203 229.066 169.199 229.085C169.197 229.104 169.188 229.122 169.175 229.136C169.162 229.15 169.145 229.16 169.126 229.163C168.729 229.236 168.326 229.274 167.922 229.275ZM167.3 228.508C167.241 228.498 167.181 228.498 167.121 228.508C167.083 228.516 167.047 228.531 167.016 228.554C166.984 228.576 166.957 228.604 166.936 228.637C166.869 228.755 166.897 228.811 166.936 228.844C167.121 229.102 168.112 229.107 168.846 229.001C168.367 228.739 167.842 228.572 167.3 228.508Z" fill="#0010F7"/>
<path d="M169.12 229.163H169.081C168.605 228.951 167.664 228.099 167.737 227.651C167.737 227.545 167.827 227.416 168.084 227.394C168.176 227.383 168.269 227.391 168.358 227.418C168.447 227.445 168.529 227.49 168.599 227.551C168.958 227.98 169.174 228.51 169.215 229.068C169.215 229.084 169.212 229.1 169.205 229.114C169.198 229.129 169.188 229.142 169.176 229.152C169.159 229.161 169.139 229.165 169.12 229.163ZM168.157 227.567H168.101C167.933 227.567 167.922 227.646 167.922 227.668C167.877 227.937 168.515 228.609 169.003 228.9C168.96 228.451 168.778 228.026 168.482 227.685C168.39 227.607 168.272 227.565 168.151 227.567H168.157Z" fill="#0010F7"/>
<path d="M173.444 229.074H169.507L169.115 219.951H173.052L173.444 229.074Z" fill="#FF8B7B"/>
<path d="M202.356 227.248L198.509 228.083L194.639 219.587L198.492 218.753L202.356 227.248Z" fill="#FF8B7B"/>
<path d="M198.134 227.696L202.463 226.761C202.538 226.745 202.617 226.755 202.686 226.79C202.756 226.824 202.811 226.881 202.843 226.952L204.344 230.211C204.384 230.29 204.405 230.377 204.405 230.465C204.404 230.554 204.383 230.641 204.343 230.72C204.302 230.798 204.244 230.866 204.172 230.918C204.1 230.97 204.017 231.004 203.93 231.017C202.418 231.314 201.662 231.387 199.763 231.796C198.593 232.053 195.95 232.697 194.331 233.044C192.713 233.392 192.159 231.84 192.791 231.555C195.619 230.261 196.795 229.124 197.563 228.066C197.701 227.877 197.905 227.745 198.134 227.696Z" fill="#263238"/>
<path d="M169.534 228.615H173.835C173.913 228.615 173.989 228.642 174.05 228.691C174.111 228.74 174.153 228.807 174.171 228.884L174.95 232.384C174.972 232.468 174.975 232.557 174.957 232.643C174.94 232.729 174.902 232.809 174.848 232.878C174.793 232.946 174.723 233.001 174.644 233.038C174.564 233.075 174.477 233.092 174.39 233.089C172.838 233.061 170.598 232.972 168.65 232.972C166.365 232.972 164.399 233.095 161.722 233.095C160.104 233.095 159.656 231.46 160.334 231.308C163.414 230.636 165.934 230.564 168.594 228.923C168.873 228.736 169.198 228.629 169.534 228.615Z" fill="#263238"/>
<path d="M185.455 94.6403C189.146 95.4859 192.175 104.911 192.175 104.911L184.8 110.55C182.886 108.503 181.535 105.995 180.88 103.27C179.575 98.3307 181.681 93.7667 185.455 94.6403Z" fill="#0010F7"/>
<path opacity="0.4" d="M185.455 94.6403C189.146 95.4859 192.175 104.911 192.175 104.911L184.8 110.55C182.886 108.503 181.535 105.995 180.88 103.27C179.575 98.3307 181.681 93.7667 185.455 94.6403Z" fill="black"/>
<path d="M166.04 105.879C165.122 106.87 164.203 107.755 163.24 108.679C162.764 109.127 162.283 109.575 161.79 110.006L161.045 110.662L160.86 110.824L160.541 111.082C160.212 111.344 159.849 111.559 159.46 111.72C159.028 111.904 158.563 111.999 158.094 112C157.693 112.002 157.294 111.932 156.918 111.793C156.5 111.634 156.119 111.392 155.798 111.082C155.388 110.681 155.087 110.181 154.924 109.631C154.839 109.36 154.785 109.08 154.762 108.797C154.732 108.465 154.732 108.132 154.762 107.8C154.79 107.531 154.823 107.296 154.868 107.078C155.021 106.314 155.239 105.565 155.518 104.838C155.77 104.146 156.059 103.47 156.386 102.81C156.744 102.099 157.086 101.578 157.427 100.985C158.815 98.7119 160.398 96.5645 162.159 94.5672C163.903 92.5817 165.824 90.7597 167.899 89.124L169.96 91.2464C168.515 93.184 167.093 95.2616 165.777 97.3056C164.467 99.338 163.271 101.441 162.193 103.606C161.952 104.132 161.633 104.726 161.482 105.151C161.281 105.646 161.108 106.15 160.961 106.663C160.82 107.125 160.713 107.597 160.642 108.074C160.638 108.149 160.638 108.224 160.642 108.298C160.642 108.343 160.642 108.366 160.642 108.248C160.633 108.122 160.608 107.998 160.569 107.878C160.448 107.481 160.226 107.123 159.925 106.837C159.657 106.591 159.343 106.4 159.001 106.277C158.7 106.163 158.382 106.104 158.06 106.103C157.751 106.099 157.444 106.159 157.159 106.277C157.062 106.316 156.968 106.363 156.879 106.417L157.091 106.221L157.769 105.605L159.107 104.35C159.992 103.516 160.883 102.626 161.723 101.797L166.04 105.879Z" fill="#FF8B7B"/>
<path opacity="0.2" d="M182.291 101.562C184.296 103.544 184.951 107.162 185.091 110.298L184.767 110.55C182.852 108.503 181.502 105.995 180.847 103.27C180.774 102.979 180.707 102.71 180.656 102.391L182.291 101.562Z" fill="black"/>
<path d="M162.126 98.56C161.319 102.816 160.815 111.558 163.15 128.862H184.24C184.386 125.63 182.353 109.85 185.472 94.612C183.142 94.1645 180.785 93.8671 178.416 93.7216C175.432 93.5505 172.44 93.5505 169.456 93.7216C168.47 93.8112 167.496 93.9568 166.656 94.108C165.539 94.304 164.508 94.8346 163.699 95.6296C162.89 96.4246 162.341 97.4464 162.126 98.56Z" fill="#0010F7"/>
<path opacity="0.4" d="M162.126 98.56C161.319 102.816 160.815 111.558 163.15 128.862H184.24C184.386 125.63 182.353 109.85 185.472 94.612C183.142 94.1645 180.785 93.8671 178.416 93.7216C175.432 93.5505 172.44 93.5505 169.456 93.7216C168.47 93.8112 167.496 93.9568 166.656 94.108C165.539 94.304 164.508 94.8346 163.699 95.6296C162.89 96.4246 162.341 97.4464 162.126 98.56Z" fill="black"/>
<path opacity="0.2" d="M165.351 104.871L161.543 103.958C161.426 106.266 161.415 109.122 161.583 112.655C163.335 110.662 165.575 107.548 165.351 104.871Z" fill="black"/>
<path opacity="0.2" d="M169.115 219.951L169.316 224.655H173.259L173.057 219.951H169.115Z" fill="black"/>
<path opacity="0.2" d="M198.492 218.753L194.639 219.587L196.633 223.967L200.486 223.132L198.492 218.753Z" fill="black"/>
<path d="M179.161 80.7296C178.153 84.504 177.75 86.7664 175.42 88.3344C171.92 90.72 167.552 87.9872 167.44 84C167.317 80.3992 168.991 74.8272 173.04 74.0656C173.93 73.8986 174.847 73.961 175.706 74.2467C176.565 74.5325 177.337 75.0323 177.95 75.699C178.562 76.3657 178.995 77.1774 179.206 78.0575C179.418 78.9377 179.403 79.8572 179.161 80.7296Z" fill="#FF8B7B"/>
<path d="M170.324 80.8697C170.134 80.3657 169.266 76.4624 170.084 75.4488C170.901 74.4352 180.225 75.1688 181.603 76.524C183.893 78.764 182.303 80.7801 179.8 83.3729C177.918 85.3217 177.845 87.5169 176.893 87.8529C175.213 88.4129 172.648 87.8865 172.133 86.1113C171.618 84.3361 170.324 80.8697 170.324 80.8697Z" fill="#263238"/>
<path d="M180.471 72.0834C177.179 70.6834 171.002 72.2346 167.664 71.4282C167.622 72.6693 168.03 73.8838 168.813 74.8473C169.596 75.8108 170.702 76.4582 171.926 76.6698C174.694 77.1975 177.507 77.4581 180.326 77.4482C183.988 77.2802 183.271 73.2762 180.471 72.0834Z" fill="#263238"/>
<path d="M180.986 76.642C182.189 76.7603 183.401 76.5289 184.475 75.9756C185.091 77.4652 181.703 77.874 180.986 76.642Z" fill="#263238"/>
<path d="M172.116 81.0268C172.04 81.998 171.647 82.9171 170.996 83.642C170.134 84.5884 169.238 83.9948 169.086 82.8468C168.952 81.8052 169.232 80.0468 170.285 79.5428C171.338 79.0388 172.189 79.8564 172.116 81.0268Z" fill="#FF8B7B"/>
<path d="M170.626 128.879C170.626 128.879 175.106 158.979 177.554 170.257C180.236 182.605 194.65 223.457 194.65 223.457L201.701 221.928C201.701 221.928 191.621 188.631 189.381 171.366C187.645 158.105 184.234 128.867 184.234 128.867L170.626 128.879Z" fill="#0010F7"/>
<path d="M192.959 221.111C192.931 221.111 194.275 223.664 194.275 223.664L202.205 221.945L201.539 219.56L192.959 221.111Z" fill="#263238"/>
<path opacity="0.3" d="M173.454 139.603C178.623 140.616 178.074 159.891 177.453 169.809C175.963 162.798 173.779 149.313 172.29 139.743C172.65 139.564 173.061 139.515 173.454 139.603Z" fill="black"/>
<path d="M163.15 128.879C163.15 128.879 162.59 158.329 163.038 170.319C163.486 182.812 167.849 223.72 167.849 223.72H174.524C174.524 223.72 174.765 183.54 175.084 171.271C175.409 157.898 177.022 128.856 177.022 128.856L163.15 128.879Z" fill="#0010F7"/>
<path d="M166.566 221.088C166.533 221.088 166.942 223.855 166.942 223.855H175.056L175.28 221.385L166.566 221.088Z" fill="#263238"/>
<path d="M170.38 99.8704C172.268 104.961 161.174 110.958 161.174 110.958L156.369 104.798C156.369 104.798 159.6 98.4032 163.52 95.5248C168.364 91.9744 168.941 95.9952 170.38 99.8704Z" fill="#0010F7"/>
<path opacity="0.4" d="M170.38 99.8704C172.268 104.961 161.174 110.958 161.174 110.958L156.369 104.798C156.369 104.798 159.6 98.4032 163.52 95.5248C168.364 91.9744 168.941 95.9952 170.38 99.8704Z" fill="black"/>
<path d="M213.847 61.2248C225.009 61.2248 234.058 55.4583 234.058 48.3448C234.058 41.2314 225.009 35.4648 213.847 35.4648C202.685 35.4648 193.637 41.2314 193.637 48.3448C193.637 55.4583 202.685 61.2248 213.847 61.2248Z" fill="#0010F7"/>
<path d="M206.556 54.8294C205.224 54.8252 203.937 54.3518 202.92 53.4925C201.903 52.6332 201.221 51.443 200.995 50.131C200.772 48.7099 201.093 47.257 201.893 46.0616C202.693 44.8661 203.914 44.0158 205.312 43.6798C206.46 43.4154 207.662 43.5173 208.749 43.9713C209.836 44.4254 210.753 45.2087 211.372 46.211L224.347 43.5342C224.845 43.425 225.367 43.508 225.807 43.7665C226.247 44.0249 226.574 44.44 226.721 44.9286C226.789 45.1856 226.804 45.4536 226.765 45.7165C226.725 45.9793 226.633 46.2314 226.493 46.4573C226.353 46.6832 226.169 46.8782 225.951 47.0303C225.733 47.1825 225.486 47.2886 225.226 47.3422L224.89 47.4094C224.84 47.4184 224.793 47.4387 224.752 47.4688C224.711 47.4989 224.678 47.538 224.655 47.583C224.634 47.6288 224.623 47.6784 224.623 47.7286C224.623 47.7789 224.634 47.8285 224.655 47.8742L224.884 48.4678C224.961 48.6603 224.969 48.8735 224.905 49.0708C224.842 49.268 224.712 49.437 224.537 49.5486C224.4 49.6337 224.283 49.749 224.197 49.8859C224.11 50.0227 224.056 50.1774 224.039 50.3382C224.022 50.5229 223.948 50.6975 223.826 50.8373C223.705 50.9771 223.542 51.0749 223.361 51.1166L223.098 51.1726C222.916 51.2064 222.727 51.1811 222.56 51.1006C222.393 51.02 222.256 50.8884 222.168 50.7246C222.052 50.5293 221.878 50.3751 221.67 50.2836C221.462 50.192 221.23 50.1677 221.008 50.2139C220.785 50.2601 220.583 50.3747 220.428 50.5415C220.274 50.7083 220.176 50.9192 220.147 51.1446C220.131 51.3281 220.058 51.5018 219.937 51.6407C219.816 51.7796 219.654 51.8765 219.475 51.9174L219.212 51.9734C219.029 52.0063 218.841 51.9806 218.674 51.9002C218.507 51.8197 218.37 51.6886 218.282 51.5254C218.198 51.3866 218.085 51.2676 217.951 51.1767C217.816 51.0858 217.664 51.0252 217.504 50.999C217.288 50.9731 217.09 50.8695 216.945 50.7076C216.801 50.5457 216.721 50.3367 216.72 50.1198V49.4814C216.717 49.4315 216.704 49.3826 216.681 49.3382C216.659 49.2938 216.626 49.2548 216.587 49.2239C216.548 49.1931 216.502 49.1711 216.453 49.1595C216.405 49.1479 216.354 49.1469 216.305 49.1566L212.167 50.0078C211.998 51.1544 211.48 52.221 210.683 53.0627C209.887 53.9044 208.85 54.4802 207.715 54.7118C207.333 54.7898 206.945 54.8292 206.556 54.8294ZM205.436 44.1895C204.165 44.4861 203.055 45.2531 202.328 46.3358C201.6 47.4185 201.31 48.7366 201.516 50.0246C201.736 51.223 202.378 52.3029 203.325 53.0691C204.272 53.8353 205.463 54.2372 206.681 54.202C207.898 54.1668 209.063 53.6969 209.965 52.8773C210.867 52.0577 211.445 50.9425 211.596 49.7334V49.5318L216.16 48.6078C216.291 48.5762 216.427 48.5741 216.559 48.6016C216.691 48.6292 216.815 48.6858 216.922 48.7673C217.029 48.8488 217.117 48.9532 217.179 49.0729C217.241 49.1925 217.275 49.3244 217.28 49.459V50.0974C217.281 50.1735 217.308 50.2467 217.357 50.3049C217.406 50.363 217.474 50.4025 217.548 50.4166C217.793 50.4517 218.027 50.542 218.232 50.6808C218.436 50.8195 218.607 51.0031 218.73 51.2174C218.76 51.2779 218.807 51.3276 218.867 51.3597C218.926 51.3918 218.994 51.4047 219.06 51.3966L219.318 51.3406C219.383 51.3238 219.441 51.2864 219.484 51.234C219.526 51.1815 219.551 51.1168 219.553 51.0494C219.589 50.7008 219.734 50.3725 219.968 50.1118C220.202 49.8512 220.513 49.6717 220.856 49.5994C221.199 49.5271 221.556 49.5657 221.875 49.7096C222.195 49.8534 222.46 50.0952 222.633 50.3998C222.662 50.4598 222.709 50.5093 222.767 50.5415C222.825 50.5736 222.892 50.5867 222.958 50.579L223.227 50.523C223.291 50.5052 223.348 50.4674 223.389 50.415C223.431 50.3627 223.454 50.2985 223.456 50.2318C223.484 49.986 223.568 49.7497 223.701 49.541C223.834 49.3324 224.012 49.1568 224.224 49.0278C224.285 48.9833 224.33 48.9195 224.352 48.8465C224.373 48.7734 224.369 48.6954 224.341 48.6246L224.112 48.031C224.064 47.9087 224.044 47.7774 224.052 47.6464C224.061 47.5154 224.098 47.3879 224.161 47.2727C224.224 47.1575 224.311 47.0574 224.417 46.9795C224.522 46.9016 224.644 46.8476 224.772 46.8214L225.114 46.7486C225.299 46.7092 225.474 46.6329 225.629 46.5243C225.783 46.4157 225.915 46.277 226.014 46.1165C226.114 45.956 226.181 45.777 226.21 45.5902C226.239 45.4034 226.23 45.2127 226.184 45.0295C226.074 44.677 225.836 44.379 225.516 44.1951C225.196 44.0113 224.818 43.9552 224.459 44.0382L211.12 46.8102L211.019 46.6366C210.483 45.6826 209.651 44.9288 208.649 44.4894C207.647 44.0499 206.529 43.9485 205.464 44.2006L205.436 44.1895ZM206.556 52.7462C205.86 52.754 205.177 52.5594 204.59 52.1862C203.896 51.7304 203.381 51.0477 203.133 50.2547C202.886 49.4617 202.921 48.6075 203.233 47.8376C203.545 47.0676 204.114 46.4298 204.844 46.0327C205.574 45.6355 206.418 45.5038 207.234 45.6598C208.05 45.8159 208.787 46.2501 209.318 46.8885C209.85 47.5268 210.144 48.3298 210.15 49.1604C210.155 49.9911 209.873 50.7981 209.35 51.4438C208.828 52.0895 208.097 52.534 207.284 52.7014C207.045 52.7446 206.803 52.7633 206.561 52.7574L206.556 52.7462ZM206.556 46.1326C206.347 46.1338 206.139 46.1545 205.934 46.1942C205.544 46.2773 205.174 46.4365 204.845 46.6625C204.517 46.8886 204.236 47.1772 204.019 47.5118C203.802 47.8465 203.653 48.2206 203.58 48.6128C203.507 49.005 203.513 49.4077 203.596 49.7978C203.679 50.188 203.838 50.5579 204.064 50.8866C204.29 51.2152 204.579 51.4961 204.914 51.7132C205.248 51.9303 205.622 52.0794 206.015 52.1519C206.407 52.2244 206.809 52.2189 207.2 52.1358C207.785 52.0139 208.322 51.7213 208.741 51.295C209.161 50.8686 209.445 50.3276 209.558 49.7401C209.67 49.1525 209.606 48.5448 209.374 47.9935C209.142 47.4422 208.752 46.9721 208.252 46.6422C207.757 46.3125 207.173 46.1389 206.578 46.1438L206.556 46.1326Z" fill="white"/>
<path opacity="0.6" d="M197.4 68.7792C201.068 68.7792 204.041 66.8838 204.041 64.5456C204.041 62.2075 201.068 60.312 197.4 60.312C193.732 60.312 190.758 62.2075 190.758 64.5456C190.758 66.8838 193.732 68.7792 197.4 68.7792Z" fill="#0010F7"/>
<path opacity="0.3" d="M186.833 70.5155C188.339 70.5155 189.56 69.7382 189.56 68.7795C189.56 67.8207 188.339 67.0435 186.833 67.0435C185.326 67.0435 184.105 67.8207 184.105 68.7795C184.105 69.7382 185.326 70.5155 186.833 70.5155Z" fill="#0010F7"/>
</svg>
