<svg width="321" height="321" viewBox="0 0 321 321" fill="none" xmlns="http://www.w3.org/2000/svg">
<path d="M160.004 320.009C248.371 320.009 320.007 248.373 320.007 160.006C320.007 71.638 248.371 0.00195312 160.004 0.00195312C71.6361 0.00195312 0 71.638 0 160.006C0 248.373 71.6361 320.009 160.004 320.009Z" fill="#79F2C6"/>
<path d="M147.34 204.336C144.098 204.336 140.856 203.095 138.386 200.625L100.39 162.629C95.4377 157.677 95.4377 149.673 100.39 144.721C105.342 139.768 113.347 139.768 118.299 144.721L147.34 173.762L201.712 119.39C206.665 114.438 214.669 114.438 219.621 119.39C224.573 124.342 224.573 132.347 219.621 137.299L156.295 200.625C153.825 203.095 150.583 204.336 147.34 204.336Z" fill="white"/>
</svg>
