<svg width="25" height="25" viewBox="0 0 25 25" fill="none" xmlns="http://www.w3.org/2000/svg">
<path d="M9.70587 10.5C10.8104 10.5 11.7059 9.60457 11.7059 8.5C11.7059 7.39543 10.8104 6.5 9.70587 6.5C8.6013 6.5 7.70587 7.39543 7.70587 8.5C7.70587 9.60457 8.6013 10.5 9.70587 10.5Z" stroke="#666377" strokeWidth="2.5" strokeLinecap="round" strokeLinejoin="round"/>
<path d="M13.7059 2.5H9.70587C4.70587 2.5 2.70587 4.5 2.70587 9.5V15.5C2.70587 20.5 4.70587 22.5 9.70587 22.5H15.7059C20.7059 22.5 22.7059 20.5 22.7059 15.5V10.5" stroke="#666377" strokeWidth="2.5" strokeLinecap="round" strokeLinejoin="round"/>
<path d="M16.4559 5.5H21.9559" stroke="#666377" strokeWidth="2.5" strokeLinecap="round"/>
<path d="M19.2059 8.25V2.75" stroke="#666377" strokeWidth="2.5" strokeLinecap="round"/>
<path d="M3.37589 19.4496L8.30589 16.1396C9.09589 15.6096 10.2359 15.6696 10.9459 16.2796L11.2759 16.5696C12.0559 17.2396 13.3159 17.2396 14.0959 16.5696L18.2559 12.9996C19.0359 12.3296 20.2959 12.3296 21.0759 12.9996L22.7059 14.3996" stroke="#666377" strokeWidth="2.5" strokeLinecap="round" strokeLinejoin="round"/>
</svg>
