<svg width="280" height="280" viewBox="0 0 280 280" fill="none" xmlns="http://www.w3.org/2000/svg">
<path d="M248.142 39.9599C244.707 39.9599 186.817 40.3426 183.18 40.223C182.917 40.223 182.779 39.8307 183.037 39.7015C185.334 38.5675 187.932 38.7972 190.314 37.9933C191.721 37.5149 192.578 36.6058 193.554 35.5531C194.359 34.6356 195.4 33.9556 196.563 33.5866C197.629 33.2652 198.761 33.2289 199.846 33.4814C201.018 33.7637 202.037 34.4383 203.161 34.8594C205.941 35.9072 208.645 34.912 210.626 32.8546C212.267 31.156 213.874 29.5579 216.099 28.644C217.009 28.2337 217.993 28.0147 218.99 28.0007C219.988 27.9867 220.978 28.178 221.898 28.5627C224.023 29.5196 225.482 31.4622 227.473 32.6249C229.841 34.0077 232.669 33.6775 235.276 34.0938C237.884 34.5101 239.894 36.711 242.186 37.979C242.931 38.4568 243.793 38.7231 244.678 38.7493C245.189 38.7053 245.697 38.6351 246.2 38.5388C246.989 38.4383 247.736 38.4622 248.267 39.1177C248.396 39.29 248.372 39.9599 248.142 39.9599Z" fill="#EBEBEB"/>
<path d="M112.123 88.984C108.682 88.984 50.7922 89.3667 47.1558 89.2519C46.8974 89.2519 46.7539 88.8596 47.0122 88.7304C49.3089 87.5964 51.9166 87.8069 54.3089 87.0174C55.7108 86.539 56.5721 85.6299 57.5434 84.5772C58.3512 83.6605 59.3932 82.9807 60.5578 82.6107C61.6226 82.2906 62.7528 82.256 63.8353 82.5102C65.0075 82.7878 66.0315 83.4672 67.1511 83.8835C69.931 84.9361 72.6344 83.9361 74.62 81.8787C76.2564 80.1849 77.8641 78.582 80.0937 77.6681C81.0023 77.2573 81.9858 77.0384 82.9829 77.0252C83.9799 77.0121 84.9689 77.2049 85.888 77.5916C88.0124 78.5485 89.4718 80.4624 91.467 81.649C93.8306 83.0318 96.6584 82.7064 99.2661 83.1227C101.874 83.539 103.883 85.7399 106.175 87.0031C106.922 87.483 107.785 87.7509 108.673 87.7782C109.18 87.7782 109.682 87.6251 110.19 87.5629C110.979 87.4672 111.725 87.4864 112.257 88.1466C112.371 88.2854 112.347 88.984 112.123 88.984Z" fill="#EBEBEB"/>
<path d="M137.252 70.4383C134.74 70.4383 92.4768 70.7158 89.8213 70.6297C89.6299 70.6297 89.5246 70.3474 89.716 70.2517C91.3907 69.424 93.2902 69.5866 95.0318 69.0029C96.0558 68.6584 96.6826 67.9885 97.3907 67.2182C97.9815 66.5501 98.742 66.0541 99.5917 65.7828C100.369 65.5519 101.194 65.5272 101.984 65.711C102.84 65.912 103.582 66.4048 104.376 66.7158C106.41 67.4814 108.381 66.7541 109.831 65.2517C111.027 64.0125 112.223 62.8593 113.826 62.1751C114.49 61.8762 115.209 61.7168 115.937 61.707C116.666 61.6971 117.388 61.8369 118.061 62.1177C119.611 62.8211 120.673 64.2326 122.132 65.0842C123.855 66.089 125.922 65.8546 127.826 66.156C129.731 66.4574 131.176 68.0699 132.869 68.9933C133.415 69.3422 134.045 69.5373 134.692 69.5579C135.065 69.5244 135.435 69.4717 135.802 69.4C136.377 69.3283 136.922 69.3426 137.31 69.8259C137.434 69.9407 137.415 70.4383 137.252 70.4383Z" fill="#EBEBEB"/>
<path d="M230.821 63.8836C228.309 63.8836 186.046 64.1611 183.391 64.0749C183.347 64.0734 183.305 64.0581 183.27 64.031C183.236 64.004 183.211 63.9667 183.199 63.9245C183.188 63.8824 183.19 63.8376 183.205 63.7967C183.221 63.7558 183.249 63.7208 183.285 63.697C184.96 62.8692 186.859 63.0319 188.601 62.4481C189.625 62.1036 190.252 61.4338 190.965 60.6634C191.554 59.9955 192.313 59.4995 193.161 59.228C193.939 58.9973 194.763 58.9726 195.553 59.1563C196.41 59.3572 197.156 59.85 197.974 60.1611C200.003 60.9266 201.974 60.1993 203.424 58.6969C204.62 57.4577 205.817 56.3046 207.419 55.6204C208.083 55.3203 208.802 55.1604 209.531 55.1505C210.259 55.1406 210.982 55.281 211.654 55.5629C213.204 56.2663 214.266 57.6778 215.726 58.5295C217.453 59.5343 219.515 59.2998 221.419 59.6012C223.324 59.9027 224.793 61.5151 226.463 62.4386C227.009 62.7868 227.638 62.9818 228.285 63.0032C228.659 63.0032 229.027 62.8883 229.396 62.8453C229.97 62.7735 230.52 62.7879 230.908 63.2711C231.003 63.4051 230.984 63.8836 230.821 63.8836Z" fill="#EBEBEB"/>
<path d="M110.735 38.046C108.223 38.046 65.9595 38.3235 63.304 38.2422C63.2593 38.2413 63.2161 38.2258 63.1809 38.1981C63.1458 38.1704 63.1206 38.132 63.1093 38.0887C63.0979 38.0455 63.101 37.9997 63.118 37.9583C63.135 37.9169 63.165 37.8822 63.2035 37.8594C64.8782 37.0317 66.7777 37.1991 68.5146 36.6106C69.5385 36.2661 70.1701 35.5963 70.8782 34.8307C71.4668 34.16 72.2281 33.6636 73.0792 33.3953C73.856 33.1597 74.6812 33.1333 75.4715 33.3187C76.2992 33.6016 77.1078 33.9373 77.8926 34.3235C79.9213 35.0891 81.8974 34.3618 83.3472 32.8594C84.5385 31.6202 85.7395 30.4671 87.3424 29.7876C88.0063 29.4879 88.7248 29.3278 89.4532 29.3171C90.1815 29.3064 90.9044 29.4454 91.5769 29.7254C93.1271 30.4288 94.1893 31.8403 95.6439 32.6919C97.3711 33.7015 99.4333 33.4623 101.342 33.7637C103.252 34.0652 104.692 35.6776 106.386 36.6011C106.931 36.9506 107.561 37.1457 108.208 37.1656C108.586 37.1275 108.961 37.0701 109.333 36.9934C109.599 36.9205 109.88 36.9217 110.146 36.9967C110.411 37.0718 110.651 37.2179 110.84 37.4192C110.921 37.5341 110.902 38.046 110.735 38.046Z" fill="#EBEBEB"/>
<path d="M54.4527 121.888C54.1752 121.774 54.0556 122.223 54.3283 122.333C54.6775 122.475 54.961 122.742 55.1231 123.082C55.2851 123.422 55.314 123.81 55.2039 124.171C55.194 124.228 55.2057 124.287 55.2368 124.336C55.268 124.385 55.3163 124.421 55.3724 124.437C55.4285 124.452 55.4884 124.446 55.5404 124.42C55.5923 124.394 55.6327 124.349 55.6537 124.295C55.7919 123.816 55.7452 123.303 55.5227 122.857C55.3003 122.412 54.9183 122.066 54.4527 121.888Z" fill="#EBEBEB"/>
<path d="M56.481 121.453C56.1903 122.096 56.097 122.81 56.213 123.506C56.2609 123.802 56.6915 123.673 56.658 123.381C56.5666 122.807 56.6448 122.218 56.8829 121.687C57.0025 121.419 56.6006 121.18 56.481 121.453Z" fill="#EBEBEB"/>
<path d="M203.759 126.855C203.482 126.74 203.362 127.185 203.635 127.3C203.981 127.441 204.262 127.706 204.424 128.043C204.586 128.38 204.617 128.765 204.511 129.123C204.501 129.18 204.512 129.239 204.543 129.289C204.575 129.338 204.623 129.374 204.679 129.389C204.735 129.405 204.795 129.399 204.847 129.373C204.899 129.346 204.939 129.302 204.96 129.247C205.095 128.771 205.046 128.261 204.824 127.818C204.601 127.376 204.222 127.032 203.759 126.855Z" fill="#EBEBEB"/>
<path d="M205.788 126.419C205.492 127.062 205.393 127.778 205.506 128.477C205.549 128.769 205.984 128.644 205.951 128.353C205.859 127.778 205.937 127.189 206.176 126.659C206.31 126.381 205.908 126.147 205.788 126.419Z" fill="#EBEBEB"/>
<path d="M50.2847 222.473C50.0072 222.362 49.8876 222.807 50.1603 222.922C50.5065 223.064 50.7881 223.328 50.9507 223.665C51.1132 224.001 51.1453 224.386 51.0407 224.745C51.0249 224.804 51.0331 224.867 51.0636 224.92C51.0941 224.973 51.1444 225.012 51.2034 225.028C51.2624 225.043 51.3253 225.035 51.3782 225.005C51.4312 224.974 51.4698 224.924 51.4857 224.865C51.621 224.388 51.5728 223.878 51.3505 223.435C51.1281 222.992 50.7479 222.649 50.2847 222.473Z" fill="#EBEBEB"/>
<path d="M52.3138 222.042C52.025 222.685 51.9318 223.399 52.0458 224.095C52.0937 224.387 52.5243 224.262 52.4956 223.97C52.4046 223.396 52.4811 222.808 52.7157 222.277C52.8353 222.004 52.4382 221.779 52.3138 222.042Z" fill="#EBEBEB"/>
<path d="M85.2896 131.826C85.0121 131.716 84.8925 132.161 85.1652 132.276C85.5114 132.417 85.7929 132.682 85.9555 133.018C86.1181 133.355 86.1502 133.74 86.0456 134.099C86.0297 134.158 86.038 134.221 86.0685 134.274C86.099 134.327 86.1493 134.365 86.2083 134.381C86.2673 134.397 86.3302 134.389 86.3831 134.358C86.4361 134.328 86.4747 134.278 86.4906 134.219C86.6259 133.742 86.5777 133.232 86.3554 132.789C86.133 132.346 85.7528 132.003 85.2896 131.826Z" fill="#EBEBEB"/>
<path d="M87.3235 131.41C87.0348 132.053 86.9416 132.767 87.0556 133.463C87.1034 133.754 87.534 133.63 87.5053 133.338C87.4144 132.764 87.4908 132.176 87.7254 131.644C87.8403 131.372 87.4431 131.137 87.3235 131.41Z" fill="#EBEBEB"/>
<path d="M146.084 121.664C145.821 121.525 145.606 121.927 145.85 122.066C146.103 122.197 146.311 122.402 146.447 122.652C146.583 122.903 146.642 123.188 146.615 123.472C146.615 123.769 147.056 123.769 147.094 123.472C147.122 123.105 147.041 122.738 146.861 122.416C146.682 122.094 146.412 121.833 146.084 121.664Z" fill="#EBEBEB"/>
<path d="M147.467 120.941C147.324 120.678 146.922 120.912 147.065 121.176C147.393 121.782 147.546 122.468 147.505 123.156C147.505 123.458 147.95 123.458 147.984 123.156C148.018 122.384 147.84 121.618 147.467 120.941Z" fill="#EBEBEB"/>
<path d="M148.568 121.247C148.314 121.698 148.21 122.217 148.271 122.731C148.305 123.022 148.75 123.027 148.75 122.731C148.69 122.3 148.771 121.863 148.979 121.482C149.01 121.427 149.018 121.362 149.002 121.302C148.985 121.241 148.945 121.19 148.891 121.159C148.836 121.128 148.771 121.12 148.711 121.136C148.65 121.153 148.599 121.193 148.568 121.247Z" fill="#EBEBEB"/>
<path d="M228.473 233.712C228.209 233.573 227.994 233.975 228.238 234.114C228.491 234.245 228.699 234.448 228.837 234.698C228.974 234.947 229.034 235.232 229.008 235.516C228.985 235.817 229.449 235.812 229.487 235.516C229.512 235.149 229.43 234.783 229.249 234.462C229.069 234.142 228.799 233.881 228.473 233.712Z" fill="#EBEBEB"/>
<path d="M229.831 232.984C229.688 232.721 229.291 232.956 229.429 233.219C229.757 233.827 229.91 234.515 229.87 235.205C229.87 235.501 230.315 235.501 230.348 235.205C230.383 234.431 230.204 233.663 229.831 232.984Z" fill="#EBEBEB"/>
<path d="M230.908 233.296C230.652 233.744 230.548 234.262 230.611 234.774C230.65 235.071 231.09 235.071 231.09 234.774C231.032 234.346 231.113 233.91 231.319 233.53C231.453 233.262 231.051 233.032 230.908 233.296Z" fill="#EBEBEB"/>
<path d="M242.348 141.396C242.085 141.257 241.87 141.654 242.114 141.798C242.366 141.929 242.573 142.133 242.709 142.382C242.846 142.632 242.905 142.916 242.879 143.199C242.855 143.496 243.319 143.496 243.358 143.199C243.385 142.833 243.303 142.467 243.124 142.146C242.944 141.825 242.675 141.564 242.348 141.396Z" fill="#EBEBEB"/>
<path d="M243.707 140.644C243.563 140.381 243.161 140.616 243.305 140.879C243.631 141.488 243.783 142.175 243.745 142.864C243.745 143.161 244.19 143.161 244.224 142.864C244.258 142.091 244.079 141.323 243.707 140.644Z" fill="#EBEBEB"/>
<path d="M244.783 140.956C244.528 141.404 244.424 141.922 244.487 142.434C244.52 142.726 244.965 142.731 244.965 142.434C244.905 142.005 244.986 141.569 245.195 141.19C245.329 140.917 244.927 140.692 244.783 140.956Z" fill="#EBEBEB"/>
<path d="M171.907 183.415C171.96 183.393 172.019 183.39 172.073 183.408C172.128 183.426 172.173 183.463 172.202 183.513C172.231 183.562 172.241 183.62 172.23 183.676C172.219 183.732 172.187 183.782 172.142 183.817C171.839 183.992 171.591 184.249 171.426 184.557C171.261 184.866 171.186 185.214 171.209 185.564C171.209 185.865 170.759 185.86 170.73 185.564C170.709 185.132 170.808 184.702 171.015 184.323C171.223 183.944 171.532 183.63 171.907 183.415Z" fill="#EBEBEB"/>
<path d="M170.209 184.525L170.367 185.458C170.419 185.75 169.97 185.879 169.922 185.583C169.874 185.286 169.812 184.961 169.759 184.626C169.707 184.291 170.156 184.233 170.209 184.525Z" fill="#EBEBEB"/>
<path d="M64.0361 168.113C63.9835 168.091 63.9246 168.088 63.8703 168.106C63.8161 168.124 63.7702 168.161 63.7414 168.211C63.7126 168.26 63.7028 168.318 63.7139 168.374C63.725 168.43 63.7562 168.481 63.8016 168.515C64.1094 168.687 64.3625 168.942 64.5318 169.251C64.7011 169.559 64.7797 169.91 64.7586 170.262C64.7586 170.558 65.2083 170.558 65.2371 170.262C65.2562 169.827 65.154 169.396 64.9419 169.017C64.7298 168.637 64.4161 168.324 64.0361 168.113Z" fill="#EBEBEB"/>
<path d="M65.7349 169.223L65.577 170.156C65.5244 170.448 65.9742 170.573 66.022 170.281C66.0699 169.989 66.1273 169.659 66.1847 169.348C66.2421 169.037 65.7923 168.927 65.7349 169.223Z" fill="#EBEBEB"/>
<path d="M81.1034 143.147C80.8785 142.96 80.5483 143.286 80.778 143.477C81.0467 143.693 81.2595 143.971 81.3986 144.287C81.5376 144.602 81.5988 144.946 81.5771 145.291C81.5771 145.592 82.0268 145.592 82.0555 145.291C82.0764 144.884 82.0011 144.477 81.8356 144.105C81.6702 143.733 81.4193 143.404 81.1034 143.147Z" fill="#EBEBEB"/>
<path d="M134.386 189.444C134.156 189.257 133.826 189.583 134.056 189.774C134.326 189.99 134.54 190.268 134.68 190.585C134.82 190.901 134.882 191.247 134.86 191.592C134.86 191.889 135.309 191.889 135.338 191.592C135.359 191.185 135.283 190.778 135.118 190.405C134.952 190.032 134.702 189.703 134.386 189.444Z" fill="#EBEBEB"/>
<path d="M204.439 154.357C204.668 154.166 204.999 154.496 204.769 154.683C204.499 154.899 204.285 155.177 204.145 155.494C204.005 155.81 203.944 156.156 203.965 156.501C203.965 156.802 203.515 156.798 203.487 156.501C203.465 156.094 203.539 155.687 203.705 155.315C203.87 154.942 204.122 154.614 204.439 154.357Z" fill="#EBEBEB"/>
<path d="M197.687 222.582C197.912 222.391 198.242 222.721 198.013 222.908C197.744 223.125 197.532 223.404 197.393 223.72C197.254 224.036 197.192 224.381 197.214 224.726C197.214 225.027 196.764 225.023 196.735 224.726C196.713 224.319 196.788 223.912 196.953 223.54C197.119 223.167 197.371 222.839 197.687 222.582Z" fill="#EBEBEB"/>
<path d="M70.2993 202.702C70.529 202.511 70.8591 202.841 70.6295 203.032C70.3593 203.247 70.1451 203.525 70.0052 203.84C69.8652 204.156 69.8036 204.501 69.8256 204.846C69.8256 205.147 69.3759 205.142 69.3472 204.846C69.3263 204.439 69.4016 204.033 69.567 203.66C69.7325 203.288 69.9833 202.96 70.2993 202.702Z" fill="#EBEBEB"/>
<path d="M187.252 146.18C186.938 146.498 186.707 146.888 186.578 147.316C186.45 147.744 186.428 148.197 186.515 148.635C186.568 148.927 186.994 148.802 186.96 148.511C186.894 148.152 186.916 147.783 187.023 147.435C187.131 147.086 187.321 146.769 187.578 146.511C187.803 146.31 187.458 145.979 187.252 146.18Z" fill="#EBEBEB"/>
<path d="M185.558 146.448V148.003C185.558 148.067 185.583 148.128 185.628 148.172C185.673 148.217 185.734 148.243 185.797 148.243C185.861 148.243 185.922 148.217 185.967 148.172C186.011 148.128 186.037 148.067 186.037 148.003V146.448C186.037 146.385 186.011 146.324 185.967 146.279C185.922 146.234 185.861 146.209 185.797 146.209C185.734 146.209 185.673 146.234 185.628 146.279C185.583 146.324 185.558 146.385 185.558 146.448Z" fill="#EBEBEB"/>
<path d="M188.041 146.936C187.832 147.072 187.661 147.259 187.546 147.481C187.431 147.702 187.376 147.95 187.386 148.199C187.386 148.496 187.864 148.501 187.864 148.199C187.853 148.031 187.887 147.863 187.961 147.711C188.036 147.56 188.15 147.431 188.29 147.338C188.525 147.176 188.281 146.774 188.041 146.936Z" fill="#EBEBEB"/>
<path d="M151.171 178.238C150.858 178.557 150.628 178.947 150.5 179.375C150.371 179.802 150.349 180.255 150.434 180.693C150.487 180.985 150.912 180.86 150.879 180.568C150.814 180.21 150.836 179.84 150.945 179.492C151.053 179.144 151.244 178.827 151.501 178.568C151.707 178.367 151.381 178.037 151.171 178.238Z" fill="#EBEBEB"/>
<path d="M149.481 178.506V180.061C149.481 180.124 149.507 180.185 149.552 180.23C149.596 180.275 149.657 180.3 149.721 180.3C149.784 180.3 149.845 180.275 149.89 180.23C149.935 180.185 149.96 180.124 149.96 180.061V178.506C149.96 178.442 149.935 178.382 149.89 178.337C149.845 178.292 149.784 178.267 149.721 178.267C149.657 178.267 149.596 178.292 149.552 178.337C149.507 178.382 149.481 178.442 149.481 178.506Z" fill="#EBEBEB"/>
<path d="M151.96 178.999C151.751 179.134 151.581 179.321 151.466 179.541C151.351 179.762 151.296 180.009 151.305 180.257C151.305 180.554 151.783 180.559 151.783 180.257C151.772 180.089 151.805 179.92 151.88 179.769C151.955 179.618 152.068 179.489 152.209 179.396C152.443 179.233 152.214 178.831 151.96 178.999Z" fill="#EBEBEB"/>
<path d="M251.754 182.826C251.754 194.707 233.467 203.544 208.51 212.893C151.29 234.324 169.276 248.846 173.883 251.922H27.9927C50.5909 226.085 95.6198 211.53 125.653 203.946C160.046 195.262 192.233 186.63 192.233 182.233C192.233 176.716 170.601 173.08 142.85 168.731C115.749 164.487 102.964 158.305 102.964 151.587C102.964 145.008 125.792 140.242 144.146 138.128C161.022 136.185 216.735 132.663 216.735 129.472C216.735 126.879 187.012 123.673 178.242 122.73C166.496 121.462 159.615 119.893 159.615 117.238C159.615 116.706 160.046 116.218 160.764 115.802H163.156C163.156 115.802 162.362 116.429 162.362 117.013C162.362 118.869 175.984 119.883 180.515 120.19C194.089 121.147 235.405 125.276 235.405 130.874C235.405 134.056 227.467 136.405 219.022 137.931C204.041 140.635 163.797 144.041 155.74 145.108C146.869 146.295 134.4 148.367 134.4 150.62C134.4 152.726 145.907 154.544 158.558 155.96C180.06 158.367 251.754 164.434 251.754 182.826Z" fill="#0010F7"/>
<g opacity="0.7">
<path d="M251.754 182.826C251.754 194.707 233.467 203.544 208.51 212.893C151.29 234.324 169.276 248.846 173.883 251.922H27.9927C50.5909 226.085 95.6198 211.53 125.653 203.946C160.046 195.262 192.233 186.63 192.233 182.233C192.233 176.716 170.601 173.08 142.85 168.731C115.749 164.487 102.964 158.305 102.964 151.587C102.964 145.008 125.792 140.242 144.146 138.128C161.022 136.185 216.735 132.663 216.735 129.472C216.735 126.879 187.012 123.673 178.242 122.73C166.496 121.462 159.615 119.893 159.615 117.238C159.615 116.706 160.046 116.218 160.764 115.802H163.156C163.156 115.802 162.362 116.429 162.362 117.013C162.362 118.869 175.984 119.883 180.515 120.19C194.089 121.147 235.405 125.276 235.405 130.874C235.405 134.056 227.467 136.405 219.022 137.931C204.041 140.635 163.797 144.041 155.74 145.108C146.869 146.295 134.4 148.367 134.4 150.62C134.4 152.726 145.907 154.544 158.558 155.96C180.06 158.367 251.754 164.434 251.754 182.826Z" fill="white"/>
</g>
<path d="M46.3521 115.587C111.223 115.295 183.999 115.295 248.87 115.587C183.999 115.884 111.223 115.884 46.3521 115.587Z" fill="#263238"/>
<path d="M246.592 115.587C246.592 115.587 224.329 93.3378 219.798 91.3426C216.338 89.821 206.616 77.1272 199.568 68.2611C198.716 67.1894 195.467 68.0697 194.688 67.0745C192.051 63.7252 189.903 60.9166 188.812 59.4812C186.563 56.5434 173.601 57.8975 171.482 59.4812C170.396 60.2898 162.702 72.2611 157.807 77.9358C156.233 79.7588 145.903 80.9263 141.659 81.8593C137.563 82.7636 126.558 99.9837 123.376 101.233C105.778 108.146 101.429 114.328 97.9312 115.587H246.592Z" fill="#0010F7"/>
<path opacity="0.4" d="M246.592 115.587C246.592 115.587 224.329 93.3378 219.798 91.3426C216.338 89.821 206.616 77.1272 199.568 68.2611C198.716 67.1894 195.467 68.0697 194.688 67.0745C192.051 63.7252 189.903 60.9166 188.812 59.4812C186.563 56.5434 173.601 57.8975 171.482 59.4812C170.396 60.2898 162.702 72.2611 157.807 77.9358C156.233 79.7588 145.903 80.9263 141.659 81.8593C137.563 82.7636 126.558 99.9837 123.376 101.233C105.778 108.146 101.429 114.328 97.9312 115.587H246.592Z" fill="#B4D2FF"/>
<path opacity="0.1" d="M246.582 115.582H158.022C163.371 112.63 174.768 106.242 175.768 104.869C177.079 103.075 178.778 90.0795 179.261 88.357C179.745 86.6345 188.831 76.3378 189.194 74.4813C189.558 72.6248 188.07 59.1224 188.041 58.8449C188.076 58.8594 188.108 58.8787 188.137 58.9023C188.176 58.9217 188.213 58.9458 188.247 58.9741L188.352 59.0506L188.443 59.1224C188.479 59.1502 188.512 59.1805 188.544 59.2133L188.582 59.2468C188.61 59.2715 188.635 59.2988 188.658 59.3281C188.677 59.3445 188.695 59.362 188.711 59.3808L188.783 59.4717L188.946 59.6822L189.123 59.9119L189.309 60.1559L189.51 60.419C190.706 61.9741 192.515 64.3329 194.658 67.065C194.685 67.103 194.718 67.1368 194.754 67.1655C194.785 67.1954 194.819 67.2227 194.855 67.2468C194.9 67.2794 194.948 67.3082 194.998 67.333L195.118 67.3808C195.118 67.3808 195.41 73.8928 195.347 74.4717C195.285 75.0507 192.668 79.1847 192.51 80.0794C192.352 80.9742 192.745 84.4335 192.51 85.1751C192.367 85.601 189.749 90.1273 189.065 91.2374C188.874 91.534 190.946 91.3378 191.003 91.3378C191.261 91.3378 193.706 87.3139 194.175 87.0316C194.644 86.7493 195.036 81.3378 195.367 80.9263C195.697 80.5148 198.879 76.0411 199.295 75.5483C199.711 75.0555 199.558 68.2612 199.558 68.2612C200.879 69.9215 202.295 71.7157 203.745 73.5531L204.84 74.9311L205.204 75.4095C205.539 75.8354 205.874 76.2564 206.214 76.6775C206.692 77.2517 207.132 77.8258 207.592 78.3904L208.281 79.2421C208.505 79.5244 208.735 79.8019 208.96 80.0794L209.635 80.9072C210.534 82.0029 211.419 83.0555 212.266 84.0507L212.903 84.7828C214.51 86.644 215.993 88.2469 217.238 89.424C217.443 89.6153 217.639 89.7972 217.831 89.9646L218.214 90.2948L218.438 90.4766C218.659 90.6536 218.869 90.8115 219.065 90.9551C219.065 90.9551 211.257 95.7733 210.104 97.1417C208.95 98.5101 206.147 107.19 205.242 108.147C204.338 109.103 198.328 113.127 198.587 113.453C198.845 113.778 209.917 111.836 211.166 109.965C212.415 108.094 215.099 100.998 216.338 100.036C217.295 99.2996 221.793 96.0843 224.238 94.5627C234.692 103.472 246.137 115.261 246.582 115.582Z" fill="#B4D2FF"/>
<path opacity="0.1" d="M162.137 93.7683C161.792 93.9836 155.438 92.553 155.07 92.4573C154.701 92.3616 152.625 88.0314 152.223 88.108C151.821 88.1845 146.577 86.9118 145.869 86.3568C145.161 85.8018 143.333 81.6104 143.333 81.6104L145.06 81.2228C148.984 80.5577 154.079 79.7587 156.544 78.7156C156.678 79.6199 157.314 84.0314 157.194 84.7252C157.06 85.4955 156.022 87.285 156.333 87.8544C156.644 88.4238 162.481 93.5482 162.137 93.7683Z" fill="#B4D2FF"/>
<path d="M162.955 115.582C162.955 115.582 131.615 109.094 127.639 108.247C125.113 107.706 113.419 98.8355 105.438 93.735C104.821 93.3427 101.744 93.692 101.371 93.5388C98.1558 92.2278 95.6917 89.9025 93.7156 89.9025C91.5625 89.9025 75.0552 104.515 73.3423 105.74C71.6294 106.965 62.3375 111.405 59.4667 111.855C56.5958 112.304 48.6484 115.582 48.6484 115.582H162.955Z" fill="#0010F7"/>
<path opacity="0.2" d="M162.955 115.582C162.955 115.582 131.615 109.094 127.639 108.247C125.113 107.706 113.419 98.8355 105.438 93.735C104.821 93.3427 101.744 93.692 101.371 93.5388C98.1558 92.2278 95.6917 89.9025 93.7156 89.9025C91.5625 89.9025 75.0552 104.515 73.3423 105.74C71.6294 106.965 62.3375 111.405 59.4667 111.855C56.5958 112.304 48.6484 115.582 48.6484 115.582H162.955Z" fill="#B4D2FF"/>
<path opacity="0.1" d="M96.2179 106.189C95.8208 105.984 95.6916 103.591 95.5672 103.161C95.4428 102.73 89.8255 98.9406 89.7729 98.376C89.7203 97.8114 93.7155 89.8832 93.7155 89.8832C91.5624 89.8832 75.0551 104.496 73.3422 105.721C73.2322 105.797 73.0982 105.888 72.9355 105.989L72.6676 106.146C72.3374 106.343 71.9355 106.563 71.4714 106.807L71.0647 107.022L70.4044 107.362L69.9259 107.596L69.1939 107.955L68.6819 108.204C68.1652 108.448 67.6341 108.682 67.0886 108.945C65.1029 109.859 63.0264 110.735 61.4187 111.29L60.9929 111.429C60.8589 111.477 60.7249 111.515 60.5958 111.553C60.4666 111.591 60.2178 111.663 60.0455 111.706L59.7249 111.783L59.4379 111.835C59.256 111.864 59.0599 111.902 58.8398 111.95L58.5048 112.032L58.146 112.127L57.7632 112.233L57.3661 112.347L56.5335 112.606L55.6531 112.898L54.9737 113.132L54.7488 113.213L54.2943 113.376L54.0694 113.457L53.5909 113.62C50.9689 114.577 48.5957 115.563 48.5957 115.563H117.318C110.405 112.553 96.5098 106.338 96.2179 106.189ZM80.5097 105.467C80.2848 105.424 78.7872 104.137 78.5958 104.094C78.4044 104.051 77.9355 103.036 78.0504 102.988C78.1652 102.941 78.8542 102.735 78.9642 102.721C79.0743 102.706 79.682 103.338 79.792 103.338C80.5906 103.323 81.3894 103.355 82.1844 103.433C82.3853 103.529 83.9738 105.309 83.9116 105.467C83.8494 105.625 80.7298 105.51 80.5097 105.467Z" fill="#B4D2FF"/>
<path d="M186.137 38.3377C185.85 35.4286 183.845 32.5291 180.314 32.5291C176.783 32.5291 174.788 35.4286 174.496 38.3377C174.051 42.8353 177.084 46.9023 180.314 50.6201C183.553 46.9023 186.587 42.8306 186.137 38.3377ZM180.314 41.5722C179.682 41.5741 179.064 41.3885 178.538 41.039C178.012 40.6895 177.602 40.1917 177.359 39.6087C177.116 39.0257 177.051 38.3838 177.173 37.7641C177.295 37.1444 177.598 36.5748 178.044 36.1275C178.49 35.6802 179.059 35.3753 179.678 35.2514C180.298 35.1275 180.94 35.1901 181.523 35.4314C182.107 35.6727 182.606 36.0817 182.957 36.6067C183.308 37.1318 183.496 37.7492 183.496 38.3808C183.496 38.7993 183.415 39.2138 183.255 39.6006C183.095 39.9875 182.861 40.3391 182.566 40.6355C182.27 40.9318 181.919 41.1671 181.533 41.3278C181.147 41.4885 180.732 41.5716 180.314 41.5722Z" fill="#0010F7"/>
<path d="M180.319 36.4429L181.027 37.4525L182.209 37.8161L181.467 38.8066L181.486 40.041L180.319 39.6439L179.151 40.041L179.166 38.8066L178.429 37.8161L179.606 37.4525L180.319 36.4429Z" fill="#0010F7"/>
<path d="M231.343 163.989C231.343 163.989 231.194 163.793 230.907 163.429L231.094 163.281C231.39 163.649 231.534 163.85 231.534 163.85L231.343 163.989Z" fill="#263238"/>
<path d="M229.975 162.314C229.702 161.989 229.381 161.625 229.018 161.223L229.195 161.066C229.554 161.467 229.874 161.836 230.152 162.161L229.975 162.314ZM228.061 160.152L227.037 159.099L227.209 158.932C227.563 159.3 227.898 159.649 228.209 159.984L228.061 160.152ZM226.051 158.075C225.721 157.75 225.377 157.41 225.018 157.066L225.18 156.893C225.544 157.238 225.889 157.577 226.219 157.903L226.051 158.075ZM223.965 156.07C223.621 155.754 223.267 155.429 222.898 155.113L223.056 154.936C223.424 155.266 223.783 155.592 224.128 155.893L223.965 156.07ZM221.812 154.156C221.458 153.85 221.09 153.534 220.712 153.199L220.865 153.018C221.243 153.333 221.611 153.649 221.97 153.975L221.812 154.156ZM219.597 152.3C219.228 152.003 218.855 151.702 218.468 151.4L218.616 151.214C219.003 151.515 219.377 151.817 219.75 152.113L219.597 152.3ZM217.314 150.487C216.936 150.199 216.549 149.908 216.157 149.62L216.295 149.429C216.692 149.716 217.08 150.008 217.458 150.295L217.314 150.487ZM214.984 148.774C214.592 148.501 214.2 148.223 213.798 147.951L213.932 147.754C214.334 148.027 214.731 148.305 215.118 148.582L214.984 148.774ZM212.592 147.142C212.195 146.879 211.793 146.616 211.381 146.357L211.511 146.152C211.922 146.415 212.329 146.678 212.726 146.941L212.592 147.142ZM210.157 145.587C209.75 145.338 209.338 145.085 208.922 144.841L209.046 144.635L210.286 145.386L210.157 145.587ZM207.673 144.109L206.415 143.405L206.53 143.195C206.956 143.429 207.377 143.673 207.793 143.903L207.673 144.109ZM205.142 142.716C204.721 142.491 204.295 142.271 203.865 142.051L203.97 141.836C204.405 142.056 204.831 142.281 205.257 142.506L205.142 142.716ZM202.573 141.405C202.142 141.195 201.707 140.984 201.267 140.778L201.372 140.563C201.812 140.769 202.247 140.979 202.678 141.19L202.573 141.405ZM199.956 140.175C199.52 139.979 199.08 139.783 198.635 139.592L198.726 139.372L200.056 139.955L199.956 140.175ZM197.3 139.032C196.86 138.85 196.41 138.673 195.96 138.496L196.051 138.271L197.391 138.812L197.3 139.032ZM194.611 137.979C194.166 137.812 193.711 137.649 193.257 137.501L193.333 137.276C193.812 137.439 194.247 137.601 194.697 137.754L194.611 137.979ZM191.888 137.022C191.439 136.869 190.979 136.721 190.515 136.573L190.587 136.348C191.066 136.491 191.511 136.644 191.965 136.797L191.888 137.022ZM133.553 136.544L133.486 136.314L134.883 135.936L134.946 136.166L133.553 136.544ZM189.137 136.128L187.75 135.726L187.817 135.496C188.295 135.625 188.745 135.764 189.204 135.903L189.137 136.128ZM136.348 135.802L136.285 135.573L137.692 135.228L137.75 135.458L136.348 135.802ZM186.367 135.376C185.888 135.252 185.439 135.132 184.965 135.018L185.022 134.783C185.498 134.898 185.967 135.018 186.429 135.142L186.367 135.376ZM139.161 135.175L139.108 134.946L140.544 134.63L140.596 134.864L139.161 135.175ZM183.558 134.697C183.08 134.587 182.601 134.486 182.147 134.386L182.199 134.152C182.678 134.252 183.156 134.352 183.611 134.463L183.558 134.697ZM141.984 134.563L141.936 134.329L143.372 134.051L143.419 134.286L141.984 134.563ZM180.74 134.085L179.305 133.817L179.348 133.582L180.783 133.85L180.74 134.085ZM144.855 134.018L144.812 133.783L146.247 133.539L146.285 133.774C145.778 133.845 145.3 133.927 144.826 134.013L144.855 134.018ZM177.917 133.577C177.439 133.501 176.96 133.424 176.482 133.357L176.515 133.118L177.951 133.338L177.917 133.577ZM147.706 133.549L147.668 133.314L149.104 133.108L149.137 133.348C148.63 133.405 148.156 133.477 147.678 133.544L147.706 133.549ZM150.577 133.161L150.549 132.922C151.027 132.864 151.506 132.807 151.984 132.759L152.008 132.994L150.577 133.161ZM175.07 133.161C174.592 133.099 174.113 133.037 173.635 132.984L173.664 132.745L175.099 132.922L175.07 133.161ZM153.448 132.845V132.611L154.884 132.482V132.721L153.448 132.845ZM172.199 132.845C171.721 132.802 171.242 132.754 170.764 132.716L170.788 132.477L172.223 132.606L172.199 132.845ZM156.329 132.63V132.391L157.764 132.305V132.539L156.329 132.63ZM169.319 132.63C168.841 132.596 168.362 132.568 167.884 132.544V132.305C168.362 132.329 168.841 132.357 169.319 132.391V132.63ZM159.214 132.496V132.257L160.649 132.209V132.448L159.214 132.496ZM166.439 132.496C165.96 132.496 165.482 132.467 165.003 132.458V132.219C165.482 132.219 165.96 132.219 166.439 132.257V132.496ZM162.104 132.439V132.199H163.539V132.439H162.104Z" fill="#263238"/>
<path d="M130.807 137.367L131.376 136.955C131.376 136.955 131.572 136.812 131.969 136.549L132.094 136.74L132.161 136.97L131.467 137.171L130.807 137.367Z" fill="#263238"/>
<path d="M133.324 135.965L133.194 135.759C133.558 135.534 133.974 135.281 134.443 135.003L134.568 135.209C134.099 135.486 133.682 135.74 133.324 135.965ZM135.831 134.482L135.711 134.271C136.11 134.045 136.536 133.81 136.989 133.568L137.103 133.778C136.654 134.022 136.228 134.257 135.831 134.482ZM138.391 133.094L138.28 132.884C138.692 132.663 139.127 132.443 139.577 132.219L139.687 132.434C139.237 132.659 138.802 132.879 138.391 133.094ZM140.993 131.793L140.888 131.577C141.314 131.372 141.754 131.161 142.209 130.955L142.309 131.171L140.993 131.793ZM143.635 130.568L143.539 130.348L144.874 129.764L144.97 129.984L143.635 130.568ZM146.309 129.419L146.218 129.199C146.663 129.018 147.113 128.831 147.572 128.649L147.659 128.874L146.309 129.419ZM149.017 128.343L148.931 128.118L150.3 127.606L150.381 127.831C149.917 127.998 149.462 128.171 149.017 128.343ZM151.749 127.338L151.668 127.113C152.123 126.951 152.582 126.793 153.051 126.635L153.127 126.864L151.749 127.338ZM154.505 126.381L154.434 126.151L155.826 125.711L155.893 125.941C155.424 126.108 154.965 126.257 154.505 126.405V126.381ZM157.29 125.515L157.218 125.285L158.62 124.879L158.687 125.113C158.214 125.266 157.749 125.405 157.29 125.539V125.515ZM160.089 124.721L160.027 124.491L161.438 124.118L161.496 124.352L160.089 124.721ZM162.907 123.998L162.85 123.764L164.285 123.429L164.338 123.663L162.907 123.998ZM165.745 123.343L165.692 123.108L167.127 122.807L167.175 123.041C166.692 123.161 166.214 123.262 165.745 123.367V123.343ZM168.616 122.754L168.572 122.52L170.008 122.252L170.051 122.491L168.616 122.754ZM216.367 122.754L214.932 122.501L214.97 122.262L216.405 122.52L216.367 122.754ZM213.496 122.276L212.061 122.051L212.094 121.817L213.53 122.041L213.496 122.276ZM171.477 122.276L171.439 122.041L172.874 121.807L172.912 122.041L171.477 122.276ZM210.62 121.86L209.185 121.668L209.219 121.429L210.654 121.625L210.62 121.86ZM174.352 121.826L174.319 121.592C174.797 121.52 175.276 121.453 175.754 121.391L175.788 121.63L174.352 121.826ZM207.731 121.486L206.295 121.324L206.324 121.084L207.759 121.247L207.731 121.486ZM177.238 121.448L177.209 121.209C177.687 121.151 178.166 121.094 178.644 121.046L178.673 121.281L177.238 121.448ZM204.841 121.175L203.405 121.041V120.802L204.841 120.936V121.175ZM180.132 121.132L180.108 120.898L181.544 120.764V121.003L180.132 121.132ZM201.941 120.927L200.506 120.826V120.587C200.984 120.616 201.463 120.649 201.941 120.687V120.927ZM183.018 120.874V120.635L184.453 120.539V120.778L183.018 120.874ZM199.018 120.726L197.582 120.659V120.419L199.018 120.486V120.726ZM185.927 120.697V120.458L187.386 120.395V120.635L185.927 120.697ZM196.113 120.606L194.654 120.568V120.343L196.113 120.381V120.606ZM188.836 120.606V120.343L190.271 120.314V120.553L188.836 120.606ZM193.199 120.568H191.764V120.329H193.223L193.199 120.568Z" fill="#263238"/>
<path d="M218.95 123.281L218.472 123.19L217.769 123.051L217.812 122.817L218.027 122.855L217.859 122.731L217.998 122.539C218.371 122.812 218.563 122.975 218.572 122.979L218.95 123.281Z" fill="#263238"/>
<path d="M216.726 121.922C216.348 121.668 215.946 121.415 215.539 121.161L215.664 120.96C216.075 121.214 216.477 121.467 216.86 121.726L216.726 121.922ZM214.333 120.448C213.931 120.219 213.515 119.97 213.099 119.769L213.209 119.558C213.63 119.778 214.046 120.008 214.453 120.238L214.333 120.448ZM211.841 119.128C211.419 118.922 210.989 118.721 210.568 118.53L210.664 118.31C211.094 118.506 211.525 118.707 211.946 118.912L211.841 119.128ZM209.266 117.951C208.841 117.774 208.405 117.597 207.955 117.42L208.041 117.199C208.496 117.372 208.931 117.549 209.357 117.731L209.266 117.951ZM169.304 117.4L169.223 117.176C169.673 117.018 170.123 116.869 170.568 116.726L170.639 116.951L169.304 117.4ZM206.625 116.922C206.19 116.769 205.745 116.616 205.29 116.443L205.362 116.214C205.841 116.362 206.271 116.515 206.707 116.692L206.625 116.922ZM171.974 116.525L171.907 116.295C172.362 116.156 172.816 116.027 173.266 115.903L173.333 116.132C172.893 116.281 172.438 116.41 171.984 116.549L171.974 116.525ZM203.946 116.046C203.501 115.917 203.046 115.788 202.587 115.668L202.649 115.434C203.128 115.558 203.568 115.687 204.013 115.817L203.946 116.046ZM174.692 115.764L174.635 115.53L176.013 115.199L176.065 115.429C175.62 115.558 175.161 115.673 174.702 115.793L174.692 115.764ZM201.218 115.324C200.769 115.219 200.309 115.113 199.84 115.018L199.893 114.783L201.276 115.089L201.218 115.324ZM177.443 115.132L177.395 114.898L178.783 114.625L178.826 114.86L177.443 115.132ZM198.458 114.75C197.979 114.668 197.539 114.592 197.07 114.52L197.104 114.286C197.582 114.357 198.061 114.434 198.501 114.515L198.458 114.75ZM180.218 114.625L180.18 114.386L181.582 114.185L181.611 114.42C181.161 114.51 180.697 114.601 180.228 114.654L180.218 114.625ZM195.673 114.329C195.195 114.271 194.745 114.219 194.271 114.171V113.936C194.75 113.979 195.228 114.032 195.678 114.089L195.673 114.329ZM183.017 114.281L182.989 114.042C183.467 113.989 183.946 113.946 184.4 113.908V114.147C183.974 114.185 183.496 114.228 183.017 114.281ZM192.869 114.085C192.391 114.051 191.912 114.022 191.462 114.003V113.764C191.941 113.764 192.419 113.812 192.898 113.845L192.869 114.085ZM185.826 114.046V113.807C186.305 113.778 186.783 113.754 187.261 113.74V113.979C186.773 113.994 186.305 114.018 185.831 114.046H185.826ZM190.056 113.955C189.726 113.955 189.395 113.955 189.065 113.955H188.644V113.716H190.08L190.056 113.955Z" fill="#263238"/>
<path d="M167.194 118.185L167.147 118.084C167.147 118.084 167.041 117.859 166.816 117.458L167.027 117.343C167.166 117.596 167.261 117.778 167.314 117.883L167.883 117.668L167.97 117.893L167.3 118.147L167.194 118.185Z" fill="#263238"/>
<path d="M166.094 116.233C165.85 115.841 165.587 115.439 165.309 115.037L165.505 114.903C165.788 115.309 166.051 115.711 166.295 116.104L166.094 116.233ZM164.481 113.869C164.204 113.491 163.912 113.109 163.615 112.731L163.802 112.587C164.099 112.96 164.395 113.348 164.673 113.731L164.481 113.869ZM162.711 111.625C162.405 111.257 162.094 110.893 161.778 110.544L161.955 110.381C162.271 110.735 162.587 111.104 162.912 111.472L162.711 111.625ZM160.797 109.486C160.472 109.142 160.137 108.797 159.802 108.463L159.974 108.295C160.309 108.63 160.644 108.975 160.974 109.324L160.797 109.486ZM158.783 107.463C158.443 107.142 158.094 106.817 157.73 106.506L157.893 106.329C158.256 106.659 158.606 106.984 158.945 107.286L158.783 107.463ZM156.658 105.549C156.299 105.247 155.936 104.941 155.558 104.635L155.711 104.448C156.089 104.754 156.453 105.065 156.811 105.367L156.658 105.549ZM154.438 103.75C154.065 103.463 153.687 103.175 153.295 102.888L153.438 102.697C153.831 102.984 154.213 103.271 154.582 103.558L154.438 103.75ZM152.132 102.061C151.744 101.793 151.352 101.525 150.95 101.257L151.079 101.056C151.486 101.324 151.883 101.592 152.271 101.864L152.132 102.061ZM149.74 100.482C149.338 100.233 148.931 100.003 148.52 99.74L148.639 99.5343C149.055 99.7783 149.462 100.013 149.864 100.281L149.74 100.482ZM147.28 99.0223C146.874 98.7879 146.453 98.5439 146.031 98.3333L146.141 98.1228C146.567 98.3477 146.988 98.6013 147.4 98.8118L147.28 99.0223ZM144.764 97.673C144.342 97.4577 143.917 97.2472 143.481 97.0367L143.582 96.8214C144.022 97.0319 144.448 97.2424 144.869 97.4577L144.764 97.673ZM142.208 96.4195C141.778 96.2249 141.342 96.0335 140.902 95.8453L140.998 95.6252C141.438 95.8118 141.878 96.008 142.309 96.2041L142.208 96.4195ZM139.582 95.295C139.146 95.118 138.701 94.941 138.252 94.7687L138.338 94.5486C138.787 94.7209 139.232 94.8931 139.673 95.0702L139.582 95.295ZM136.912 94.2759C136.467 94.118 136.017 93.9601 135.558 93.7974L135.634 93.5726C136.113 93.7257 136.543 93.8836 136.993 94.051L136.912 94.2759ZM134.199 93.3668L132.835 92.9458L132.902 92.7209C133.381 92.8548 133.821 92.9936 134.271 93.1371L134.199 93.3668ZM131.457 92.5917C130.979 92.4673 130.543 92.3429 130.074 92.2233L130.137 91.9936C130.615 92.1132 131.065 92.2328 131.519 92.362L131.457 92.5917ZM128.687 91.8836C128.228 91.7751 127.763 91.6698 127.295 91.5678L127.342 91.3333C127.821 91.4338 128.299 91.5391 128.744 91.6491L128.687 91.8836ZM125.893 91.2759C125.414 91.1802 124.964 91.0893 124.491 91.0032L124.534 90.7687C125.006 90.8548 125.475 90.9457 125.94 91.0414L125.893 91.2759ZM123.079 90.7591L121.668 90.5343L121.706 90.2998C122.184 90.3716 122.663 90.4433 123.117 90.5247L123.079 90.7591ZM120.251 90.3333C119.773 90.2711 119.295 90.2089 118.816 90.1563L118.845 89.917C119.323 89.9745 119.802 90.0319 120.28 90.0989L120.251 90.3333ZM117.414 89.9936L115.979 89.8596L116.003 89.6204L117.438 89.7591L117.414 89.9936ZM95.9834 89.8883V89.6491L97.4188 89.539V89.7783L95.9834 89.8883ZM114.562 89.74L113.127 89.6443V89.4051L114.562 89.5008V89.74ZM98.8399 89.6826V89.4433L100.275 89.362V89.6012L98.8399 89.6826ZM111.711 89.5677C111.232 89.5677 110.754 89.5247 110.275 89.5103V89.2711C110.754 89.2711 111.232 89.3046 111.711 89.3285V89.5677ZM101.677 89.5199V89.2807L103.113 89.2328V89.4721L101.677 89.5199ZM108.854 89.4529C108.376 89.4529 107.897 89.4529 107.419 89.429V89.1898C107.897 89.1898 108.376 89.1898 108.854 89.2137V89.4529ZM104.548 89.4529V89.2137H105.983V89.4529H104.548Z" fill="#263238"/>
<path d="M93.5815 90.089L93.7155 89.8832C93.7155 89.8832 93.8495 89.6727 94.1222 89.2899L94.3184 89.4239C94.2083 89.5818 94.1222 89.711 94.0552 89.8019L94.5337 89.7588L94.5576 89.9981L93.8447 90.0651L93.5815 90.089Z" fill="#263238"/>
<path d="M95.1557 88.2853L94.9644 88.1418C95.2179 87.8069 95.5098 87.4289 95.8447 87.0126L96.0313 87.1609C95.7012 87.5724 95.4093 87.9456 95.1557 88.2853ZM96.9357 86.0604L96.7491 85.9073C97.0409 85.5628 97.3519 85.204 97.706 84.826L97.8878 84.9839C97.5337 85.3523 97.2227 85.7159 96.9357 86.0556V86.0604ZM98.8113 83.9217L98.6342 83.759L99.5912 82.7159L99.7634 82.8834C99.4428 83.2327 99.1223 83.582 98.8065 83.9169L98.8113 83.9217ZM100.773 81.8595L100.601 81.692C100.926 81.3619 101.266 81.0269 101.615 80.6872L101.783 80.8547C101.433 81.1896 101.098 81.5245 100.773 81.8547V81.8595ZM102.811 79.8738L102.634 79.6728C102.974 79.3523 103.323 79.0317 103.682 78.7159L103.845 78.8929C103.495 79.2279 103.146 79.5484 102.811 79.869V79.8738ZM104.917 77.9599L104.759 77.7781C105.108 77.4719 105.472 77.1609 105.84 76.8451L105.993 77.0317C105.625 77.3379 105.266 77.6441 104.917 77.9551V77.9599ZM107.089 76.1178L106.936 75.936C107.299 75.6393 107.668 75.3379 108.046 75.0413L108.194 75.2279L107.089 76.1178ZM109.318 74.357L109.175 74.1657C109.548 73.8834 109.931 73.5963 110.318 73.314L110.457 73.5054L109.318 74.357ZM111.615 72.6728L111.476 72.4766C111.859 72.2039 112.247 71.9312 112.644 71.6632L112.783 71.8594C112.385 72.1274 111.998 72.3953 111.615 72.668V72.6728ZM113.96 71.0652L113.83 70.869C114.223 70.6106 114.62 70.3522 115.027 70.0939L115.156 70.2948C114.749 70.5484 114.352 70.802 113.96 71.0604V71.0652ZM116.352 69.5436L116.228 69.3379C116.63 69.0939 117.036 68.8594 117.452 68.6058L117.572 68.8116C117.183 69.0348 116.779 69.2773 116.362 69.5388L116.352 69.5436ZM118.802 68.1082L118.687 67.9025C119.098 67.668 119.51 67.424 119.931 67.2087L120.046 67.4192C119.639 67.6297 119.223 67.8642 118.811 68.0939L118.802 68.1082ZM121.295 66.7541L121.18 66.5436C121.601 66.3235 122.022 66.1082 122.453 65.8929L122.558 66.1034C122.151 66.2996 121.73 66.5149 121.295 66.7541ZM123.835 65.4766L123.73 65.2613C124.156 65.0603 124.586 64.8546 125.022 64.6584L125.122 64.8737L123.835 65.4766ZM126.419 64.29L126.323 64.0699C126.754 63.8785 127.189 63.6919 127.634 63.5053L127.725 63.7254C127.304 63.8833 126.869 64.0795 126.438 64.2709L126.419 64.29ZM129.041 63.1895L128.95 62.9264C129.39 62.7493 129.831 62.5771 130.28 62.4096L130.366 62.6297C129.936 62.8211 129.496 62.9934 129.06 63.1704L129.041 63.1895ZM131.697 62.1752L131.615 61.9503L132.96 61.4718L133.036 61.7015C132.606 61.8355 132.161 61.9933 131.716 62.156L131.697 62.1752ZM134.386 61.2469L134.314 61.0173L135.673 60.5866L135.74 60.8163C135.304 60.9359 134.854 61.0795 134.405 61.2278L134.386 61.2469ZM137.103 60.4096L137.036 60.1799C137.491 60.046 137.95 59.9168 138.41 59.7924L138.472 60.0221C138.041 60.1273 137.563 60.2565 137.122 60.3905L137.103 60.4096ZM139.845 59.6584L139.788 59.4287C140.266 59.3091 140.706 59.1943 141.17 59.0842L141.228 59.3187L139.845 59.6584ZM142.615 58.9981L142.563 58.7637C143.041 58.6584 143.486 58.5627 143.955 58.4622L144.003 58.6967C143.558 58.778 143.094 58.8737 142.634 58.979L142.615 58.9981ZM145.4 58.424L145.352 58.1895C145.831 58.0986 146.309 58.0125 146.754 57.9311L146.797 58.1656C146.347 58.2326 145.878 58.3139 145.419 58.4048L145.4 58.424ZM148.199 57.9455L148.161 57.7062L149.572 57.4957L149.606 57.7302C149.151 57.7685 148.687 57.8402 148.218 57.9168L148.199 57.9455ZM177.96 57.6728L176.525 57.5053L176.553 57.2661L177.989 57.4383L177.96 57.6728ZM151.017 57.5436L150.984 57.3043C151.462 57.2421 151.941 57.1895 152.419 57.1321L152.448 57.3713C151.974 57.3952 151.5 57.4527 151.036 57.5149L151.017 57.5436ZM175.137 57.3474L173.702 57.2134L173.725 56.9742C174.204 57.0173 174.682 57.0603 175.161 57.1129L175.137 57.3474ZM153.859 57.1847L153.835 56.9455L155.271 56.8211V57.0555L153.859 57.1847ZM172.324 57.0555L170.888 56.9503V56.711L172.324 56.8163V57.0555ZM156.701 56.9598V56.7206C157.18 56.6871 157.658 56.6584 158.137 56.6345V56.8737C157.658 56.8976 157.18 56.9263 156.701 56.9598ZM169.491 56.8785C169.013 56.8498 168.534 56.8306 168.056 56.8115V56.5723C168.534 56.5723 169.013 56.6106 169.491 56.6393V56.8785ZM159.539 56.8067V56.5675C160.017 56.5675 160.496 56.5292 160.974 56.5196V56.7589C160.481 56.7684 160.008 56.7876 159.534 56.8067H159.539ZM166.649 56.7637L165.213 56.7302V56.4909L166.649 56.5244V56.7637ZM162.386 56.7302V56.4909H163.716H163.812V56.7062H163.716L162.386 56.7302Z" fill="#263238"/>
<path d="M180.113 57.936L179.4 57.8355L179.434 57.5963L180.147 57.6968L180.113 57.936Z" fill="#263238"/>
<path d="M231.735 74.5102H231.108V166.223H231.735V74.5102Z" fill="#263238"/>
<path d="M235.19 163.338H227.654L228.434 159.898H234.406L235.19 163.338Z" fill="#263238"/>
<path d="M236.463 166.223H226.377L227.425 161.616H235.415L236.463 166.223Z" fill="#37474F"/>
<path d="M131.644 78.7925H131.242V137.97H131.644V78.7925Z" fill="#263238"/>
<path d="M133.792 136.692H129.099L129.582 134.549H133.304L133.792 136.692Z" fill="#263238"/>
<path d="M134.582 138.486H128.304L128.955 135.62H133.931L134.582 138.486Z" fill="#37474F"/>
<path d="M218.621 92.2087H218.41V123.065H218.621V92.2087Z" fill="#263238"/>
<path d="M219.86 122.864H217.166L217.444 121.63H219.582L219.86 122.864Z" fill="#263238"/>
<path d="M220.319 123.893H216.711L217.085 122.247H219.946L220.319 123.893Z" fill="#37474F"/>
<path d="M167.324 96.9984H167.18V118.271H167.324V96.9984Z" fill="#263238"/>
<path d="M167.994 117.922H166.515L166.668 117.243H167.84L167.994 117.922Z" fill="#263238"/>
<path d="M168.247 118.486H166.266L166.472 117.582H168.041L168.247 118.486Z" fill="#37474F"/>
<path d="M93.8163 84.1849H93.7397V89.9457H93.8163V84.1849Z" fill="#263238"/>
<path d="M180.127 52.0555H180.051V57.8163H180.127V52.0555Z" fill="#263238"/>
<path d="M181.166 54.1558V52.8065C181.161 52.8286 181.161 52.8514 181.166 52.8735C181.172 52.898 181.184 52.9208 181.199 52.9405C181.319 53.0984 181.678 53.2084 182.209 53.2563V54.6056C181.66 54.5513 181.325 54.4461 181.204 54.2898C181.19 54.2685 181.177 54.2461 181.166 54.2228C181.164 54.2005 181.164 54.1781 181.166 54.1558Z" fill="#0010F7"/>
<g opacity="0.1">
<path d="M181.166 54.1558V52.8065C181.161 52.8286 181.161 52.8514 181.166 52.8735C181.172 52.898 181.184 52.9208 181.199 52.9405C181.319 53.0984 181.678 53.2084 182.209 53.2563V54.6056C181.66 54.5513 181.325 54.4461 181.204 54.2898C181.19 54.2685 181.177 54.2461 181.166 54.2228C181.164 54.2005 181.164 54.1781 181.166 54.1558Z" fill="black"/>
</g>
<path d="M181.195 53.9642C181.198 53.996 181.198 54.028 181.195 54.0599C181.19 54.0916 181.19 54.1238 181.195 54.1556V52.8063C181.193 52.7744 181.193 52.7425 181.195 52.7106C181.198 52.6788 181.198 52.6467 181.195 52.6149C181.185 53.0216 181.19 53.5575 181.195 53.9642Z" fill="#0010F7"/>
<g opacity="0.4">
<path d="M181.195 53.9642C181.198 53.996 181.198 54.028 181.195 54.0599C181.19 54.0916 181.19 54.1238 181.195 54.1556V52.8063C181.193 52.7744 181.193 52.7425 181.195 52.7106C181.198 52.6788 181.198 52.6467 181.195 52.6149C181.185 53.0216 181.19 53.5575 181.195 53.9642Z" fill="black"/>
</g>
<path d="M181.185 52.6152V53.9645C181.19 53.9392 181.19 53.9132 181.185 53.8879C181.175 53.8641 181.163 53.8416 181.147 53.8209C181.023 53.6535 180.669 53.5578 180.104 53.5195V52.175C180.683 52.2085 181.023 52.309 181.147 52.4716C181.18 52.5123 181.199 52.5628 181.2 52.6152H181.185Z" fill="#0010F7"/>
<path d="M240.233 91.7256L240.161 80.6825C240.164 80.8714 240.196 81.0586 240.257 81.2376C240.328 81.4346 240.428 81.62 240.553 81.7878C241.51 83.0844 244.295 83.9553 248.802 84.3811L248.869 95.4194C244.362 94.9936 241.597 94.1276 240.625 92.8261C240.495 92.6613 240.395 92.4751 240.329 92.2759C240.266 92.099 240.234 91.9131 240.233 91.7256Z" fill="#0010F7"/>
<g opacity="0.1">
<path d="M240.233 91.7256L240.161 80.6825C240.164 80.8714 240.196 81.0586 240.257 81.2376C240.328 81.4346 240.428 81.62 240.553 81.7878C241.51 83.0844 244.295 83.9553 248.802 84.3811L248.869 95.4194C244.362 94.9936 241.597 94.1276 240.625 92.8261C240.495 92.6613 240.395 92.4751 240.329 92.2759C240.266 92.099 240.234 91.9131 240.233 91.7256Z" fill="black"/>
</g>
<path d="M240.434 90.1513C240.43 90.4227 240.393 90.6926 240.324 90.9551C240.258 91.2069 240.221 91.4654 240.214 91.7255L240.142 80.6824C240.153 80.4225 240.189 80.1644 240.252 79.912C240.32 79.6508 240.359 79.3828 240.367 79.113C240.405 82.424 240.434 86.8498 240.434 90.1513Z" fill="#0010F7"/>
<g opacity="0.4">
<path d="M240.434 90.1513C240.43 90.4227 240.393 90.6926 240.324 90.9551C240.258 91.2069 240.221 91.4654 240.214 91.7255L240.142 80.6824C240.153 80.4225 240.189 80.1644 240.252 79.912C240.32 79.6508 240.359 79.3828 240.367 79.113C240.405 82.424 240.434 86.8498 240.434 90.1513Z" fill="black"/>
</g>
<path d="M240.386 79.113L240.434 90.1514C240.433 89.9357 240.394 89.722 240.319 89.5198C240.245 89.3286 240.145 89.1483 240.022 88.9839C239.008 87.6346 236.195 86.8308 231.472 86.5293L231.4 75.4862C236.128 75.7877 238.941 76.5963 239.951 77.9408C240.077 78.1046 240.177 78.287 240.247 78.4815C240.331 78.6821 240.378 78.896 240.386 79.113Z" fill="#0010F7"/>
<path d="M137.132 89.9025L137.084 82.7781C137.088 82.8985 137.109 83.0178 137.147 83.1321C137.191 83.261 137.256 83.3821 137.338 83.491C137.97 84.3283 139.754 84.8881 142.659 85.1609L142.707 92.2853C139.797 92.0126 138.013 91.448 137.386 90.6154C137.302 90.5077 137.237 90.3863 137.195 90.2566C137.152 90.1435 137.131 90.0234 137.132 89.9025Z" fill="#0010F7"/>
<g opacity="0.1">
<path d="M137.132 89.9025L137.084 82.7781C137.088 82.8985 137.109 83.0178 137.147 83.1321C137.191 83.261 137.256 83.3821 137.338 83.491C137.97 84.3283 139.754 84.8881 142.659 85.1609L142.707 92.2853C139.797 92.0126 138.013 91.448 137.386 90.6154C137.302 90.5077 137.237 90.3863 137.195 90.2566C137.152 90.1435 137.131 90.0234 137.132 89.9025Z" fill="black"/>
</g>
<path d="M137.276 88.8883C137.269 89.0626 137.245 89.2357 137.204 89.4051C137.162 89.5614 137.138 89.7219 137.132 89.8836L137.084 82.7591C137.093 82.5977 137.117 82.4374 137.156 82.2807C137.2 82.1117 137.224 81.9383 137.228 81.7639L137.276 88.8883Z" fill="#0010F7"/>
<g opacity="0.4">
<path d="M137.276 88.8883C137.269 89.0626 137.245 89.2357 137.204 89.4051C137.162 89.5614 137.138 89.7219 137.132 89.8836L137.084 82.7591C137.093 82.5977 137.117 82.4374 137.156 82.2807C137.2 82.1117 137.224 81.9383 137.228 81.7639L137.276 88.8883Z" fill="black"/>
</g>
<path d="M137.228 81.7638L137.276 88.8882C137.272 88.7479 137.246 88.6091 137.199 88.4767C137.151 88.3541 137.086 88.2384 137.008 88.1322C136.352 87.2614 134.539 86.7399 131.491 86.5485L131.443 79.4241C134.496 79.6202 136.309 80.137 136.96 81.0078C137.043 81.1137 137.109 81.2314 137.156 81.3571C137.204 81.4873 137.229 81.625 137.228 81.7638Z" fill="#0010F7"/>
<path d="M221.477 97.9984V94.2854C221.476 94.3488 221.485 94.412 221.506 94.472C221.532 94.538 221.566 94.6007 221.606 94.6586C221.937 95.0941 222.865 95.3859 224.382 95.5295V99.2424C222.865 99.0988 221.932 98.807 221.606 98.3716C221.566 98.3136 221.532 98.251 221.506 98.185C221.488 98.1244 221.478 98.0616 221.477 97.9984Z" fill="#0010F7"/>
<g opacity="0.1">
<path d="M221.477 97.9984V94.2854C221.476 94.3488 221.485 94.412 221.506 94.472C221.532 94.538 221.566 94.6007 221.606 94.6586C221.937 95.0941 222.865 95.3859 224.382 95.5295V99.2424C222.865 99.0988 221.932 98.807 221.606 98.3716C221.566 98.3136 221.532 98.251 221.506 98.185C221.488 98.1244 221.478 98.0616 221.477 97.9984Z" fill="black"/>
</g>
<path d="M221.554 97.472C221.551 97.5624 221.538 97.6522 221.515 97.7399C221.493 97.8244 221.48 97.911 221.477 97.9983V94.2853C221.476 94.1981 221.488 94.1112 221.511 94.027C221.533 93.9378 221.546 93.8463 221.549 93.7542C221.539 94.8691 221.549 96.3571 221.554 97.472Z" fill="#0010F7"/>
<g opacity="0.4">
<path d="M221.554 97.472C221.551 97.5624 221.538 97.6522 221.515 97.7399C221.493 97.8244 221.48 97.911 221.477 97.9983V94.2853C221.476 94.1981 221.488 94.1112 221.511 94.027C221.533 93.9378 221.546 93.8463 221.549 93.7542C221.539 94.8691 221.549 96.3571 221.554 97.472Z" fill="black"/>
</g>
<path d="M221.53 93.7544L221.554 97.4721C221.554 97.3986 221.542 97.3256 221.516 97.2568C221.491 97.1918 221.457 97.1307 221.415 97.075C221.076 96.6252 220.128 96.3525 218.544 96.252L218.521 92.5391C220.109 92.6395 221.056 92.9075 221.391 93.362C221.433 93.4177 221.467 93.4789 221.492 93.5439C221.518 93.611 221.531 93.6824 221.53 93.7544Z" fill="#0010F7"/>
<path d="M169.3 100.989V98.429C169.293 98.4718 169.293 98.5154 169.3 98.5582C169.316 98.605 169.34 98.6487 169.371 98.6874C169.596 98.9888 170.237 99.1658 171.285 99.2855V101.85C170.237 101.75 169.596 101.549 169.371 101.247C169.341 101.208 169.317 101.165 169.3 101.118C169.293 101.075 169.293 101.032 169.3 100.989Z" fill="#0010F7"/>
<g opacity="0.1">
<path d="M169.3 100.989V98.429C169.293 98.4718 169.293 98.5154 169.3 98.5582C169.316 98.605 169.34 98.6487 169.371 98.6874C169.596 98.9888 170.237 99.1658 171.285 99.2855V101.85C170.237 101.75 169.596 101.549 169.371 101.247C169.341 101.208 169.317 101.165 169.3 101.118C169.293 101.075 169.293 101.032 169.3 100.989Z" fill="black"/>
</g>
<path d="M169.353 100.625C169.351 100.688 169.341 100.751 169.324 100.812C169.309 100.87 169.301 100.929 169.3 100.989V98.4289C169.298 98.369 169.306 98.3091 169.324 98.2518C169.331 98.1899 169.331 98.1272 169.324 98.0652C169.338 98.8356 169.348 99.8595 169.353 100.625Z" fill="#0010F7"/>
<g opacity="0.4">
<path d="M169.353 100.625C169.351 100.688 169.341 100.751 169.324 100.812C169.309 100.87 169.301 100.929 169.3 100.989V98.4289C169.298 98.369 169.306 98.3091 169.324 98.2518C169.331 98.1899 169.331 98.1272 169.324 98.0652C169.338 98.8356 169.348 99.8595 169.353 100.625Z" fill="black"/>
</g>
<path d="M169.333 98.0653V100.625C169.332 100.576 169.322 100.527 169.305 100.482C169.289 100.437 169.266 100.395 169.238 100.357C168.998 100.041 168.348 99.8787 167.252 99.7878V97.2232C168.348 97.295 168.998 97.4816 169.233 97.7926C169.26 97.8319 169.284 97.8735 169.305 97.917C169.323 97.9643 169.333 98.0145 169.333 98.0653Z" fill="#0010F7"/>
<path d="M94.8545 86.2854V84.9409C94.8504 84.963 94.8504 84.9857 94.8545 85.0078C94.8617 85.0319 94.873 85.0546 94.8879 85.0748C95.0076 85.2327 95.3664 85.338 95.8975 85.3906V86.7399C95.3473 86.6873 95.0076 86.582 94.8879 86.4241C94.8729 86.4022 94.8616 86.3779 94.8545 86.3524C94.8499 86.3303 94.8499 86.3075 94.8545 86.2854Z" fill="#0010F7"/>
<g opacity="0.1">
<path d="M94.8545 86.2854V84.9409C94.8504 84.963 94.8504 84.9857 94.8545 85.0078C94.8617 85.0319 94.873 85.0546 94.8879 85.0748C95.0076 85.2327 95.3664 85.338 95.8975 85.3906V86.7399C95.3473 86.6873 95.0076 86.582 94.8879 86.4241C94.8729 86.4022 94.8616 86.3779 94.8545 86.3524C94.8499 86.3303 94.8499 86.3075 94.8545 86.2854Z" fill="black"/>
</g>
<path d="M94.883 86.094C94.8853 86.1274 94.8853 86.161 94.883 86.1944C94.8807 86.2247 94.8807 86.2551 94.883 86.2853V84.9408C94.8807 84.909 94.8807 84.877 94.883 84.8451C94.8876 84.8134 94.8876 84.7812 94.883 84.7495C94.8782 85.1514 94.8782 85.692 94.883 86.094Z" fill="#0010F7"/>
<g opacity="0.4">
<path d="M94.883 86.094C94.8853 86.1274 94.8853 86.161 94.883 86.1944C94.8807 86.2247 94.8807 86.2551 94.883 86.2853V84.9408C94.8807 84.909 94.8807 84.877 94.883 84.8451C94.8876 84.8134 94.8876 84.7812 94.883 84.7495C94.8782 85.1514 94.8782 85.692 94.883 86.094Z" fill="black"/>
</g>
<path d="M94.8738 84.7493V86.0938C94.8779 86.0685 94.8779 86.0426 94.8738 86.0172C94.8629 85.9939 94.8501 85.9715 94.8355 85.9503C94.7111 85.7876 94.3571 85.6871 93.7925 85.6536V84.3043C94.3714 84.3426 94.7159 84.4383 94.8355 84.6058C94.8528 84.6252 94.8659 84.648 94.8738 84.6727C94.8784 84.6981 94.8784 84.724 94.8738 84.7493Z" fill="#0010F7"/>
<path d="M99.9597 75.6488C99.7826 86.735 100.438 94.8547 100.969 97.1083C102.333 102.85 106.835 113.95 108.199 116.089C109.084 117.477 120.783 109.965 119.711 108.577C116.62 104.572 111.663 93.5293 111.577 93.3427C110.941 92.0508 108.553 82.6872 105.95 76.156C103.347 69.6249 100.051 70.0125 99.9597 75.6488Z" fill="#D3766A"/>
<path d="M106.912 111.903C107.003 110.29 116.62 106.443 117.888 107.51C119.032 108.467 122.778 110.62 125.994 111.199C128.688 111.678 132.75 112.108 132.539 113.592C132.238 115.721 127.042 115.807 124.056 115.673C124.788 117.108 125.286 118.439 125.29 119.314C125.314 122.214 112.372 123.97 110.525 121.683C108.726 119.458 106.821 113.515 106.912 111.903Z" fill="#D3766A"/>
<path d="M123.037 124.013L120.486 124.352L119.592 120.151L109.156 121.558L110.051 125.759L107.448 126.108L106.08 119.654L121.654 117.558L123.037 124.013Z" fill="#A6A6A6"/>
<path d="M140.688 153.429L100.754 158.803L93.8022 126.018L133.735 120.649L140.688 153.429Z" fill="#0010F7"/>
<path opacity="0.2" d="M140.688 153.429L100.754 158.803L93.8022 126.018L133.735 120.649L140.688 153.429Z" fill="black"/>
<path opacity="0.2" d="M137.515 138.458L97.8022 144.889L93.7974 126.022L133.735 120.649L137.515 138.458Z" fill="black"/>
<path d="M100.754 158.802L98.1275 158.2L95.7543 159.472L93.7974 126.018L100.754 158.802Z" fill="#0010F7"/>
<path opacity="0.3" d="M100.754 158.802L98.1275 158.2L95.7543 159.477L93.7974 126.018L100.754 158.802Z" fill="black"/>
<path opacity="0.1" d="M98.1273 158.199C96.912 150.324 95.735 141.635 94.8354 133.716C96.0556 141.592 97.2278 150.281 98.1273 158.199Z" fill="black"/>
<path d="M138.214 137.391L97.6776 142.841L94.0986 125.974L134.635 120.52L138.214 137.391Z" fill="#0010F7"/>
<path opacity="0.2" d="M138.214 137.391L97.6776 142.841L94.0986 125.974L134.635 120.52L138.214 137.391Z" fill="black"/>
<path d="M122.768 141.53L113.835 142.731L113.156 139.53L122.084 138.329L122.768 141.53Z" fill="#0010F7"/>
<path d="M124.362 114.836C122.926 114.328 123.156 116.271 123.156 116.271C123.156 116.271 122.166 113.52 120.501 113.563C118.835 113.606 119.237 115.955 119.261 116.137C119.204 115.994 118.233 113.491 116.563 113.702C114.893 113.912 115.577 116.242 115.606 116.391C115.51 116.266 114.247 114.687 113.017 115.137C110.902 115.917 114.022 120.046 113.697 121.836C113.697 121.836 110.591 121.63 110.5 121.64C110.5 121.64 113.371 125.63 115.835 125.946C116.19 125.996 116.551 125.924 116.859 125.741C117.167 125.558 117.403 125.276 117.529 124.941C117.529 124.941 118.319 126.329 119.634 126.199C120.314 126.132 120.807 124.994 120.807 124.994C121.002 125.298 121.278 125.543 121.604 125.701C121.93 125.859 122.293 125.924 122.654 125.888C123.611 125.745 123.936 124.62 123.936 124.62C123.936 124.62 125.07 125.362 125.974 124.903C127.821 123.998 127.395 115.927 124.362 114.836Z" fill="#D3766A"/>
<path d="M124.041 124.467C124.041 124.467 124.079 124.501 124.084 124.467C124.622 121.675 124.299 118.784 123.156 116.18C123.118 116.099 122.965 116.123 122.993 116.223C123.741 118.906 124.094 121.683 124.041 124.467Z" fill="#263238"/>
<path d="M120.85 125.046C120.85 125.075 120.903 125.08 120.908 125.046C121.472 121.96 120.912 118.774 119.329 116.065C119.271 115.975 119.128 115.946 119.185 116.065C120.171 117.951 120.936 122.434 120.85 125.046Z" fill="#263238"/>
<path d="M115.443 116.262C116.989 118.908 117.467 121.802 117.582 124.841C117.582 124.879 117.635 124.874 117.644 124.841C117.998 123.343 117.735 121.415 117.4 119.931C117.116 118.549 116.474 117.266 115.539 116.209C115.501 116.166 115.415 116.204 115.443 116.262Z" fill="#263238"/>
<path d="M123.18 116.247C123.132 116.147 123.041 116.324 122.993 116.247C122.783 115.841 121.323 113.506 120.376 113.754C119.615 113.955 119.357 115.118 119.419 115.601L119.61 116.826L119.008 115.745C118.741 115.265 118.4 114.831 117.998 114.458C117.82 114.275 117.605 114.132 117.367 114.038C117.13 113.944 116.875 113.901 116.62 113.912C116.385 113.926 116.162 114.02 115.987 114.179C115.813 114.337 115.699 114.55 115.663 114.783C115.591 115.309 115.654 115.844 115.845 116.338L116.323 117.721L115.419 116.577C115.168 116.259 114.877 115.974 114.553 115.731C114.255 115.488 113.892 115.337 113.51 115.295C113.336 115.289 113.165 115.331 113.013 115.415C112.861 115.499 112.735 115.623 112.649 115.774C112.507 116.138 112.472 116.534 112.548 116.917C112.703 117.751 112.922 118.572 113.204 119.372C113.333 119.778 113.462 120.19 113.572 120.606C113.705 121.018 113.75 121.453 113.706 121.884C113.705 121.457 113.62 121.034 113.457 120.64C113.319 120.238 113.161 119.841 112.979 119.444C112.634 118.648 112.365 117.821 112.175 116.975C112.065 116.516 112.092 116.035 112.252 115.592C112.364 115.361 112.542 115.168 112.763 115.037C112.984 114.906 113.239 114.843 113.496 114.855C113.969 114.88 114.424 115.047 114.802 115.333C115.168 115.6 115.498 115.914 115.783 116.266L115.362 116.506C115.122 115.925 115.042 115.291 115.127 114.668C115.179 114.327 115.348 114.014 115.606 113.783C115.867 113.565 116.19 113.433 116.529 113.405C116.852 113.39 117.174 113.444 117.474 113.562C117.774 113.681 118.046 113.862 118.271 114.094C118.711 114.51 119.079 114.994 119.362 115.53L118.945 115.668C118.869 115.051 119.017 113.716 120.156 113.276C121.773 112.869 122.993 115.711 123.18 116.247Z" fill="#263238"/>
<path d="M123.157 116.29C123.182 115.981 123.254 115.678 123.372 115.391C123.417 115.275 123.492 115.173 123.59 115.096C123.687 115.018 123.804 114.968 123.927 114.95C124.204 114.95 124.474 115.03 124.707 115.18C124.965 115.328 125.238 115.505 125.506 115.692C125.357 115.392 125.148 115.125 124.893 114.907C124.619 114.655 124.257 114.519 123.884 114.529C123.68 114.56 123.491 114.65 123.338 114.788C123.205 114.919 123.11 115.085 123.066 115.266C122.982 115.608 123.014 115.968 123.157 116.29Z" fill="#263238"/>
<path d="M106.085 114.912L120.888 108.86C120.888 108.86 112.558 94.1035 111.764 92.8691C110.97 91.6346 108.223 79.9169 105.544 74.6345C102.864 69.3522 99.8022 68.7206 99.5391 76.1561C99.2759 83.5915 100.152 93.6825 100.601 96.9409C101.051 100.199 106.085 114.912 106.085 114.912Z" fill="#37474F"/>
<path d="M118.486 106.075C117.922 106.237 117.366 106.427 116.821 106.644C116.266 106.831 115.716 107.041 115.17 107.257C114.118 107.663 113.07 108.089 112.027 108.52L108.897 109.816C107.821 110.266 106.701 110.668 105.663 111.204C105.656 111.21 105.651 111.217 105.648 111.226C105.646 111.235 105.647 111.244 105.65 111.253C105.653 111.261 105.659 111.268 105.666 111.273C105.674 111.278 105.683 111.281 105.692 111.281C106.811 110.95 107.897 110.472 108.988 110.051L112.208 108.807C113.28 108.391 114.352 107.965 115.414 107.529C115.941 107.314 116.457 107.094 116.974 106.855C117.491 106.615 118.031 106.424 118.524 106.137C118.563 106.118 118.524 106.065 118.486 106.075Z" fill="#263238"/>
<path d="M107.343 114.4L106.103 114.95H106.06C105.008 112.027 104.017 109.08 103.041 106.127C102.242 103.501 101.003 99.8642 100.4 97.2183C99.4191 91.0843 99.5005 84.8546 99.4766 78.6632C99.8402 84.802 99.8546 91.0604 100.855 97.113C102.18 102.29 104.591 109.673 106.118 114.883L106.065 114.855L107.338 114.376L107.343 114.4Z" fill="#263238"/>
<path d="M98.9792 79.6155C99.0462 79.9456 99.1993 80.6059 99.2854 80.9313C99.3907 81.3667 99.5151 81.7973 99.5964 82.2566C99.0829 81.4778 98.864 80.5413 98.9792 79.6155Z" fill="#263238"/>
<path d="M82.1419 203.855L79.8213 225.607C79.9026 229.626 80.0414 233.147 80.2998 234.961C80.2978 234.972 80.2978 234.983 80.2998 234.994C80.3107 235.425 80.4204 235.847 80.6203 236.229V236.252C81.8357 237.037 105.419 237.334 106.544 236.965C107.668 236.597 106.711 233.367 105.472 232.363C104.233 231.358 100.525 225.736 100.525 225.736L102.649 203.999L82.1419 203.855Z" fill="#D3766A"/>
<path d="M101.711 226.741C99.668 226.018 97.0412 225.932 95.1943 227.176C95.1225 227.224 95.1943 227.324 95.2661 227.315C97.3796 226.983 99.5228 226.881 101.658 227.009C101.691 227.009 101.723 226.998 101.748 226.978C101.773 226.957 101.79 226.929 101.797 226.897C101.803 226.865 101.798 226.832 101.782 226.803C101.766 226.775 101.741 226.753 101.711 226.741Z" fill="#263238"/>
<path d="M103.084 227.898C101.041 227.171 98.4142 227.09 96.5673 228.334C96.4956 228.381 96.5673 228.482 96.6391 228.472C98.7544 228.142 100.899 228.037 103.036 228.161C103.07 228.165 103.104 228.156 103.132 228.136C103.159 228.116 103.178 228.086 103.184 228.052C103.19 228.019 103.183 227.984 103.165 227.955C103.146 227.927 103.117 227.906 103.084 227.898Z" fill="#263238"/>
<path d="M104.458 229.056C102.415 228.329 99.7928 228.243 97.9459 229.487C97.8741 229.54 97.9459 229.64 98.0129 229.626C100.128 229.296 102.273 229.194 104.41 229.319C104.444 229.324 104.478 229.315 104.506 229.294C104.533 229.274 104.552 229.244 104.558 229.21C104.564 229.177 104.557 229.142 104.538 229.113C104.52 229.085 104.491 229.064 104.458 229.056Z" fill="#263238"/>
<path d="M107.094 237.123C105.97 237.487 81.85 237.061 80.6347 236.272C80.1562 235.98 79.9361 231.296 79.8213 225.626V225.449L100.553 225.406V225.76C100.553 225.76 104.788 231.501 106.032 232.516C107.276 233.53 108.219 236.76 107.094 237.123Z" fill="#37474F"/>
<path d="M79.8159 225.444V225.63C79.9355 231.295 80.1604 235.979 80.6293 236.271C81.1796 236.63 88.1461 236.884 95.6772 237.027C104.687 237.195 106.476 237.324 107.089 237.123C108.213 236.755 107.251 233.52 106.017 232.515C104.783 231.511 100.538 225.759 100.538 225.759V225.41H93.6246L79.8159 225.444Z" fill="#0010F7"/>
<path opacity="0.3" d="M79.8159 225.444V225.63C79.9355 231.295 80.1604 235.979 80.6293 236.271C81.1796 236.63 88.1461 236.884 95.6772 237.027C104.687 237.195 106.476 237.324 107.089 237.123C108.213 236.755 107.251 233.52 106.017 232.515C104.783 231.511 100.538 225.759 100.538 225.759V225.41H93.6246L79.8159 225.444Z" fill="black"/>
<path d="M106.74 235.87C101.328 235.688 87.4813 235.329 82.1129 235.559C82.0698 235.559 82.0698 235.592 82.1129 235.592C87.4765 235.894 101.323 236.071 106.74 235.961C106.855 235.956 106.855 235.875 106.74 235.87Z" fill="#263238"/>
<path opacity="0.1" d="M93.6392 225.42C94.2038 228.884 95.0746 233.989 95.6822 237.027C104.692 237.195 106.481 237.324 107.094 237.123C108.218 236.755 107.256 233.52 106.022 232.515C104.788 231.511 100.543 225.759 100.543 225.759V225.41L93.6392 225.42Z" fill="black"/>
<path d="M78.3809 225.831L101.625 225.664C101.625 225.664 103.845 175.515 105.041 162.951C106.544 147.233 108.285 106.214 108.285 106.214L88.668 106.539C88.668 106.539 86.5484 115.63 86.0699 119.152C85.8976 120.405 86.2996 124.161 87.0268 126.831L84.156 166.865L78.3809 225.831Z" fill="#263238"/>
<path d="M80.3523 221.731C80.9643 221.639 81.5808 221.579 82.1992 221.554C82.8834 221.492 83.5676 221.43 84.2566 221.391C85.5772 221.31 86.8978 221.267 88.2232 221.238C90.893 221.186 93.5629 221.162 96.2328 221.2C97.7479 221.219 99.2663 221.259 100.788 221.32C100.845 221.32 100.845 221.411 100.788 221.415C98.1467 221.554 95.5246 221.64 92.8548 221.736C90.1849 221.832 87.5629 221.927 84.9169 221.918C84.161 221.918 83.4002 221.918 82.6442 221.894C81.8882 221.87 81.1083 221.918 80.3667 221.822C80.3188 221.817 80.2997 221.745 80.3523 221.731Z" fill="#37474F"/>
<path d="M100.371 201.061C100.926 195.018 101.424 179.166 101.888 173.118C102.845 161.023 103.534 147.439 104.022 135.319C104.299 128.515 104.5 121.711 104.653 114.907C104.651 114.899 104.65 114.89 104.652 114.881C104.653 114.872 104.657 114.864 104.662 114.857C104.668 114.85 104.675 114.844 104.683 114.84C104.691 114.836 104.699 114.834 104.708 114.834C104.717 114.834 104.726 114.836 104.734 114.84C104.742 114.844 104.749 114.85 104.754 114.857C104.76 114.864 104.763 114.872 104.765 114.881C104.766 114.89 104.766 114.899 104.763 114.907C104.72 127.104 104.314 139.31 103.692 151.482C103.07 163.654 102.208 186.984 101.027 199.061C100.366 205.836 99.6294 212.611 98.6916 219.353C98.6916 219.364 98.6871 219.375 98.679 219.383C98.6709 219.391 98.66 219.396 98.6485 219.396C98.6371 219.396 98.6262 219.391 98.6181 219.383C98.61 219.375 98.6055 219.364 98.6055 219.353C99.1748 213.252 99.8112 207.161 100.371 201.061Z" fill="#37474F"/>
<path d="M108.281 106.209C108.281 106.209 106.716 143.051 105.276 160.276L89.314 106.529L108.281 106.209Z" fill="#37474F"/>
<path d="M111.859 205.482C111.859 205.482 112.39 226.492 112.39 226.506C112.472 230.526 112.611 234.052 112.869 235.865C112.867 235.875 112.867 235.885 112.869 235.894C112.88 236.325 112.99 236.747 113.19 237.128L113.213 237.152C114.429 237.942 146.563 238.238 147.663 237.87C148.764 237.502 147.831 234.267 146.592 233.262C145.352 232.258 133.094 226.64 133.094 226.64L132.367 205.64L111.859 205.482Z" fill="#D3766A"/>
<path d="M112.281 222.195L112.391 226.501C112.472 230.52 112.611 234.046 112.869 235.86C112.867 235.869 112.867 235.879 112.869 235.889C112.926 236.311 113.034 236.726 113.19 237.123L113.214 237.147C114.429 237.936 146.563 238.233 147.664 237.865C148.764 237.496 147.831 234.262 146.592 233.257C145.353 232.252 133.094 226.635 133.094 226.635L133.046 222.257L112.281 222.195Z" fill="white"/>
<path d="M135.08 226.621C132.936 226.3 130.343 226.726 128.773 228.31C128.711 228.367 128.797 228.453 128.864 228.429C130.877 227.696 132.962 227.18 135.084 226.889C135.12 226.888 135.154 226.873 135.178 226.848C135.203 226.822 135.217 226.788 135.216 226.752C135.215 226.717 135.201 226.683 135.175 226.658C135.15 226.634 135.115 226.62 135.08 226.621Z" fill="#263238"/>
<path d="M136.654 227.487C134.505 227.171 131.912 227.597 130.343 229.176C130.28 229.238 130.371 229.324 130.438 229.301C132.45 228.564 134.536 228.045 136.658 227.755C136.676 227.755 136.693 227.751 136.709 227.744C136.726 227.737 136.74 227.727 136.752 227.714C136.765 227.701 136.774 227.687 136.781 227.67C136.787 227.654 136.79 227.636 136.79 227.619C136.79 227.601 136.786 227.584 136.779 227.568C136.772 227.551 136.762 227.537 136.749 227.525C136.736 227.512 136.721 227.503 136.705 227.496C136.689 227.49 136.671 227.487 136.654 227.487Z" fill="#263238"/>
<path d="M138.223 228.353C136.079 228.037 133.486 228.463 131.917 230.047C131.855 230.104 131.945 230.19 132.012 230.166C134.025 229.431 136.11 228.915 138.233 228.626C138.264 228.619 138.292 228.601 138.312 228.575C138.332 228.55 138.342 228.518 138.341 228.485C138.34 228.453 138.328 228.422 138.306 228.398C138.284 228.374 138.255 228.358 138.223 228.353Z" fill="#263238"/>
<path d="M147.678 237.87C146.553 238.238 114.419 237.942 113.228 237.152C112.749 236.86 112.529 232.176 112.415 226.511V226.329L133.147 226.291V226.64C133.147 226.64 145.362 232.257 146.606 233.262C147.85 234.267 148.807 237.506 147.678 237.87Z" fill="#0010F7"/>
<path opacity="0.3" d="M147.678 237.87C146.553 238.238 114.419 237.942 113.228 237.152C112.749 236.86 112.529 232.176 112.415 226.511V226.329L133.147 226.291V226.64C133.147 226.64 145.362 232.257 146.606 233.262C147.85 234.267 148.807 237.506 147.678 237.87Z" fill="black"/>
<path d="M147.329 236.611C141.912 236.429 120.056 236.2 114.683 236.434C114.64 236.434 114.64 236.463 114.683 236.468C120.046 236.764 141.908 236.812 147.324 236.697C147.439 236.707 147.439 236.611 147.329 236.611Z" fill="#263238"/>
<path d="M100.113 128.621C100.113 128.621 106.946 158.516 107.209 164.027C107.438 168.731 110.85 226.87 110.85 226.87L134.994 226.611C134.994 226.611 128.922 167.568 128.472 162.669C127.611 153.501 122.357 128.444 116.233 106.094L90.2087 106.534C90.2087 106.534 89.6585 119.085 95.1465 127.496C95.137 127.52 98.5485 127.774 100.113 128.621Z" fill="#263238"/>
<path d="M112.06 222.41C114.845 222.281 117.735 222.152 120.529 222.176C123.324 222.2 126.07 222.176 128.836 222.31C130.4 222.377 131.965 222.405 133.534 222.535C133.587 222.535 133.582 222.611 133.534 222.616C130.749 222.826 127.95 222.841 125.161 222.86C122.371 222.879 119.62 222.898 116.85 222.817C115.285 222.774 113.721 222.721 112.151 222.64C111.984 222.63 111.888 222.415 112.06 222.41Z" fill="#37474F"/>
<path d="M106.094 129.099C104.891 129.112 103.689 129.024 102.501 128.836C101.323 128.593 100.159 128.289 99.0126 127.927C97.8866 127.696 96.7472 127.536 95.6011 127.448C94.4441 127.294 93.3158 126.971 92.2518 126.491C92.2418 126.488 92.2309 126.488 92.221 126.492C92.2112 126.496 92.2031 126.503 92.1984 126.513C92.1937 126.522 92.1926 126.533 92.1954 126.543C92.1981 126.553 92.2046 126.562 92.2135 126.568C93.2476 127.101 94.3248 127.546 95.4336 127.898C96.5867 128.243 97.7829 128.271 98.9504 128.534C100.13 128.864 101.328 129.119 102.539 129.3C103.732 129.423 104.936 129.383 106.118 129.18C106.156 129.171 106.137 129.099 106.094 129.099Z" fill="#37474F"/>
<path d="M105.826 154.97C105.654 154.013 105.496 153.056 105.309 152.07C104.936 150.128 104.553 148.176 104.123 146.243C103.266 142.415 102.477 138.534 101.558 134.711C101.037 132.539 100.601 130.348 99.9506 128.214C99.9506 128.204 99.9465 128.194 99.9394 128.187C99.9322 128.18 99.9225 128.175 99.9123 128.175C99.9022 128.175 99.8924 128.18 99.8852 128.187C99.8781 128.194 99.874 128.204 99.874 128.214C100.137 130.185 100.563 132.123 100.936 134.075C101.309 136.027 101.707 137.965 102.113 139.908C102.917 143.764 103.702 147.625 104.601 151.458C104.853 152.536 105.118 153.608 105.396 154.673C105.683 155.759 105.874 156.879 106.247 157.946C106.247 157.957 106.252 157.968 106.26 157.976C106.268 157.984 106.279 157.989 106.29 157.989C106.302 157.989 106.313 157.984 106.321 157.976C106.329 157.968 106.333 157.957 106.333 157.946C106.233 156.941 105.984 155.955 105.826 154.97Z" fill="#37474F"/>
<path d="M115.582 119.271C118.376 131.984 121.639 146.903 124.104 159.616C125.783 175.094 126.678 191.477 127.893 207.052L128.75 219.712C127.199 202.678 125.4 176.626 123.654 159.697C121.769 149.946 117.549 129.209 115.582 119.271Z" fill="#37474F"/>
<path d="M138.472 74.089C138.716 70.8976 135.788 67.8689 127.702 58.0985C126.582 56.7444 117.903 64.0507 119.022 65.5579C120.434 67.4718 124.515 71.7301 125.013 72.1895C129.195 76.0794 138.309 76.2517 138.472 74.089Z" fill="#D3766A"/>
<path d="M127.702 58.0986C127.324 57.4623 122.979 53.4383 121.108 52.357C119.421 51.2374 117.536 50.4513 115.553 50.0412C112.032 49.2948 110.156 49.0842 109.161 49.6297C108.003 50.2661 108.792 51.0651 112.477 52.4479C115.874 53.735 116.582 55.3666 116.855 56.8929C117.523 60.6448 119.084 64.1811 121.405 67.2039C121.405 67.2039 129.156 60.534 127.702 58.0986Z" fill="#D3766A"/>
<path d="M116.659 56.137C116.993 57.7016 112.797 53.2327 110.998 53.5102C109.199 53.7877 110.103 55.4241 111.381 56.5868C115.826 60.6586 116.367 64.2854 120.19 66.0366C124.013 67.7878 116.659 56.137 116.659 56.137Z" fill="#D3766A"/>
<path d="M117.242 66.2757L132.075 62.3475C132.075 62.3475 140.013 70.0844 139.826 73.2375C139.706 75.3141 133.606 77.8787 126.233 73.6586L117.242 66.2757Z" fill="#455A64"/>
<path d="M133.864 65.4574C132.209 65.9933 130.515 66.4143 128.84 66.8928C127.166 67.3713 125.467 67.778 123.773 68.1799C122.816 68.4048 121.859 68.6584 120.903 68.8306C120.879 68.8306 120.864 68.7971 120.903 68.7876C122.558 68.2517 124.252 67.7971 125.922 67.3521C127.592 66.9072 129.271 66.4622 130.984 66.0411C131.941 65.8067 132.898 65.5627 133.855 65.3904C133.86 65.3937 133.865 65.3982 133.869 65.4036C133.872 65.409 133.875 65.4151 133.876 65.4216C133.877 65.428 133.876 65.4346 133.874 65.4408C133.872 65.447 133.869 65.4527 133.864 65.4574Z" fill="#263238"/>
<path d="M104.587 74.4672C102.998 74.783 101.108 72.4864 100.692 70.4481C100.663 70.2997 100.879 68.9074 101.108 67.1897C101.242 66.1466 101.367 64.9792 101.405 63.9074L108.07 65.7973C107.641 67.1236 107.376 68.4975 107.281 69.8883C107.275 70.0356 107.285 70.1831 107.309 70.3285C107.309 70.3285 107.309 70.3763 107.309 70.405C107.419 71.2232 106.123 74.1562 104.587 74.4672Z" fill="#D3766A"/>
<path d="M98.3855 54.7925C97.5913 57.6633 98.931 64.7303 100.998 66.5103C103.988 69.0844 108.788 69.2184 110.955 65.6442C113.051 62.1801 111.242 53.2518 108.945 51.6442C105.563 49.2805 99.5626 50.5676 98.3855 54.7925Z" fill="#D3766A"/>
<path d="M98.716 53.3571C98.716 53.3571 97.137 55.1561 96.9648 56.1848C96.7925 57.2135 97.0844 61.1131 98.85 63.5581C99.4863 64.4384 99.5055 66.3284 100.529 66.9504C101.553 67.5724 106.041 64.7973 106.333 64.003C106.625 63.2088 105.74 60.7016 105.544 59.6442C105.348 58.5867 106.577 58.3475 106.912 58.515C109.032 59.5676 109.357 62.3427 109.539 61.8643C109.721 61.3858 110.333 59.9504 110.343 58.9265C110.352 57.9025 108.429 54.8786 108.51 54.0652C108.592 53.2518 109.726 53.7733 110.467 53.625C110.922 53.5341 110.726 50.7924 110.094 50.3283C109.462 49.8642 108.128 50.1465 107.553 50.1226C106.979 50.0987 106.261 49.3857 104.735 49.3905C103.209 49.3953 101.41 50.2901 100.678 50.6011C99.5198 51.0795 98.716 53.3571 98.716 53.3571Z" fill="#263238"/>
<path d="M108.745 60.4528C108.745 60.4528 106.941 57.9552 105.807 58.6202C104.673 59.2853 106.051 62.9265 107.405 63.4049C107.574 63.4785 107.757 63.5171 107.942 63.5182C108.127 63.5193 108.31 63.483 108.48 63.4115C108.65 63.3399 108.804 63.2346 108.933 63.1019C109.061 62.9693 109.162 62.8119 109.228 62.6394L108.745 60.4528Z" fill="#D3766A"/>
<path d="M106.228 59.6345C106.228 59.6345 106.228 59.6632 106.228 59.6728C107.185 60.0412 107.687 60.9072 108.046 61.8067C107.99 61.7127 107.914 61.632 107.824 61.5703C107.733 61.5086 107.631 61.4674 107.523 61.4497C107.415 61.4319 107.304 61.4379 107.199 61.4674C107.093 61.4968 106.995 61.549 106.912 61.6201C106.888 61.6201 106.912 61.6728 106.941 61.668C107.106 61.6136 107.284 61.6115 107.45 61.662C107.616 61.7126 107.762 61.8133 107.869 61.9503C108.05 62.1786 108.202 62.4276 108.324 62.6919C108.372 62.7733 108.52 62.7254 108.486 62.6297C108.482 61.4048 107.52 59.735 106.228 59.6345Z" fill="#263238"/>
<path d="M110.352 53.6345C111.139 55.2535 111.645 56.9944 111.85 58.7828C112.129 60.5632 112.031 62.3823 111.563 64.1226C112.165 60.6202 111.563 56.9455 110.352 53.6345Z" fill="#263238"/>
<path d="M99.8975 70.1179L100.677 67.6538L107.61 69.8883L107.969 71.4672L99.8975 70.1179Z" fill="#0010F7"/>
<path d="M83.9165 115.08C83.9404 115.104 91.0218 117.386 93.5098 117.386C93.8974 117.386 95.1414 112.797 95.4237 112.826C95.706 112.855 96.3089 117.611 96.6534 117.611C104.385 117.611 120.577 115.338 120.759 115.152C120.941 114.965 118.275 105.046 118.051 103.735C116.352 93.8404 112.309 76.9409 108.539 72.0557C106.807 69.7925 101.869 68.7542 100.275 69.8834C92.9261 75.094 88.3136 99.4481 87.6629 102.266C86.8447 105.821 83.7729 114.893 83.9165 115.08Z" fill="#455A64"/>
<path opacity="0.1" d="M95.2999 107.051C95.4434 105.041 95.721 102.113 95.9123 100.075C95.9985 94.5102 96.1946 88.7207 97.3478 83.1992C96.5583 88.8021 96.3669 94.4624 96.1946 100.108C95.941 102.147 95.5822 105.046 95.2808 107.051H95.2999Z" fill="black"/>
<path d="M108.214 78.9456C121.611 80.9169 137.721 78.4671 139.716 74.2135C141.946 69.4958 125.29 68.2374 124.501 68.18C123.4 68.0987 116.367 69.0748 107.022 71.5293C97.6777 73.9839 104.898 78.4576 108.214 78.9456Z" fill="#455A64"/>
<path d="M112.874 79.4526C110.634 79.7301 108.39 79.2756 106.208 78.8019C108.462 78.8019 110.644 79.2373 112.874 79.4526Z" fill="#263238"/>
<path d="M106.596 79.2661C107.294 79.3197 107.997 79.2451 108.668 79.046C108.356 79.2215 108.011 79.3315 107.655 79.3694C107.299 79.4072 106.938 79.3721 106.596 79.2661Z" fill="#263238"/>
<path d="M107.936 71.2853C106.963 71.7075 105.923 71.9553 104.864 72.0174C105.795 71.4792 106.863 71.2248 107.936 71.2853Z" fill="#263238"/>
<path d="M104.989 71.5388C105.322 71.4072 105.678 71.3453 106.036 71.3568C106.394 71.3683 106.746 71.453 107.07 71.6058C106.386 71.4568 105.681 71.4341 104.989 71.5388Z" fill="#263238"/>
<path d="M120.156 68.6681C121.786 68.2316 123.465 68.0081 125.151 68.003C126.826 68.126 128.486 68.4063 130.108 68.8403C127.616 68.625 125.161 68.1561 122.654 68.4575L120.156 68.6681Z" fill="#263238"/>
<path d="M71.2372 42.778C71.4578 44.9029 72.2648 46.9247 73.568 48.6175C74.8713 50.3102 76.6196 51.6073 78.6175 52.3637C80.6154 53.1202 82.7843 53.3063 84.8819 52.9013C86.9795 52.4962 88.9231 51.5159 90.4957 50.0699L96.2613 50.9168L93.3904 45.9311C94.0514 44.3086 94.3338 42.5567 94.2162 40.8087C94.0985 39.0606 93.5839 37.3624 92.7115 35.843C91.8391 34.3237 90.6318 33.0232 89.1814 32.0405C87.7309 31.0577 86.0756 30.4185 84.3411 30.1715C82.6066 29.9244 80.8386 30.076 79.1714 30.6148C77.5043 31.1535 75.9819 32.0652 74.72 33.2806C73.4581 34.496 72.4899 35.983 71.8888 37.6287C71.2878 39.2744 71.0699 41.0355 71.2516 42.778H71.2372Z" fill="white"/>
<path d="M74.6868 33.2613C75.9477 32.0336 77.4661 31.102 79.1318 30.534C80.8139 29.9839 82.5985 29.8208 84.3525 30.0569C86.1064 30.2931 87.7843 30.9223 89.2611 31.8977C91.4969 33.3937 93.1469 35.6165 93.9317 38.1897C94.7164 40.7629 94.5877 43.5282 93.5673 46.0173V45.8164L96.4381 50.8116L96.6486 51.18L96.2324 51.1178L90.4907 50.2327L90.6247 50.1896C89.0233 51.642 87.0479 52.6181 84.9213 53.0078C84.3955 53.105 83.8626 53.1594 83.328 53.1705C82.7937 53.1992 82.2581 53.1896 81.7251 53.1418C79.5911 52.9322 77.5555 52.1412 75.8399 50.8547C75.4123 50.5393 75.0063 50.1956 74.6246 49.826C74.25 49.4467 73.9 49.044 73.5768 48.6202C71.8497 46.368 71.0089 43.5606 71.2135 40.7298C71.418 37.8991 72.6539 35.2417 74.6868 33.2613ZM73.5959 48.5963C73.9221 49.0132 74.272 49.4109 74.6438 49.7877C75.0283 50.1516 75.4359 50.4904 75.8639 50.802C76.7107 51.437 77.6477 51.9417 78.6438 52.2997C79.6332 52.6664 80.6685 52.895 81.7204 52.9791C82.246 53.0174 82.7737 53.0174 83.2993 52.9791C83.8249 52.9576 84.348 52.8952 84.8639 52.7925C86.9319 52.3754 88.8425 51.3894 90.3807 49.9456L90.4381 49.8929H90.5194L96.2898 50.7016L96.084 51.003L93.1797 46.0269L93.1271 45.936L93.1702 45.8307C93.8099 44.2387 94.0862 42.5239 93.9788 40.8116C93.8653 39.0951 93.3647 37.4266 92.5147 35.9312C91.65 34.4445 90.475 33.1617 89.0697 32.1704C87.6391 31.1868 86.0024 30.5435 84.285 30.29C82.0256 29.9437 79.7143 30.2848 77.6512 31.2689C75.5881 32.2531 73.8687 33.8348 72.7161 35.8088C71.5635 37.7827 71.0311 40.0575 71.188 42.3379C71.3449 44.6183 72.1839 46.7988 73.5959 48.5963Z" fill="#263238"/>
<path d="M81.199 48.1655L76.2803 43.1798L77.931 41.5483L80.8066 44.4574L86.7827 35.0937L88.7444 36.3425L81.199 48.1655Z" fill="#0010F7"/>
</svg>
