<svg width="51" height="52" viewBox="0 0 51 52" fill="none" xmlns="http://www.w3.org/2000/svg">
<path d="M19.125 21.762C21.4722 21.762 23.375 19.864 23.375 17.5229C23.375 15.1816 21.4722 13.2837 19.125 13.2837C16.7777 13.2837 14.875 15.1816 14.875 17.5229C14.875 19.864 16.7777 21.762 19.125 21.762Z" stroke="#502FD8" stroke-width="2"/>
<path d="M27.625 4.80542H19.125C8.50002 4.80542 4.25 9.04454 4.25 19.6424V32.3598C4.25 42.9576 8.50002 47.1967 19.125 47.1967H31.875C42.5 47.1967 46.75 42.9576 46.75 32.3598V21.762" stroke="#502FD8" stroke-width="2"/>
<path d="M33.4687 11.1641H45.1563" stroke="#502FD8" stroke-width="2"/>
<path d="M39.3125 16.993V5.33545" stroke="#502FD8" stroke-width="2"/>
<path d="M5.67377 40.7319L16.15 33.7162C17.8287 32.5927 20.2512 32.7199 21.76 34.0129L22.4612 34.6275C24.1187 36.0477 26.7963 36.0477 28.4538 34.6275L37.2937 27.0608C38.9512 25.6406 41.6288 25.6406 43.2863 27.0608L46.75 30.0281" stroke="#502FD8" stroke-width="2"/>
</svg>
